<svg width="20" height="18" viewBox="0 0 20 18" fill="none" xmlns="http://www.w3.org/2000/svg">
<path fill-rule="evenodd" clip-rule="evenodd" d="M5.20202 0.0320428C5.04834 0.0551416 4.88283 0.112795 4.83412 0.160111C4.7854 0.207426 4.68397 0.246079 4.60862 0.246079C4.21716 0.246079 3.20612 0.881947 2.54277 1.54529C1.87943 2.20864 1.24356 3.21967 1.24356 3.61114C1.24356 3.68649 1.19122 3.8005 1.12714 3.86458C0.957621 4.03409 0.957621 13.9684 1.12714 14.1379C1.19122 14.202 1.24356 14.316 1.24356 14.3914C1.24356 14.7828 1.87943 15.7939 2.54277 16.4572C3.20612 17.1206 4.21716 17.7564 4.60862 17.7564C4.68397 17.7564 4.79798 17.8089 4.86206 17.8729C5.03157 18.0424 14.9659 18.0424 15.1354 17.8729C15.1995 17.8088 15.3135 17.7564 15.3889 17.7564C15.7803 17.7564 16.7914 17.1206 17.4547 16.4572C18.1181 15.7939 18.7539 14.7828 18.7539 14.3914C18.7539 14.316 18.8063 14.2019 18.8703 14.1379C18.9606 14.0477 18.9868 12.8933 18.9868 9.00126C18.9868 5.10921 18.9606 3.95483 18.8703 3.86458C18.8064 3.80059 18.7539 3.68649 18.7539 3.61114C18.7539 3.21967 18.1181 2.20864 17.4547 1.54529C16.7914 0.881947 15.7803 0.246079 15.3889 0.246079C15.3135 0.246079 15.1995 0.193641 15.1355 0.129654C15.0457 0.0398666 13.9285 0.0105274 10.2503 0.00158598C7.62739 -0.00484069 5.3557 0.00885089 5.20202 0.0320428ZM15.2196 1.98575C15.8435 2.28818 16.593 2.96484 16.8593 3.46603C16.939 3.61608 17.0835 3.96545 17.1805 4.24245C17.3436 4.70815 17.3568 5.0659 17.3568 9.00126C17.3568 12.9462 17.3439 13.2933 17.1796 13.7601C16.9039 14.5431 16.7507 14.7871 16.22 15.2886C15.6478 15.8296 15.4622 15.9437 14.7658 16.1833C14.2931 16.3459 13.9293 16.3593 9.99874 16.3593C6.06338 16.3593 5.70563 16.3461 5.23993 16.183C4.96293 16.0861 4.61356 15.9415 4.46351 15.8618C3.96791 15.5984 3.2987 14.8576 2.99003 14.2307L2.68723 13.6156V9.00321V4.39082L2.98258 3.78168C3.14502 3.44675 3.47557 2.97499 3.71709 2.73348C4.11573 2.33484 5.00978 1.81335 5.48144 1.70438C5.5839 1.68072 7.67955 1.66777 10.1385 1.67559L14.6092 1.68975L15.2196 1.98575ZM7.21618 5.70875C6.83896 5.87333 6.69226 6.15815 6.69226 6.72594C6.69226 7.3265 6.79956 7.51744 7.27569 7.76454C8.14451 8.21525 9.21273 7.14702 8.76202 6.27821C8.53784 5.84613 8.32343 5.70968 7.82345 5.68072C7.55986 5.66544 7.28659 5.67802 7.21618 5.70875ZM11.7701 5.71211C11.4314 5.85731 11.1162 6.35971 11.1168 6.75323C11.1175 7.28515 11.7357 7.88358 12.2843 7.88358C12.5341 7.88358 12.8864 7.71034 13.1283 7.46845C13.2632 7.3334 13.3052 7.15736 13.3052 6.72594C13.3052 5.98184 13.0736 5.72002 12.3801 5.68007C12.1205 5.66516 11.846 5.67951 11.7701 5.71211ZM4.60378 9.28785C4.1799 9.71173 4.256 10.1926 4.85274 10.8605C4.96796 10.9894 5.06231 11.1218 5.06231 11.1546C5.06231 11.3137 6.28887 12.412 6.64569 12.5724C6.72253 12.6071 6.9321 12.7239 7.11139 12.832C7.55353 13.0988 8.3075 13.3278 9.23033 13.4756C9.85782 13.5761 10.1397 13.5771 10.7671 13.4807C11.6438 13.346 12.4453 13.0992 12.8999 12.8242C13.0716 12.7203 13.2749 12.6071 13.3518 12.5724C13.7574 12.39 14.6704 11.5568 15.0328 11.0383C15.1534 10.8656 15.2751 10.7034 15.3033 10.6777C15.4384 10.5542 15.6803 9.9864 15.6803 9.79258C15.6803 9.46333 15.1704 9.00061 14.8116 9.00433C14.541 9.00722 14.0969 9.26671 14.0969 9.42188C14.0969 9.50124 13.5703 10.188 13.3093 10.449C12.9424 10.8158 12.3689 11.2048 11.815 11.4624C10.9056 11.8853 9.27029 11.9033 8.22908 11.502C8.04978 11.4329 7.88213 11.3531 7.85652 11.3248C7.8309 11.2965 7.64229 11.1721 7.43738 11.0483C6.91617 10.7335 5.90057 9.65874 5.90057 9.42188C5.90057 9.26671 5.45648 9.00722 5.18591 9.00433C4.97746 9.00219 4.8059 9.08574 4.60378 9.28785Z" fill="white"/>
</svg>
