<svg width="20" height="19" viewBox="0 0 20 19" fill="none" xmlns="http://www.w3.org/2000/svg">
<path fill-rule="evenodd" clip-rule="evenodd" d="M13.0563 0.693434C13.6714 0.946373 14.1293 1.53314 14.2391 2.20867C14.3246 2.73481 14.344 2.75042 14.9162 2.75338C16.0578 2.75943 17.2213 3.54117 17.7378 4.64943C17.9777 5.16431 18 5.67286 18 10.6282C18 16.6072 17.9929 16.6606 17.0621 17.5767C16.1314 18.493 16.0771 18.5 10.0031 18.5C3.92919 18.5 3.87488 18.493 2.94423 17.5767C2.01386 16.6611 2.00657 16.607 2.00314 10.6206L2 5.19709C2 3 3.99678 2.75028 5.15338 2.75028C5.67144 2.75028 5.71575 2.71976 5.71632 2.36342C5.71703 1.83728 6.1865 1.11856 6.75058 0.780092C7.1716 0.527294 7.47429 0.500425 9.90053 0.500003C11.8594 0.49958 12.7122 0.551913 13.0563 0.693434ZM7.49159 2.37496C7.45 2.48159 7.43542 2.97368 7.45914 3.46844L7.50216 4.36808H10.0031H12.5041V3.31299V2.25791L10.0357 2.21937C8.0428 2.18828 7.55261 2.21824 7.49159 2.37496ZM4.44525 4.6348C3.74026 5.01942 3.72539 5.14096 3.71996 10.6001C3.71453 16.1408 3.73611 16.3087 4.49698 16.6499C4.76537 16.7704 6.33227 16.8181 10.017 16.8181C15.5982 16.8181 15.7746 16.7958 16.1205 16.0483C16.3622 15.5262 16.3622 5.73026 16.1205 5.2082C15.917 4.76859 15.3242 4.43842 14.7381 4.43842C14.392 4.43842 14.266 4.5338 14.0522 4.95681C13.519 6.0126 13.3585 6.05621 10.0031 6.05621C6.64782 6.05621 6.48733 6.0126 5.95412 4.95681C5.73361 4.52029 5.62071 4.43926 5.23956 4.44334C4.99046 4.44615 4.63318 4.53225 4.44525 4.6348ZM13.1472 9.22146C13.3044 9.3762 13.4331 9.62942 13.4331 9.78417C13.4331 9.93892 13.3044 10.1921 13.1472 10.3469C12.8804 10.6095 12.6709 10.6282 10.0031 10.6282C7.33538 10.6282 7.12587 10.6095 6.85905 10.3469C6.70185 10.1921 6.57323 9.93892 6.57323 9.78417C6.57323 9.62942 6.70185 9.3762 6.85905 9.22146C7.12587 8.95881 7.33538 8.9401 10.0031 8.9401C12.6709 8.9401 12.8804 8.95881 13.1472 9.22146ZM13.1472 12.5977C13.3044 12.7525 13.4331 13.0057 13.4331 13.1604C13.4331 13.3152 13.3044 13.5684 13.1472 13.7231C12.8804 13.9858 12.6709 14.0045 10.0031 14.0045C7.33538 14.0045 7.12587 13.9858 6.85905 13.7231C6.70185 13.5684 6.57323 13.3152 6.57323 13.1604C6.57323 13.0057 6.70185 12.7525 6.85905 12.5977C7.12587 12.3351 7.33538 12.3164 10.0031 12.3164C12.6709 12.3164 12.8804 12.3351 13.1472 12.5977Z" fill="white"/>
</svg>
