<svg width="182" height="144" viewBox="0 0 182 144" fill="none" xmlns="http://www.w3.org/2000/svg">
<path d="M113.421 11.8554L93.5894 31.6873L95.4645 33.5624L115.296 13.7305L113.421 11.8554Z" fill="#455A64"/>
<path d="M116.757 15.1897L96.9255 35.0216L98.8006 36.8967L118.632 17.0649L116.757 15.1897Z" fill="#455A64"/>
<path d="M146.751 45.1791L126.919 65.011L128.794 66.8861L148.626 47.0542L146.751 45.1791Z" fill="#455A64"/>
<path d="M150.082 48.5185L130.25 68.3503L132.125 70.2254L151.957 50.3936L150.082 48.5185Z" fill="#455A64"/>
<path d="M143.524 66.8088C144.399 66.9723 145.394 67.1572 146.211 66.3325C147.029 65.5078 146.851 64.5196 146.688 63.6451C146.524 62.7707 146.41 62.1379 146.972 61.5763C147.534 61.0147 148.223 61.1497 149.034 61.299C149.844 61.4483 150.904 61.6403 151.728 60.8227C151.761 60.7896 151.788 60.7502 151.806 60.7069C151.824 60.6636 151.833 60.6172 151.833 60.5703C151.833 60.5235 151.824 60.477 151.806 60.4337C151.788 60.3904 151.761 60.3511 151.728 60.318C151.695 60.2848 151.656 60.2585 151.612 60.2406C151.569 60.2226 151.523 60.2134 151.476 60.2134C151.429 60.2134 151.383 60.2226 151.339 60.2406C151.296 60.2585 151.257 60.2848 151.224 60.318C150.669 60.8796 149.972 60.7516 149.162 60.6023C148.351 60.453 147.292 60.254 146.467 61.0787C145.643 61.9033 145.835 62.8915 145.991 63.7731C146.147 64.6547 146.268 65.2803 145.714 65.8348C145.159 66.3894 144.455 66.2614 143.652 66.1121C142.849 65.9628 141.782 65.7637 140.958 66.5884C140.133 67.4131 140.325 68.4013 140.488 69.2758C140.652 70.1502 140.766 70.783 140.211 71.3375C139.657 71.892 138.96 71.764 138.149 71.6147C137.339 71.4654 136.28 71.2664 135.455 72.0911C134.63 72.9158 134.822 73.904 134.986 74.7784C135.149 75.6529 135.263 76.2856 134.708 76.8401C134.154 77.3947 133.45 77.2667 132.647 77.1174C131.843 76.9681 130.777 76.7761 129.952 77.5937C129.904 77.6434 129.87 77.7063 129.857 77.7746C129.844 77.8429 129.851 77.9136 129.877 77.9779C129.904 78.0423 129.949 78.0974 130.006 78.1366C130.064 78.1757 130.132 78.1971 130.201 78.198C130.297 78.1978 130.389 78.1594 130.457 78.0914C131.012 77.5368 131.708 77.6648 132.519 77.8141C133.329 77.9634 134.389 78.1625 135.206 77.3449C136.024 76.5273 135.846 75.5249 135.682 74.6504C135.519 73.776 135.398 73.1433 135.96 72.5887C136.521 72.0342 137.211 72.1622 138.021 72.3115C138.832 72.4608 139.891 72.6598 140.709 71.8351C141.526 71.0104 141.349 70.0222 141.185 69.1478C141.022 68.2733 140.901 67.6406 141.462 67.0861C142.024 66.5315 142.714 66.6595 143.524 66.8088Z" fill="#455A64"/>
<path d="M145.941 95.6089C145.941 95.7032 145.979 95.7936 146.045 95.8603C146.112 95.9269 146.202 95.9644 146.297 95.9644C146.391 95.9644 146.481 95.9269 146.548 95.8603C146.615 95.7936 146.652 95.7032 146.652 95.6089C146.652 94.9551 146.846 94.3159 147.209 93.7723C147.573 93.2286 148.089 92.8049 148.693 92.5547C149.297 92.3045 149.962 92.239 150.603 92.3666C151.244 92.4941 151.833 92.809 152.296 93.2713C152.758 93.7336 153.073 94.3227 153.2 94.964C153.328 95.6052 153.263 96.2699 153.012 96.874C152.762 97.4781 152.338 97.9944 151.795 98.3576C151.251 98.7209 150.612 98.9148 149.958 98.9148C149.864 98.9148 149.773 98.9522 149.707 99.0189C149.64 99.0855 149.603 99.176 149.603 99.2702C149.603 99.3645 149.64 99.4549 149.707 99.5216C149.773 99.5882 149.864 99.6257 149.958 99.6257C150.753 99.6257 151.529 99.3901 152.19 98.9487C152.85 98.5074 153.365 97.88 153.669 97.1461C153.973 96.4121 154.053 95.6044 153.898 94.8253C153.743 94.0461 153.36 93.3304 152.798 92.7686C152.237 92.2068 151.521 91.8243 150.742 91.6693C149.963 91.5143 149.155 91.5938 148.421 91.8979C147.687 92.2019 147.06 92.7167 146.618 93.3773C146.177 94.0378 145.941 94.8145 145.941 95.6089V95.6089Z" fill="#455A64"/>
<path d="M51.7207 29.9822C51.815 29.9822 51.9054 29.9448 51.972 29.8781C52.0387 29.8115 52.0762 29.721 52.0762 29.6268V27.2736C52.0762 27.1793 52.0387 27.0889 51.972 27.0222C51.9054 26.9555 51.815 26.9181 51.7207 26.9181C51.6264 26.9181 51.536 26.9555 51.4693 27.0222C51.4027 27.0889 51.3652 27.1793 51.3652 27.2736V29.6197C51.3633 29.6672 51.3711 29.7146 51.3882 29.759C51.4052 29.8034 51.4312 29.8439 51.4645 29.8778C51.4978 29.9118 51.5377 29.9386 51.5818 29.9565C51.6259 29.9745 51.6731 29.9832 51.7207 29.9822V29.9822Z" fill="#455A64"/>
<path d="M53.6118 31.8662H55.965C56.0593 31.8662 56.1497 31.8288 56.2164 31.7621C56.283 31.6954 56.3205 31.605 56.3205 31.5107C56.3205 31.4165 56.283 31.3261 56.2164 31.2594C56.1497 31.1927 56.0593 31.1553 55.965 31.1553H53.6118C53.5175 31.1553 53.4271 31.1927 53.3605 31.2594C53.2938 31.3261 53.2563 31.4165 53.2563 31.5107C53.2563 31.605 53.2938 31.6954 53.3605 31.7621C53.4271 31.8288 53.5175 31.8662 53.6118 31.8662Z" fill="#455A64"/>
<path d="M51.7207 36.1105C51.815 36.1105 51.9054 36.0731 51.972 36.0064C52.0387 35.9397 52.0762 35.8493 52.0762 35.7551V33.4019C52.0762 33.3076 52.0387 33.2172 51.972 33.1505C51.9054 33.0838 51.815 33.0464 51.7207 33.0464C51.6264 33.0464 51.536 33.0838 51.4693 33.1505C51.4027 33.2172 51.3652 33.3076 51.3652 33.4019V35.7551C51.3642 35.802 51.3728 35.8487 51.3903 35.8922C51.4078 35.9358 51.434 35.9754 51.4672 36.0086C51.5004 36.0418 51.54 36.0679 51.5835 36.0854C51.6271 36.103 51.6737 36.1115 51.7207 36.1105Z" fill="#455A64"/>
<path d="M47.4835 31.8662H49.8367C49.931 31.8662 50.0214 31.8288 50.0881 31.7621C50.1547 31.6954 50.1922 31.605 50.1922 31.5107C50.1922 31.4165 50.1547 31.3261 50.0881 31.2594C50.0214 31.1927 49.931 31.1553 49.8367 31.1553H47.4835C47.3892 31.1553 47.2988 31.1927 47.2322 31.2594C47.1655 31.3261 47.1281 31.4165 47.1281 31.5107C47.1281 31.605 47.1655 31.6954 47.2322 31.7621C47.2988 31.8288 47.3892 31.8662 47.4835 31.8662Z" fill="#455A64"/>
<path d="M33.9117 46.9452C35.5287 46.9452 37.1094 46.4657 38.4539 45.5673C39.7984 44.669 40.8463 43.3921 41.4651 41.8981C42.0839 40.4042 42.2458 38.7603 41.9304 37.1744C41.6149 35.5885 40.8362 34.1317 39.6928 32.9883C38.5494 31.8449 37.0926 31.0662 35.5067 30.7507C33.9208 30.4353 32.2769 30.5972 30.7829 31.216C29.289 31.8348 28.0121 32.8827 27.1138 34.2272C26.2154 35.5717 25.7359 37.1524 25.7359 38.7694C25.7359 40.9378 26.5973 43.0173 28.1305 44.5506C29.6638 46.0838 31.7433 46.9452 33.9117 46.9452ZM33.9117 31.3046C35.3878 31.306 36.8303 31.745 38.057 32.5661C39.2836 33.3872 40.2393 34.5535 40.8032 35.9177C41.3671 37.2818 41.514 38.7825 41.2251 40.2301C40.9363 41.6777 40.2248 43.0071 39.1805 44.0504C38.1362 45.0936 36.8061 45.8039 35.3583 46.0913C33.9104 46.3788 32.4099 46.2306 31.0463 45.6653C29.6827 45.1001 28.5172 44.1433 27.6973 42.9159C26.8774 41.6885 26.4397 40.2455 26.4397 38.7694C26.4416 36.789 27.2297 34.8903 28.6307 33.4905C30.0318 32.0908 31.9312 31.3046 33.9117 31.3046V31.3046Z" fill="#455A64"/>
<path d="M89.0663 39.4661H122.281C122.463 39.4667 122.644 39.4858 122.822 39.523C123.175 39.5939 123.511 39.734 123.81 39.9354C124.109 40.1367 124.365 40.3952 124.563 40.6961C124.862 41.1418 125.021 41.6667 125.018 42.2032V70.8043C125.018 70.8985 125.056 70.989 125.122 71.0556C125.189 71.1223 125.28 71.1597 125.374 71.1597C125.468 71.1597 125.559 71.1223 125.625 71.0556C125.692 70.989 125.729 70.8985 125.729 70.8043V63.2754L145.28 43.7318L143.403 41.8549L125.729 59.5288V56.6353L141.946 40.4188L140.055 38.5206L125.744 52.8602V49.9453L138.633 37.0632L136.756 35.1863L125.744 46.1987V43.2768L135.291 33.7289L133.422 31.8591L125.082 40.1913C124.673 39.6088 124.087 39.1728 123.412 38.9471L131.943 30.4159L130.102 28.5248L119.864 38.7623H116.949L128.644 27.0674L126.767 25.1905L113.181 38.7623H110.266L125.296 23.7331L123.419 21.8562L106.52 38.7623H103.605L121.961 20.3775L120.092 18.5077L100.242 38.3571L100.647 38.7623H89.0663C88.972 38.7623 88.8816 38.7998 88.8149 38.8664C88.7482 38.9331 88.7108 39.0235 88.7108 39.1178C88.7108 39.212 88.7482 39.3025 88.8149 39.3691C88.8816 39.4358 88.972 39.4732 89.0663 39.4732V39.4661Z" fill="#455A64"/>
<path d="M81.3383 39.4661H83.4071C84.0148 39.467 84.6118 39.307 85.1375 39.0023C85.6632 38.6976 86.0989 38.2591 86.4002 37.7315L88.6041 33.8782C88.6483 33.7957 88.6589 33.6994 88.6337 33.6093C88.6086 33.5192 88.5496 33.4423 88.469 33.3947C88.387 33.3487 88.29 33.337 88.1994 33.3624C88.1088 33.3877 88.0319 33.4479 87.9856 33.5298L85.7888 37.3831C85.5467 37.8009 85.1995 38.148 84.7817 38.39C84.3639 38.632 83.89 38.7603 83.4071 38.7623H81.3383C81.244 38.7623 81.1536 38.7998 81.087 38.8664C81.0203 38.9331 80.9828 39.0235 80.9828 39.1178C80.9828 39.2121 81.0203 39.3025 81.087 39.3691C81.1536 39.4358 81.244 39.4732 81.3383 39.4732V39.4661Z" fill="#455A64"/>
<path d="M61.6312 45.2958C61.6312 45.6783 61.7446 46.0521 61.9571 46.3701C62.1695 46.6881 62.4716 46.936 62.8249 47.0824C63.1782 47.2287 63.5671 47.267 63.9422 47.1924C64.3173 47.1178 64.6618 46.9336 64.9323 46.6632C65.2027 46.3927 65.3869 46.0482 65.4615 45.6731C65.5361 45.298 65.4978 44.9091 65.3515 44.5558C65.2051 44.2024 64.9572 43.9004 64.6392 43.688C64.3212 43.4755 63.9474 43.3621 63.5649 43.3621C63.0521 43.3621 62.5602 43.5658 62.1975 43.9284C61.8349 44.2911 61.6312 44.7829 61.6312 45.2958V45.2958Z" fill="#455A64"/>
<path d="M71.6767 45.2958C71.6767 44.9134 71.5633 44.5395 71.3508 44.2215C71.1383 43.9035 70.8363 43.6556 70.483 43.5093C70.1296 43.3629 69.7408 43.3246 69.3657 43.3992C68.9906 43.4738 68.646 43.658 68.3756 43.9284C68.1051 44.1989 67.921 44.5434 67.8464 44.9186C67.7717 45.2937 67.81 45.6825 67.9564 46.0358C68.1028 46.3892 68.3506 46.6912 68.6686 46.9037C68.9866 47.1162 69.3605 47.2296 69.743 47.2296C70.2558 47.2296 70.7477 47.0258 71.1103 46.6632C71.473 46.3005 71.6767 45.8087 71.6767 45.2958Z" fill="#455A64"/>
<path d="M75.9281 47.2296C76.9961 47.2296 77.8619 46.3638 77.8619 45.2958C77.8619 44.2278 76.9961 43.3621 75.9281 43.3621C74.8602 43.3621 73.9944 44.2278 73.9944 45.2958C73.9944 46.3638 74.8602 47.2296 75.9281 47.2296Z" fill="#455A64"/>
<path d="M141.391 84.7458C141.391 83.1319 139.77 81.8238 137.787 81.8238H125.743V76.2074C125.743 76.1131 125.706 76.0227 125.639 75.956C125.573 75.8894 125.482 75.8519 125.388 75.8519C125.294 75.8519 125.203 75.8894 125.137 75.956C125.07 76.0227 125.033 76.1131 125.033 76.2074V90.8954C125.033 90.9896 125.07 91.0801 125.137 91.1467C125.203 91.2134 125.294 91.2508 125.388 91.2508C125.482 91.2508 125.573 91.2134 125.639 91.1467C125.706 91.0801 125.743 90.9896 125.743 90.8954V82.5276H137.787C139.386 82.5276 140.68 83.5229 140.68 84.7458V104.979C140.68 105.073 140.718 105.164 140.784 105.23C140.851 105.297 140.941 105.335 141.036 105.335C141.13 105.335 141.22 105.297 141.287 105.23C141.354 105.164 141.391 105.073 141.391 104.979V84.7458Z" fill="#455A64"/>
<path d="M141.036 109.152C140.941 109.152 140.851 109.19 140.784 109.256C140.718 109.323 140.68 109.413 140.68 109.508V112.721C140.682 112.815 140.72 112.904 140.786 112.97C140.853 113.037 140.942 113.075 141.036 113.077C141.13 113.077 141.22 113.039 141.287 112.973C141.354 112.906 141.391 112.815 141.391 112.721V109.508C141.391 109.413 141.354 109.323 141.287 109.256C141.22 109.19 141.13 109.152 141.036 109.152Z" fill="#455A64"/>
<path d="M86.5922 128.44C86.5908 128.685 86.6622 128.925 86.7972 129.129C86.9323 129.334 87.125 129.493 87.3509 129.588C87.5768 129.683 87.8258 129.708 88.0662 129.661C88.3066 129.614 88.5277 129.497 88.7014 129.324C88.8751 129.152 88.9936 128.931 89.042 128.691C89.0903 128.451 89.0662 128.202 88.9728 127.975C88.8794 127.749 88.7208 127.555 88.5172 127.419C88.3137 127.283 88.0742 127.21 87.8292 127.21C87.5024 127.21 87.1888 127.339 86.957 127.57C86.7252 127.8 86.5941 128.113 86.5922 128.44V128.44Z" fill="#455A64"/>
<path d="M90.5379 128.44C90.5365 128.685 90.6078 128.925 90.7429 129.129C90.878 129.334 91.0707 129.493 91.2966 129.588C91.5225 129.683 91.7714 129.708 92.0119 129.661C92.2523 129.614 92.4734 129.497 92.6471 129.324C92.8208 129.152 92.9393 128.931 92.9876 128.691C93.0359 128.451 93.0119 128.202 92.9185 127.975C92.825 127.749 92.6665 127.555 92.4629 127.419C92.2593 127.283 92.0199 127.21 91.7749 127.21C91.4481 127.21 91.1345 127.339 90.9027 127.57C90.6709 127.8 90.5398 128.113 90.5379 128.44V128.44Z" fill="#455A64"/>
<path d="M95.7206 129.698C96.3998 129.698 96.9505 129.148 96.9505 128.468C96.9505 127.789 96.3998 127.238 95.7206 127.238C95.0413 127.238 94.4907 127.789 94.4907 128.468C94.4907 129.148 95.0413 129.698 95.7206 129.698Z" fill="#455A64"/>
<path d="M120.248 46.0566C120.523 45.7835 120.71 45.4351 120.786 45.0555C120.862 44.6759 120.824 44.2822 120.677 43.9243C120.529 43.5664 120.278 43.2604 119.956 43.0451C119.634 42.8299 119.256 42.715 118.869 42.7151H94.2703C94.1893 42.7176 94.1115 42.7477 94.0499 42.8005L93.9077 42.6227C93.4053 42.0707 92.706 41.7383 91.9607 41.6973C91.2153 41.6563 90.4838 41.91 89.9239 42.4037C89.364 42.8973 89.0206 43.5913 88.9679 44.3359C88.9152 45.0805 89.1573 45.816 89.6421 46.3836V46.3836L87.5093 48.5164C87.4442 48.5828 87.4077 48.6722 87.4077 48.7652C87.4077 48.8583 87.4442 48.9476 87.5093 49.0141C87.5771 49.0821 87.6692 49.1205 87.7652 49.1207C87.859 49.1194 87.9484 49.081 88.0141 49.0141L90.1469 46.8812C90.6932 47.3116 91.3784 47.5269 92.0727 47.4863C92.767 47.4457 93.4224 47.152 93.9148 46.6608C93.9148 46.6608 93.9717 46.5826 94.0073 46.5471C94.0656 46.6059 94.1448 46.6391 94.2276 46.6395H118.869C119.126 46.6397 119.381 46.5882 119.618 46.4881C119.854 46.3879 120.069 46.2412 120.248 46.0566ZM91.8887 46.7675C91.6075 46.7682 91.3289 46.7133 91.069 46.6059C90.8092 46.4985 90.5731 46.3408 90.3744 46.1419C90.1734 45.9435 90.0138 45.7071 89.9049 45.4466C89.796 45.186 89.7399 44.9064 89.7399 44.624C89.7399 44.3416 89.796 44.062 89.9049 43.8015C90.0138 43.5409 90.1734 43.3046 90.3744 43.1062C90.5726 42.9063 90.8085 42.7476 91.0684 42.6393C91.3283 42.531 91.6071 42.4753 91.8887 42.4753C92.1702 42.4753 92.449 42.531 92.7089 42.6393C92.9688 42.7476 93.2047 42.9063 93.403 43.1062C93.604 43.3046 93.7635 43.5409 93.8724 43.8015C93.9814 44.062 94.0374 44.3416 94.0374 44.624C94.0374 44.9064 93.9814 45.186 93.8724 45.4466C93.7635 45.7071 93.604 45.9435 93.403 46.1419C93.2054 46.3434 92.9699 46.5037 92.7099 46.6135C92.45 46.7234 92.1709 46.7805 91.8887 46.7817V46.7675ZM94.4552 43.4048H118.869C119.115 43.4074 119.354 43.4825 119.558 43.6206C119.761 43.7587 119.92 43.9537 120.013 44.1813C120.106 44.4088 120.131 44.6589 120.083 44.9001C120.035 45.1413 119.916 45.363 119.743 45.5376C119.629 45.6537 119.493 45.7457 119.343 45.808C119.193 45.8703 119.031 45.9017 118.869 45.9001H94.4196C94.6126 45.5161 94.7161 45.0934 94.7223 44.6636C94.7284 44.2339 94.6371 43.8083 94.4552 43.419V43.4048Z" fill="#008CC8"/>
<path d="M106.072 65.0954H77.4709V69.2686H106.072V65.0954Z" fill="#F87302"/>
<path d="M118.016 82.9755H101.422C101.146 82.3544 100.823 81.7555 100.455 81.184H108.162V71.0531H75.3594V81.184H76.5182C76.1508 81.7569 75.8253 82.3557 75.5442 82.9755H65.5555V86.5302H74.4991C74.4284 86.9254 74.3786 87.3241 74.3498 87.7246H65.5555V91.2793H74.5276C74.5933 91.6819 74.6812 92.0806 74.7906 92.4737H65.5484V96.0283H76.2907C76.5314 96.4385 76.7948 96.8349 77.0798 97.2156H65.5555V100.77H80.9473C81.6878 101.245 82.4737 101.645 83.2934 101.965H65.52V105.519H104.742L105.93 106.707H65.5555V110.261H118.016V106.707H106.968L105.78 105.519H118.016V101.965H102.204L101.01 100.77H118.016V97.2156H99.9151C100.2 96.8317 100.463 96.4336 100.704 96.0283H118.016V92.4737H102.204C102.311 92.0826 102.403 91.6845 102.475 91.2793H118.016V87.7246H102.645C102.645 87.3265 102.567 86.9283 102.503 86.5302H118.016V82.9755ZM101.223 102.043H93.7016C94.5229 101.722 95.311 101.322 96.0548 100.848H100.008L101.223 102.043ZM101.934 87.7388C102.034 88.9266 101.972 90.1225 101.749 91.2935C101.679 91.6964 101.586 92.0951 101.472 92.4879C101.116 93.7435 100.579 94.9408 99.8796 96.0425C99.6166 96.4478 99.3322 96.8459 99.0265 97.2298C98.7182 97.6155 98.3883 97.9834 98.0383 98.3318C97.0437 99.3281 95.8995 100.163 94.6471 100.806C93.584 101.357 92.4501 101.759 91.2773 102C89.4483 102.379 87.5609 102.379 85.7319 102C84.5617 101.758 83.4303 101.356 82.3692 100.806C81.1143 100.164 79.9676 99.3287 78.9709 98.3318C78.6209 97.9834 78.291 97.6155 77.9827 97.2298C77.677 96.8459 77.3926 96.4478 77.1296 96.0425C76.4298 94.9408 75.8934 93.7435 75.5371 92.4879C75.4229 92.0951 75.3304 91.6964 75.2598 91.2935C75.037 90.1225 74.9748 88.9266 75.075 87.7388C75.1037 87.3383 75.1536 86.9397 75.2243 86.5444C75.4315 85.3103 75.8171 84.1129 76.3689 82.9897C76.6651 82.3651 77.0123 81.7659 77.4069 81.1982C77.868 80.5247 78.3916 79.8963 78.9709 79.3213C81.5027 76.799 84.9308 75.3827 88.5046 75.3827C92.0784 75.3827 95.5065 76.799 98.0383 79.3213C98.6176 79.8963 99.1412 80.5247 99.6023 81.1982C99.9969 81.7659 100.344 82.3651 100.64 82.9897C101.192 84.1129 101.578 85.3103 101.785 86.5444C101.853 86.9398 101.901 87.3385 101.927 87.7388H101.934Z" fill="#F87302"/>
<path d="M117.994 111.577H65.5555V115.153H117.994V111.577Z" fill="#F87302"/>
<path d="M99.2824 86.5444C98.86 84.5248 97.874 82.6662 96.4387 81.1839L96.3036 81.0418C94.2349 78.9766 91.4313 77.8167 88.5082 77.8167C85.5851 77.8167 82.7814 78.9766 80.7127 81.0418L80.5776 81.1839C79.1423 82.6662 78.1564 84.5248 77.7339 86.5444C77.6475 86.9383 77.5858 87.3372 77.5491 87.7388C77.4254 88.9277 77.4999 90.1289 77.7694 91.2935C77.8605 91.6985 77.9769 92.0974 78.1178 92.4879C78.5894 93.8009 79.314 95.0086 80.2506 96.0425C80.407 96.2274 80.5776 96.4122 80.7554 96.59C80.9331 96.7677 81.2104 97.0308 81.4663 97.2298C83.4547 98.9088 85.9732 99.8299 88.5757 99.8299C91.1782 99.8299 93.6967 98.9088 95.6851 97.2298C95.9268 97.0236 96.1543 96.8175 96.396 96.59C96.6377 96.3625 96.7444 96.2274 96.9008 96.0425C97.8374 95.0086 98.562 93.8009 99.0336 92.4879C99.1745 92.0974 99.2908 91.6985 99.3819 91.2935C99.6446 90.1279 99.719 88.9279 99.6023 87.7388C99.5212 87.3343 99.4143 86.9353 99.2824 86.5444ZM79.9094 86.5444C80.1747 85.2323 80.7692 84.0091 81.6369 82.9897C81.7862 82.812 81.9426 82.6414 82.1133 82.4707C82.6039 81.9749 83.1586 81.5469 83.7626 81.1982C85.0002 80.4732 86.4092 80.0927 87.8434 80.0962C87.9377 80.0962 88.0281 80.1337 88.0948 80.2003C88.1614 80.267 88.1989 80.3574 88.1989 80.4517C88.1989 80.546 88.1614 80.6364 88.0948 80.703C88.0281 80.7697 87.9377 80.8072 87.8434 80.8072C87.0305 80.8052 86.223 80.9397 85.4547 81.2053C84.3835 81.5693 83.4105 82.1751 82.6109 82.9755V82.9755C81.639 83.9538 80.9616 85.1855 80.6558 86.5302C80.5633 86.9224 80.5062 87.3221 80.4852 87.7246C80.4852 87.8739 80.4852 88.0232 80.4852 88.1725C80.4852 88.2188 80.476 88.2647 80.458 88.3074C80.4401 88.3502 80.4138 88.3889 80.3807 88.4213C80.3476 88.4538 80.3083 88.4793 80.2653 88.4964C80.2222 88.5135 80.1761 88.5218 80.1298 88.5208C80.0367 88.5208 79.9473 88.4844 79.8809 88.4192C79.8144 88.3541 79.7761 88.2655 79.7743 88.1725C79.7743 88.0232 79.7743 87.8739 79.7743 87.7246C79.7877 87.3282 79.8329 86.9336 79.9094 86.5444Z" fill="#008CC8"/>
<path d="M161.738 141.948H143.666C144.88 141.532 145.932 140.746 146.675 139.7C147.417 138.654 147.812 137.401 147.804 136.118H139.649C140.145 135.91 140.572 135.566 140.88 135.126C141.189 134.686 141.366 134.167 141.391 133.63V117.221C141.391 117.127 141.354 117.037 141.287 116.97C141.22 116.903 141.13 116.866 141.036 116.866C140.942 116.868 140.853 116.906 140.786 116.972C140.72 117.038 140.682 117.128 140.68 117.221V133.616C140.68 134.846 139.386 135.841 137.787 135.841H46.7868C45.1872 135.841 43.8933 134.846 43.8933 133.616V84.7529C43.8933 83.5229 45.1872 82.5276 46.7868 82.5276H57.0243V108.832C57.0262 108.925 57.0644 109.014 57.1309 109.079C57.1974 109.144 57.2867 109.181 57.3798 109.181C57.4261 109.182 57.4722 109.173 57.5153 109.156C57.5584 109.139 57.5976 109.114 57.6307 109.081C57.6638 109.049 57.6901 109.01 57.7081 108.967C57.726 108.925 57.7352 108.879 57.7352 108.832V42.2033C57.7371 41.4779 58.0261 40.7828 58.539 40.2699C59.0519 39.757 59.747 39.468 60.4723 39.4661H75.5656C76.2059 39.4701 76.8344 39.2935 77.3789 38.9564C77.9234 38.6194 78.3618 38.1357 78.6439 37.5608L79.3548 36.1816C79.3767 36.1402 79.39 36.0949 79.3939 36.0483C79.3979 36.0016 79.3924 35.9547 79.3778 35.9102C79.3632 35.8658 79.3398 35.8247 79.309 35.7895C79.2782 35.7543 79.2406 35.7257 79.1984 35.7053C79.1142 35.665 79.0176 35.6588 78.9289 35.6879C78.8402 35.717 78.7661 35.7793 78.7221 35.8617L78.0112 37.2836C77.7862 37.7396 77.4377 38.1234 77.0053 38.3911C76.5729 38.6588 76.0741 38.7998 75.5656 38.7979H60.4723C59.5591 38.7979 58.6832 39.1602 58.0367 39.8053C57.3903 40.4504 57.0262 41.3256 57.0243 42.2388V47.8054C50.8357 49.8547 45.184 53.2629 40.4836 57.78C35.7832 62.2971 32.1531 67.8088 29.8594 73.9111C29.7101 73.9111 29.5608 73.9111 29.4115 73.9111C28.4903 73.9073 27.5958 74.2208 26.8786 74.7989C26.1614 75.3771 25.6651 76.1845 25.4732 77.0855C25.2813 77.9866 25.4055 78.9262 25.825 79.7464C26.2444 80.5666 26.9335 81.2173 27.7763 81.5892C27.3335 84.1031 27.1099 86.6507 27.1081 89.2033C27.1018 95.6793 28.5416 102.075 31.3226 107.924C34.1036 113.772 38.1554 118.926 43.1823 123.008V133.672C43.2078 134.209 43.3849 134.728 43.6932 135.169C44.0015 135.609 44.4283 135.953 44.9241 136.161H34.1961C34.1944 137.442 34.5919 138.692 35.3335 139.737C36.075 140.782 37.1237 141.569 38.3338 141.99H33.4141C33.3198 141.99 33.2294 142.028 33.1627 142.095C33.096 142.161 33.0586 142.252 33.0586 142.346C33.0586 142.44 33.096 142.531 33.1627 142.597C33.2294 142.664 33.3198 142.701 33.4141 142.701H161.738C161.833 142.701 161.923 142.664 161.99 142.597C162.056 142.531 162.094 142.44 162.094 142.346C162.1 142.296 162.095 142.245 162.08 142.197C162.065 142.149 162.04 142.104 162.006 142.066C161.972 142.029 161.931 141.999 161.885 141.978C161.839 141.958 161.789 141.947 161.738 141.948V141.948ZM26.0914 77.8994C26.0914 77.0227 26.4397 76.1818 27.0597 75.5618C27.6796 74.9419 28.5205 74.5936 29.3973 74.5936H29.5963C28.8723 76.6184 28.3042 78.6957 27.8972 80.8072C27.359 80.5341 26.9061 80.1185 26.5877 79.6058C26.2693 79.0931 26.0976 78.5029 26.0914 77.8994V77.8994ZM87.6373 136.545H94.3627C94.1839 137.302 93.7546 137.977 93.1442 138.46C92.5339 138.943 91.7783 139.206 91 139.206C90.2217 139.206 89.4661 138.943 88.8558 138.46C88.2454 137.977 87.8161 137.302 87.6373 136.545V136.545Z" fill="#455A64"/>
<path d="M27.9825 141.948H20.2617C20.1674 141.948 20.077 141.985 20.0104 142.052C19.9437 142.119 19.9062 142.209 19.9062 142.303C19.9062 142.398 19.9437 142.488 20.0104 142.555C20.077 142.621 20.1674 142.659 20.2617 142.659H27.9825C28.0768 142.659 28.1672 142.621 28.2339 142.555C28.3005 142.488 28.338 142.398 28.338 142.303C28.338 142.209 28.3005 142.119 28.2339 142.052C28.1672 141.985 28.0768 141.948 27.9825 141.948Z" fill="#455A64"/>
<circle cx="88.475" cy="88.825" r="13.85" stroke="#008CC8" stroke-width="0.75"/>
<line x1="98.7071" y1="99" x2="107" y2="107.293" stroke="#008CC8" stroke-linecap="round" stroke-linejoin="round"/>
</svg>
