<?xml version="1.0" encoding="UTF-8" standalone="no"?>
<svg
   width="20"
   height="18"
   viewBox="0 0 20 18"
   fill="none"
   version="1.1"
   id="svg1936"
   sodipodi:docname="extract.svg"
   inkscape:version="1.1 (c68e22c387, 2021-05-23)"
   xmlns:inkscape="http://www.inkscape.org/namespaces/inkscape"
   xmlns:sodipodi="http://sodipodi.sourceforge.net/DTD/sodipodi-0.dtd"
   xmlns="http://www.w3.org/2000/svg"
   xmlns:svg="http://www.w3.org/2000/svg">
  <defs
     id="defs1940" />
  <sodipodi:namedview
     id="namedview1938"
     pagecolor="#ffffff"
     bordercolor="#666666"
     borderopacity="1.0"
     inkscape:pageshadow="2"
     inkscape:pageopacity="0.0"
     inkscape:pagecheckerboard="0"
     showgrid="false"
     showguides="true"
     inkscape:guide-bbox="true"
     inkscape:zoom="22.627417"
     inkscape:cx="9.2144852"
     inkscape:cy="2.0992233"
     inkscape:window-width="1920"
     inkscape:window-height="1001"
     inkscape:window-x="-9"
     inkscape:window-y="-9"
     inkscape:window-maximized="1"
     inkscape:current-layer="svg1936">
    <sodipodi:guide
       position="18.9375,10.109375"
       orientation="1,0"
       id="guide7150" />
    <sodipodi:guide
       position="10.398437,16.328125"
       orientation="0,-1"
       id="guide10544" />
    <sodipodi:guide
       position="10.75,18"
       orientation="0,-1"
       id="guide10546" />
  </sodipodi:namedview>
  <path
     id="path1934"
     style="fill:#ffffff;fill-opacity:1;fill-rule:evenodd;stroke:none;stroke-opacity:1"
     d="M 10.15625,0.00195313 C 7.53334,-0.00447354 5.3548519,0.00805809 5.2011719,0.03125 5.0474919,0.0543488 4.8826944,0.11284025 4.8339844,0.16015625 c -0.04872,0.047315 -0.1492594,0.0859375 -0.2246094,0.0859375 -0.39146,0 -1.4030562,0.63548512 -2.0664062,1.29882815 -0.6633401,0.66335 -1.2988282,1.6749362 -1.2988282,2.0664062 0,0.07535 -0.053107,0.1898263 -0.1171875,0.2539063 -0.16951897,0.16951 -0.16951898,10.1039376 0,10.2734376 0.06408,0.0641 0.1171875,0.176553 0.1171875,0.251953 0,0.3914 0.6354881,1.403106 1.2988282,2.066406 0.6633499,0.6634 1.6749462,1.298828 2.0664062,1.298828 0.07535,0 0.1878731,0.05319 0.2519531,0.117188 0.16951,0.1695 10.1039379,0.1695 10.2734379,0 0.0641,-0.0641 0.178506,-0.117188 0.253906,-0.117188 0.3914,0 1.403106,-0.635428 2.066406,-1.298828 0.6634,-0.6633 1.298828,-1.675006 1.298828,-2.066406 0,-0.03561 0,0 0.183594,-0.353515 v -1.922165 c -0.0055,-0.635647 -1.625647,-0.573986 -1.678685,-0.0299 -0.06756,1.46384 0.116116,-1.997894 -0.07913,1.67473 -0.166326,0.681438 -0.428285,1.027796 -0.958985,1.529296 -0.5722,0.541 -0.758678,0.654932 -1.455078,0.894532 -0.4727,0.1626 -0.837018,0.175781 -4.7675781,0.175781 -3.93536,0 -4.2921125,-0.01268 -4.7578125,-0.175781 -0.277,-0.0969 -0.6272938,-0.242566 -0.7773438,-0.322266 -0.4956,-0.2634 -1.1639862,-1.003959 -1.4726562,-1.630859 L 2.6875,13.615234 V 9.0039062 4.390625 L 2.9824219,3.78125 C 3.1448619,3.44632 3.4752769,2.975885 3.7167969,2.734375 4.1154369,2.335735 5.0088088,1.8140481 5.4804688,1.7050781 5.5829287,1.6814181 10.539097,1.664055 12.998047,1.671875 13.78644,1.650353 13.992585,0.02350142 12.906252,0 Z"
     sodipodi:nodetypes="cccscsccscscsscsccccccscccccccccccc" />
  <path
     fill-rule="evenodd"
     clip-rule="evenodd"
     d="m 17.284167,6.617107 c 0,-0.49706 -0.631472,-0.9000001 -1.410425,-0.9000001 H 7.7247254 c -0.7789534,0 -1.4103937,0.4029401 -1.4103937,0.9000001 0,0.49706 0.6314403,0.9 1.4103937,0.9 h 8.1490166 c 0.778953,0 1.410425,-0.40294 1.410425,-0.9 z"
     fill="white"
     id="path622"
     style="fill:#ffffff;fill-opacity:1;stroke-width:1.25185"
     sodipodi:nodetypes="sssssss" />
  <path
     fill-rule="evenodd"
     clip-rule="evenodd"
     d="m 7.1985717,5.7258776 c -0.49706,0 -0.9000001,0.4309341 -0.9000001,0.962514 v 5.5611194 c 0,0.53158 0.4029401,0.962493 0.9000001,0.962493 0.49706,0 0.9,-0.430913 0.9,-0.962493 V 6.6883916 c 0,-0.5315799 -0.40294,-0.962514 -0.9,-0.962514 z"
     fill="white"
     id="path622-2"
     style="fill:#ffffff;fill-opacity:1;stroke-width:1.03414"
     sodipodi:nodetypes="sssssss" />
  <path
     d="m 14.82578,4.1617826 3.11111,2.4545501 -3.11111,2.45454"
     stroke="white"
     stroke-width="2"
     stroke-linecap="round"
     stroke-linejoin="round"
     id="path624"
     style="fill:#ffffff;fill-opacity:1;stroke:#ffffff;stroke-opacity:1" />
</svg>
