<svg width="182" height="144" viewBox="0 0 182 144" fill="none" xmlns="http://www.w3.org/2000/svg">
<path d="M140.366 106.99H140.408V109.27C140.408 109.368 140.447 109.463 140.517 109.532C140.586 109.602 140.681 109.641 140.779 109.641C140.878 109.641 140.973 109.602 141.043 109.533C141.114 109.463 141.155 109.369 141.156 109.27V106.99H159.162L162.454 103.705H140.366V106.99Z" fill="#455A64" id="grey-to-dark"/>
<path d="M137.672 74.6704L135.428 76.9077H139.91L137.672 74.6704Z" fill="#455A64" id="grey-to-dark"/>
<path d="M117.522 25.9985L110.896 19.3721L104.262 25.9985L110.896 32.632L117.522 25.9985ZM110.896 20.4266L116.475 25.9985L110.896 31.5775L105.317 25.9985L110.896 20.4266Z" fill="#455A64" id="grey-to-dark"/>
<path d="M24.8597 100.706C24.9581 100.706 25.0527 100.667 25.1233 100.599L28.5006 97.2215C28.5364 97.1875 28.5649 97.1467 28.5844 97.1013C28.6039 97.056 28.6139 97.0072 28.6139 96.9579C28.6139 96.9085 28.6039 96.8597 28.5844 96.8144C28.5649 96.7691 28.5364 96.7282 28.5006 96.6942C28.4301 96.6255 28.3355 96.587 28.237 96.587C28.1385 96.587 28.0439 96.6255 27.9734 96.6942L24.5961 100.072C24.5436 100.123 24.5077 100.19 24.4932 100.262C24.4786 100.334 24.4859 100.409 24.5143 100.477C24.5426 100.546 24.5906 100.604 24.6521 100.644C24.7137 100.685 24.7859 100.706 24.8597 100.706Z" fill="#455A64" id="grey-to-dark"/>
<path d="M34.9988 100.706C35.0972 100.706 35.1918 100.667 35.2624 100.599L38.6397 97.2215C38.6755 97.1875 38.704 97.1466 38.7235 97.1013C38.743 97.056 38.753 97.0072 38.753 96.9579C38.753 96.9085 38.743 96.8597 38.7235 96.8144C38.704 96.7691 38.6755 96.7282 38.6397 96.6942C38.5704 96.6259 38.477 96.5876 38.3797 96.5876C38.2823 96.5876 38.1889 96.6259 38.1196 96.6942L34.7352 100.072C34.6827 100.123 34.6468 100.19 34.6323 100.262C34.6177 100.334 34.625 100.409 34.6534 100.477C34.6817 100.546 34.7297 100.604 34.7912 100.644C34.8528 100.685 34.925 100.706 34.9988 100.706Z" fill="#455A64" id="grey-to-dark"/>
<path d="M48.786 96.6942C48.7154 96.6255 48.6208 96.587 48.5223 96.587C48.4238 96.587 48.3292 96.6255 48.2587 96.6942L44.8885 100.072C44.8197 100.142 44.7812 100.237 44.7812 100.335C44.7812 100.434 44.8197 100.528 44.8885 100.599C44.9599 100.666 45.054 100.704 45.1521 100.706C45.201 100.707 45.2495 100.698 45.2948 100.679C45.3401 100.661 45.3813 100.633 45.4158 100.599L48.8002 97.2215C48.8671 97.1491 48.9031 97.0535 48.9004 96.955C48.8977 96.8565 48.8567 96.7629 48.786 96.6942Z" fill="#455A64" id="grey-to-dark"/>
<path d="M24.5961 114.942C24.6666 115.011 24.7612 115.049 24.8597 115.049C24.9582 115.049 25.0528 115.011 25.1233 114.942L28.5007 111.557C28.5365 111.523 28.565 111.482 28.5844 111.437C28.6039 111.392 28.614 111.343 28.614 111.294C28.614 111.244 28.6039 111.196 28.5844 111.15C28.565 111.105 28.5365 111.064 28.5007 111.03C28.4301 110.961 28.3355 110.923 28.237 110.923C28.1385 110.923 28.0439 110.961 27.9734 111.03L24.5961 114.414C24.5273 114.485 24.4888 114.58 24.4888 114.678C24.4888 114.777 24.5273 114.871 24.5961 114.942Z" fill="#455A64" id="grey-to-dark"/>
<path d="M34.7352 114.942C34.8057 115.011 34.9003 115.049 34.9988 115.049C35.0973 115.049 35.1919 115.011 35.2624 114.942L38.6397 111.557C38.6755 111.523 38.704 111.482 38.7235 111.437C38.743 111.392 38.753 111.343 38.753 111.294C38.753 111.244 38.743 111.196 38.7235 111.15C38.704 111.105 38.6755 111.064 38.6397 111.03C38.5704 110.962 38.477 110.923 38.3797 110.923C38.2823 110.923 38.1889 110.962 38.1196 111.03L34.7352 114.414C34.6664 114.485 34.6279 114.58 34.6279 114.678C34.6279 114.777 34.6664 114.871 34.7352 114.942Z" fill="#455A64" id="grey-to-dark"/>
<path d="M48.2587 111.03L44.8885 114.415C44.8197 114.485 44.7812 114.58 44.7812 114.678C44.7812 114.777 44.8197 114.871 44.8885 114.942C44.9599 115.009 45.054 115.047 45.1521 115.049C45.201 115.049 45.2495 115.04 45.2948 115.022C45.3401 115.004 45.3813 114.976 45.4158 114.942L48.8002 111.557C48.8701 111.487 48.9094 111.393 48.9094 111.294C48.9094 111.195 48.8701 111.1 48.8002 111.03C48.7303 110.96 48.6355 110.921 48.5366 110.921C48.4377 110.921 48.3429 110.96 48.273 111.03H48.2587Z" fill="#455A64" id="grey-to-dark"/>
<path d="M89.0645 36.3727H122.132C122.849 36.3727 123.535 36.6572 124.042 37.1636C124.548 37.67 124.833 38.3569 124.833 39.0731V50.2881C123.821 50.2881 123.329 51.193 122.902 51.9696C122.474 52.7463 122.147 53.2664 121.577 53.2664C121.007 53.2664 120.707 52.7748 120.258 51.9696C119.809 51.1645 119.332 50.2881 118.285 50.2881C118.23 50.2723 118.172 50.2696 118.115 50.2801C118.059 50.2906 118.006 50.314 117.96 50.3486C117.914 50.3831 117.877 50.4278 117.851 50.4791C117.826 50.5304 117.812 50.587 117.812 50.6443C117.812 50.7017 117.826 50.7583 117.851 50.8096C117.877 50.8609 117.914 50.9056 117.96 50.9401C118.006 50.9747 118.059 50.9981 118.115 51.0086C118.172 51.0191 118.23 51.0163 118.285 51.0006C118.848 51.0006 119.161 51.4922 119.61 52.2974C120.059 53.1025 120.536 53.9789 121.577 53.9789C122.617 53.9789 123.116 53.0883 123.55 52.2974C123.985 51.5065 124.298 51.0291 124.833 51.0077V67.5025C124.859 67.5762 124.907 67.6401 124.971 67.6853C125.035 67.7306 125.111 67.7548 125.189 67.7548C125.267 67.7548 125.343 67.7306 125.407 67.6853C125.471 67.6401 125.519 67.5762 125.545 67.5025V51.4139C125.782 51.7072 125.988 52.0249 126.158 52.3615C126.593 53.1524 127.091 54.043 128.132 54.043C129.172 54.043 129.671 53.1524 130.105 52.3615C130.54 51.5706 130.861 51.0647 131.424 51.0647C131.986 51.0647 132.3 51.5564 132.749 52.3615C133.198 53.1666 133.682 54.043 134.722 54.043C135.763 54.043 136.261 53.1524 136.696 52.3615C137.131 51.5706 137.459 51.0647 138.021 51.0647C138.584 51.0647 138.898 51.5564 139.347 52.3615C139.796 53.1666 140.273 54.043 141.32 54.043C141.375 54.0588 141.434 54.0615 141.49 54.051C141.546 54.0405 141.599 54.0171 141.645 53.9826C141.691 53.948 141.728 53.9033 141.754 53.852C141.779 53.8007 141.793 53.7441 141.793 53.6868C141.793 53.6294 141.779 53.5729 141.754 53.5215C141.728 53.4702 141.691 53.4255 141.645 53.391C141.599 53.3565 141.546 53.333 141.49 53.3225C141.434 53.312 141.375 53.3148 141.32 53.3305C140.757 53.3305 140.444 52.8389 139.995 52.0337C139.546 51.2286 139.069 50.3522 138.021 50.3522C136.974 50.3522 136.482 51.2429 136.048 52.0337C135.613 52.8246 135.285 53.3305 134.722 53.3305C134.16 53.3305 133.846 52.8389 133.397 52.0337C132.948 51.2286 132.471 50.3522 131.424 50.3522C130.376 50.3522 129.892 51.2429 129.45 52.0337C129.008 52.8246 128.695 53.3305 128.132 53.3305C127.569 53.3305 127.255 52.8389 126.814 52.0337C126.547 51.4153 126.107 50.8879 125.545 50.5161V39.1158C125.545 38.2012 125.182 37.3241 124.535 36.6773C123.888 36.0306 123.011 35.6673 122.097 35.6673H89.0645C88.9907 35.6932 88.9268 35.7414 88.8816 35.8052C88.8364 35.869 88.8121 35.9453 88.8121 36.0235C88.8121 36.1017 88.8364 36.178 88.8816 36.2418C88.9268 36.3056 88.9907 36.3538 89.0645 36.3798V36.3727Z" fill="#455A64" id="grey-to-dark"/>
<path d="M81.3836 36.3727H83.4427C84.0502 36.3708 84.6465 36.2092 85.1718 35.9041C85.6971 35.5989 86.1328 35.1609 86.4353 34.6341L88.6227 30.8008C88.649 30.7586 88.6665 30.7116 88.6743 30.6625C88.682 30.6134 88.6798 30.5633 88.6677 30.515C88.6557 30.4668 88.6341 30.4215 88.6041 30.3819C88.5742 30.3422 88.5366 30.3089 88.4936 30.284C88.4506 30.2592 88.403 30.2432 88.3537 30.2371C88.3044 30.231 88.2543 30.2349 88.2065 30.2486C88.1587 30.2622 88.1142 30.2853 88.0755 30.3166C88.0369 30.3478 88.0049 30.3865 87.9815 30.4303L85.7869 34.2636C85.5502 34.6765 85.2089 35.0196 84.7974 35.2585C84.3858 35.4975 83.9186 35.6237 83.4427 35.6245H81.3836C81.3266 35.6045 81.2657 35.5984 81.2059 35.6068C81.1462 35.6152 81.0893 35.6377 81.04 35.6726C80.9908 35.7075 80.9506 35.7537 80.9229 35.8073C80.8951 35.8609 80.8807 35.9204 80.8807 35.9808C80.8807 36.0411 80.8951 36.1006 80.9229 36.1542C80.9506 36.2078 80.9908 36.254 81.04 36.2889C81.0893 36.3238 81.1462 36.3464 81.2059 36.3548C81.2657 36.3631 81.3266 36.3571 81.3836 36.337V36.3727Z" fill="#455A64" id="grey-to-dark"/>
<path d="M63.6918 44.075C64.7543 44.075 65.6156 43.2137 65.6156 42.1512C65.6156 41.0887 64.7543 40.2274 63.6918 40.2274C62.6293 40.2274 61.768 41.0887 61.768 42.1512C61.768 43.2137 62.6293 44.075 63.6918 44.075Z" fill="#455A64" id="grey-to-dark"/>
<path d="M69.8265 44.075C70.207 44.075 70.579 43.9621 70.8953 43.7507C71.2117 43.5394 71.4583 43.2389 71.6039 42.8874C71.7495 42.5359 71.7876 42.149 71.7134 41.7759C71.6391 41.4027 71.4559 41.0599 71.1869 40.7909C70.9178 40.5218 70.575 40.3386 70.2019 40.2644C69.8287 40.1901 69.4419 40.2282 69.0903 40.3738C68.7388 40.5194 68.4384 40.766 68.227 41.0824C68.0156 41.3987 67.9028 41.7707 67.9028 42.1512C67.9018 42.4041 67.9509 42.6547 68.0473 42.8885C68.1436 43.1223 68.2853 43.3348 68.4641 43.5136C68.6429 43.6924 68.8554 43.8341 69.0892 43.9304C69.3231 44.0268 69.5736 44.0759 69.8265 44.075Z" fill="#455A64" id="grey-to-dark"/>
<path d="M77.9207 42.1512C77.9207 41.7707 77.8079 41.3987 77.5965 41.0824C77.3851 40.766 77.0846 40.5194 76.7331 40.3738C76.3816 40.2282 75.9948 40.1901 75.6216 40.2644C75.2484 40.3386 74.9056 40.5218 74.6366 40.7909C74.3675 41.0599 74.1843 41.4027 74.1101 41.7759C74.0359 42.149 74.074 42.5359 74.2196 42.8874C74.3652 43.2389 74.6117 43.5394 74.9281 43.7507C75.2445 43.9621 75.6164 44.075 75.9969 44.075C76.5071 44.075 76.9965 43.8723 77.3572 43.5115C77.718 43.1507 77.9207 42.6614 77.9207 42.1512Z" fill="#455A64" id="grey-to-dark"/>
<path d="M137.516 78.4894H125.588V72.9247C125.562 72.8509 125.514 72.787 125.45 72.7418C125.386 72.6966 125.31 72.6723 125.232 72.6723C125.154 72.6723 125.077 72.6966 125.013 72.7418C124.95 72.787 124.901 72.8509 124.875 72.9247V87.5384C124.901 87.6122 124.95 87.6761 125.013 87.7213C125.077 87.7665 125.154 87.7908 125.232 87.7908C125.31 87.7908 125.386 87.7665 125.45 87.7213C125.514 87.6761 125.562 87.6122 125.588 87.5384V79.2019H137.516C138.983 79.2019 140.187 80.0427 140.366 81.1257C140.373 81.2135 140.373 81.3016 140.366 81.3894V88.6357V91.9204H140.408V96.1527H140.366V99.4303H140.408V101.568C140.408 101.617 140.418 101.666 140.437 101.711C140.456 101.757 140.484 101.798 140.519 101.832C140.555 101.867 140.596 101.894 140.642 101.912C140.688 101.93 140.737 101.939 140.786 101.938C140.834 101.938 140.882 101.929 140.927 101.91C140.971 101.891 141.012 101.864 141.045 101.829C141.079 101.795 141.106 101.754 141.124 101.709C141.142 101.664 141.15 101.616 141.149 101.568V99.4303H162.454L159.162 96.1527H141.149V91.9204H154.937L151.652 88.6357H141.149V84.4033H147.427L144.135 81.1257H141.135C140.971 79.6437 139.425 78.4894 137.516 78.4894Z" fill="#455A64" id="grey-to-dark"/>
<path d="M108.937 48.0508C108.901 48.0847 108.872 48.1256 108.853 48.1709C108.833 48.2163 108.823 48.2651 108.823 48.3144C108.823 48.3638 108.833 48.4126 108.853 48.4579C108.872 48.5032 108.901 48.5441 108.937 48.578C109.004 48.6463 109.097 48.6847 109.193 48.6849C109.242 48.6858 109.29 48.6767 109.336 48.6584C109.381 48.64 109.422 48.6127 109.457 48.578L112.271 45.728C113.012 46.3369 113.958 46.6375 114.914 46.5676C115.871 46.4977 116.763 46.0626 117.407 45.3524C118.052 44.6423 118.398 43.7116 118.375 42.7531C118.351 41.7946 117.96 40.8818 117.282 40.2039C116.604 39.5259 115.691 39.1348 114.733 39.1115C113.774 39.0881 112.844 39.4344 112.134 40.0786C111.424 40.7228 110.988 41.6155 110.919 42.5717C110.849 43.5279 111.149 44.4744 111.758 45.215L108.937 48.0508ZM112.535 40.7261C113.023 40.2337 113.667 39.9255 114.356 39.8542C115.046 39.7829 115.739 39.9527 116.318 40.3349C116.897 40.717 117.325 41.2878 117.53 41.9502C117.736 42.6126 117.705 43.3256 117.444 43.968C117.183 44.6104 116.707 45.1424 116.098 45.4735C115.488 45.8047 114.783 45.9145 114.102 45.7843C113.421 45.6542 112.806 45.292 112.362 44.7595C111.917 44.2271 111.671 43.5571 111.665 42.8637C111.661 42.4675 111.735 42.0743 111.885 41.7073C112.034 41.3403 112.255 41.0067 112.535 40.7261Z" fill="#008CC8"/>
<path d="M86.6134 124.91C86.6134 125.152 86.6853 125.389 86.8199 125.591C86.9546 125.792 87.146 125.949 87.3699 126.042C87.5939 126.135 87.8403 126.159 88.078 126.112C88.3157 126.065 88.5341 125.948 88.7055 125.776C88.8769 125.605 88.9936 125.387 89.0409 125.149C89.0882 124.911 89.0639 124.665 88.9712 124.441C88.8784 124.217 88.7213 124.026 88.5198 123.891C88.3183 123.756 88.0813 123.684 87.8389 123.684C87.5139 123.684 87.2022 123.813 86.9724 124.043C86.7425 124.273 86.6134 124.585 86.6134 124.91Z" fill="#455A64" id="grey-to-dark"/>
<path d="M90.5322 124.91C90.5308 125.154 90.6019 125.393 90.7365 125.597C90.8711 125.8 91.0631 125.959 91.2882 126.054C91.5133 126.148 91.7614 126.174 92.001 126.127C92.2406 126.08 92.4609 125.963 92.634 125.791C92.8071 125.619 92.9252 125.399 92.9733 125.16C93.0215 124.921 92.9975 124.673 92.9044 124.447C92.8113 124.221 92.6533 124.028 92.4505 123.893C92.2476 123.757 92.009 123.684 91.7649 123.684C91.4392 123.684 91.1268 123.813 90.8958 124.043C90.6648 124.272 90.5341 124.584 90.5322 124.91Z" fill="#455A64" id="grey-to-dark"/>
<path d="M94.4582 124.91C94.4568 125.154 94.5279 125.393 94.6625 125.597C94.7971 125.8 94.9891 125.959 95.2142 126.054C95.4393 126.148 95.6874 126.174 95.9269 126.127C96.1665 126.08 96.3868 125.963 96.5599 125.791C96.733 125.619 96.8511 125.399 96.8993 125.16C96.9474 124.921 96.9234 124.673 96.8303 124.447C96.7373 124.221 96.5793 124.028 96.3764 123.893C96.1736 123.757 95.935 123.684 95.6909 123.684C95.5293 123.683 95.3692 123.714 95.2197 123.776C95.0702 123.837 94.9342 123.927 94.8197 124.041C94.7051 124.155 94.6142 124.29 94.5522 124.439C94.4901 124.588 94.4582 124.748 94.4582 124.91Z" fill="#455A64" id="grey-to-dark"/>
<path d="M136.995 30.4018C137.045 30.4018 137.093 30.392 137.139 30.3729C137.184 30.3539 137.225 30.3259 137.26 30.2908C137.294 30.2556 137.322 30.2139 137.34 30.1681C137.358 30.1224 137.367 30.0734 137.366 30.0242V27.68C137.344 27.6026 137.297 27.5345 137.233 27.486C137.168 27.4375 137.09 27.4113 137.01 27.4113C136.929 27.4113 136.851 27.4375 136.787 27.486C136.722 27.5345 136.675 27.6026 136.653 27.68V30.0384C136.655 30.1307 136.691 30.2191 136.754 30.2863C136.817 30.3535 136.903 30.3947 136.995 30.4018Z" fill="#455A64" id="grey-to-dark"/>
<path d="M138.876 32.2757H141.221C141.294 32.2498 141.358 32.2016 141.403 32.1377C141.449 32.0739 141.473 31.9976 141.473 31.9194C141.473 31.8412 141.449 31.765 141.403 31.7011C141.358 31.6373 141.294 31.5891 141.221 31.5632H138.876C138.819 31.5432 138.759 31.5371 138.699 31.5455C138.639 31.5538 138.582 31.5764 138.533 31.6113C138.484 31.6462 138.443 31.6924 138.416 31.746C138.388 31.7996 138.374 31.8591 138.374 31.9194C138.374 31.9798 138.388 32.0393 138.416 32.0929C138.443 32.1465 138.484 32.1927 138.533 32.2276C138.582 32.2625 138.639 32.2851 138.699 32.2934C138.759 32.3018 138.819 32.2957 138.876 32.2757Z" fill="#455A64" id="grey-to-dark"/>
<path d="M136.995 36.4938C137.094 36.4938 137.188 36.4548 137.257 36.3853C137.327 36.3158 137.366 36.2216 137.366 36.1233V33.7791C137.382 33.724 137.384 33.6659 137.374 33.6096C137.363 33.5532 137.34 33.5 137.305 33.4542C137.271 33.4085 137.226 33.3713 137.175 33.3457C137.124 33.3202 137.067 33.3069 137.01 33.3069C136.952 33.3069 136.896 33.3202 136.844 33.3457C136.793 33.3713 136.748 33.4085 136.714 33.4542C136.679 33.5 136.656 33.5532 136.645 33.6096C136.635 33.6659 136.638 33.724 136.653 33.7791V36.1233C136.653 36.2168 136.688 36.307 136.752 36.3757C136.815 36.4444 136.902 36.4866 136.995 36.4938Z" fill="#455A64" id="grey-to-dark"/>
<path d="M132.777 32.2757H135.121C135.195 32.2498 135.259 32.2016 135.304 32.1378C135.35 32.0739 135.374 31.9977 135.374 31.9195C135.374 31.8413 135.35 31.765 135.304 31.7012C135.259 31.6373 135.195 31.5891 135.121 31.5632H132.777C132.704 31.5891 132.64 31.6373 132.594 31.7012C132.549 31.765 132.525 31.8413 132.525 31.9195C132.525 31.9977 132.549 32.0739 132.594 32.1378C132.64 32.2016 132.704 32.2498 132.777 32.2757Z" fill="#455A64" id="grey-to-dark"/>
<path d="M91.7649 76.3519C90.8077 76.3505 89.8716 76.6331 89.0751 77.1638C88.2786 77.6946 87.6574 78.4497 87.2901 79.3336C86.9228 80.2175 86.826 81.1904 87.0119 82.1294C87.1977 83.0683 87.6579 83.931 88.3343 84.6084C89.0106 85.2857 89.8726 85.7472 90.8113 85.9344C91.75 86.1217 92.7231 86.0263 93.6075 85.6603C94.492 85.2943 95.248 84.6742 95.7799 83.8785C96.3118 83.0827 96.5957 82.1471 96.5957 81.1899C96.5967 80.5549 96.4724 79.926 96.2301 79.339C95.9877 78.7521 95.632 78.2187 95.1833 77.7694C94.7346 77.32 94.2018 76.9636 93.6152 76.7203C93.0286 76.4771 92.3999 76.3519 91.7649 76.3519Z" fill="#008CC8"/>
<path d="M115.428 100.577V71.6493C115.428 71.2576 115.35 70.8697 115.2 70.5079C115.05 70.1461 114.83 69.8175 114.553 69.5408C114.275 69.2641 113.946 69.0449 113.584 68.8957C113.222 68.7464 112.834 68.6701 112.442 68.671H71.1162C70.7245 68.6701 70.3364 68.7464 69.9742 68.8957C69.6121 69.0449 69.2829 69.2641 69.0056 69.5408C68.7283 69.8175 68.5083 70.1461 68.3581 70.5079C68.208 70.8697 68.1307 71.2576 68.1307 71.6493V100.577C68.1298 100.97 68.2064 101.358 68.3561 101.721C68.5058 102.084 68.7257 102.413 69.0031 102.691C69.2805 102.968 69.61 103.188 69.9726 103.338C70.3352 103.487 70.7239 103.564 71.1162 103.563H112.442C112.834 103.564 113.223 103.487 113.586 103.338C113.948 103.188 114.278 102.968 114.555 102.691C114.833 102.413 115.052 102.084 115.202 101.721C115.352 101.358 115.428 100.97 115.428 100.577ZM101.362 93.4523C100.895 92.6422 100.317 91.9012 99.6453 91.2506C98.6156 90.2079 97.3883 89.3809 96.0352 88.8182C94.6821 88.2554 93.2303 87.9681 91.7649 87.973C89.826 87.9738 87.9207 88.4794 86.2366 89.4401C84.5525 90.4009 83.1476 91.7836 82.1602 93.4523C80.3405 91.2467 79.3499 88.4739 79.36 85.6146C79.3203 83.961 79.6118 82.3162 80.2172 80.777C80.8226 79.2377 81.7298 77.835 82.8853 76.6515C84.0407 75.468 85.4213 74.5275 86.9456 73.8854C88.4699 73.2432 90.1073 72.9124 91.7613 72.9124C93.4154 72.9124 95.0527 73.2432 96.5771 73.8854C98.1014 74.5275 99.4819 75.468 100.637 76.6515C101.793 77.835 102.7 79.2377 103.305 80.777C103.911 82.3162 104.202 83.961 104.163 85.6146C104.173 88.4739 103.182 91.2467 101.362 93.4523Z" fill="#F87302"/>
<path d="M91.7649 59.8928C93.9135 59.8928 95.6552 58.1511 95.6552 56.0025C95.6552 53.8539 93.9135 52.1122 91.7649 52.1122C89.6163 52.1122 87.8746 53.8539 87.8746 56.0025C87.8746 58.1511 89.6163 59.8928 91.7649 59.8928Z" fill="#455A64" id="grey-to-dark"/>
<path d="M65.238 69.6685V82.1162C65.2179 82.1731 65.2119 82.234 65.2202 82.2938C65.2286 82.3536 65.2512 82.4104 65.2861 82.4597C65.321 82.509 65.3672 82.5491 65.4208 82.5768C65.4744 82.6046 65.5339 82.619 65.5942 82.619C65.6546 82.619 65.7141 82.6046 65.7677 82.5768C65.8213 82.5491 65.8675 82.509 65.9024 82.4597C65.9372 82.4104 65.9598 82.3536 65.9682 82.2938C65.9766 82.234 65.9705 82.1731 65.9505 82.1162V69.6685C65.9505 69.1016 66.1757 68.5579 66.5765 68.157C66.9774 67.7562 67.5211 67.531 68.088 67.531H80.044C80.0992 67.5467 80.1572 67.5494 80.2136 67.539C80.27 67.5285 80.3231 67.505 80.3689 67.4705C80.4147 67.436 80.4518 67.3913 80.4774 67.3399C80.503 67.2886 80.5163 67.2321 80.5163 67.1747C80.5163 67.1174 80.503 67.0608 80.4774 67.0095C80.4518 66.9581 80.4147 66.9135 80.3689 66.8789C80.3231 66.8444 80.27 66.8209 80.2136 66.8105C80.1572 66.8 80.0992 66.8027 80.044 66.8185H68.1023C67.7268 66.8166 67.3547 66.8889 67.0072 67.0313C66.6598 67.1737 66.3439 67.3833 66.0778 67.6482C65.8116 67.913 65.6004 68.2278 65.4563 68.5745C65.3121 68.9213 65.238 69.293 65.238 69.6685Z" fill="#008CC8"/>
<path d="M102.966 105.401H115.428C116.183 105.401 116.908 105.101 117.443 104.566C117.977 104.032 118.278 103.307 118.278 102.551V96.5731C118.279 96.5238 118.27 96.4749 118.251 96.4291C118.233 96.3833 118.206 96.3417 118.172 96.3065C118.137 96.2713 118.096 96.2434 118.051 96.2243C118.005 96.2053 117.956 96.1955 117.907 96.1955C117.807 96.1955 117.711 96.2352 117.64 96.3061C117.569 96.3769 117.529 96.4729 117.529 96.5731V102.551C117.529 103.118 117.304 103.662 116.903 104.063C116.503 104.463 115.959 104.689 115.392 104.689H102.966C102.888 104.711 102.82 104.757 102.772 104.822C102.723 104.886 102.697 104.964 102.697 105.045C102.697 105.125 102.723 105.204 102.772 105.268C102.82 105.332 102.888 105.379 102.966 105.401Z" fill="#008CC8"/>
<path d="M68.1023 105.401H81.5546C81.6097 105.417 81.6677 105.42 81.7241 105.409C81.7805 105.399 81.8337 105.375 81.8794 105.341C81.9252 105.306 81.9624 105.261 81.9879 105.21C82.0135 105.159 82.0268 105.102 82.0268 105.045C82.0268 104.988 82.0135 104.931 81.9879 104.88C81.9624 104.828 81.9252 104.784 81.8794 104.749C81.8337 104.715 81.7805 104.691 81.7241 104.681C81.6677 104.67 81.6097 104.673 81.5546 104.689H68.1023C67.5353 104.689 66.9917 104.463 66.5908 104.063C66.1899 103.662 65.9647 103.118 65.9647 102.551V92.5759C65.9388 92.5021 65.8906 92.4382 65.8268 92.393C65.7629 92.3478 65.6867 92.3235 65.6085 92.3235C65.5302 92.3235 65.454 92.3478 65.3902 92.393C65.3263 92.4382 65.2781 92.5021 65.2522 92.5759V102.551C65.2522 103.307 65.5525 104.032 66.087 104.566C66.6214 105.101 67.3464 105.401 68.1023 105.401Z" fill="#008CC8"/>
<path d="M118.278 69.6685C118.278 68.9126 117.977 68.1877 117.443 67.6532C116.908 67.1187 116.183 66.8185 115.428 66.8185H102.966C102.888 66.8406 102.82 66.8873 102.772 66.9516C102.723 67.0159 102.697 67.0942 102.697 67.1747C102.697 67.2552 102.723 67.3336 102.772 67.3978C102.82 67.4621 102.888 67.5089 102.966 67.531H115.428C115.994 67.531 116.538 67.7562 116.939 68.157C117.34 68.5579 117.565 69.1016 117.565 69.6685V84.1112C117.565 84.1605 117.575 84.2092 117.594 84.2547C117.613 84.3001 117.641 84.3412 117.676 84.3757C117.711 84.4102 117.753 84.4374 117.799 84.4556C117.845 84.4738 117.893 84.4827 117.943 84.4817C117.991 84.4817 118.04 84.4721 118.084 84.4535C118.129 84.4349 118.17 84.4076 118.205 84.3732C118.239 84.3388 118.266 84.2979 118.285 84.253C118.304 84.208 118.313 84.1599 118.313 84.1112L118.278 69.6685Z" fill="#008CC8"/>
<path d="M161.378 138.291H143.451C144.643 137.865 145.674 137.08 146.401 136.044C147.128 135.007 147.517 133.771 147.512 132.505H139.461C139.944 132.29 140.358 131.945 140.656 131.509C140.954 131.072 141.125 130.561 141.149 130.033V121.989H144.135L147.427 118.697H141.149V114.479H151.652L154.937 111.187H140.366V114.479H140.408V118.697H140.366V121.989H140.408V130.033C140.408 131.237 139.126 132.22 137.558 132.22H46.9833C45.4087 132.22 44.1333 131.237 44.1333 130.033V81.4036C44.1333 80.1995 45.4158 79.2162 46.9833 79.2162H57.1723V105.38C57.1723 105.478 57.2113 105.572 57.2808 105.642C57.3503 105.711 57.4445 105.75 57.5428 105.75C57.6411 105.75 57.7353 105.711 57.8048 105.642C57.8743 105.572 57.9133 105.478 57.9133 105.38V39.0731C57.9133 38.3569 58.1978 37.67 58.7042 37.1636C59.2107 36.6572 59.8975 36.3727 60.6137 36.3727H75.6336C76.2752 36.3758 76.9047 36.1984 77.4503 35.8607C77.9958 35.5231 78.4354 35.0388 78.7188 34.4631L79.4313 33.088C79.4534 33.0445 79.4666 32.9971 79.4703 32.9484C79.4741 32.8998 79.4681 32.8509 79.4529 32.8046C79.4377 32.7582 79.4135 32.7153 79.3816 32.6784C79.3498 32.6414 79.311 32.6111 79.2674 32.5892C79.1792 32.5465 79.0779 32.5397 78.9849 32.5703C78.8918 32.6009 78.8143 32.6664 78.7686 32.7531L78.0561 34.1282C77.8331 34.5796 77.4877 34.9592 77.0594 35.2238C76.6311 35.4883 76.137 35.6272 75.6336 35.6245H74.9211C71.5915 32.0149 67.4683 29.2287 62.8771 27.4861C58.2859 25.7435 53.3524 25.0921 48.4663 25.5834C43.5802 26.0748 38.8752 27.6953 34.7228 30.3172C30.5705 32.939 27.0846 36.4903 24.5404 40.6907C21.9962 44.891 20.4633 49.6253 20.0629 54.5197C19.6624 59.4142 20.4054 64.3347 22.233 68.8927C24.0606 73.4507 26.923 77.5214 30.5939 80.7833C34.2648 84.0452 38.6438 86.409 43.3851 87.688V130.033C43.4102 130.562 43.5821 131.073 43.8816 131.51C44.1812 131.947 44.5964 132.291 45.0809 132.505H34.4715C34.4732 133.77 34.8638 135.003 35.5903 136.038C36.3169 137.073 37.3442 137.86 38.5329 138.291H33.7234C33.6683 138.275 33.6102 138.272 33.5538 138.283C33.4975 138.293 33.4443 138.317 33.3985 138.351C33.3527 138.386 33.3156 138.431 33.29 138.482C33.2644 138.533 33.2511 138.59 33.2511 138.647C33.2511 138.704 33.2644 138.761 33.29 138.812C33.3156 138.864 33.3527 138.908 33.3985 138.943C33.4443 138.977 33.4975 139.001 33.5538 139.011C33.6102 139.022 33.6683 139.019 33.7234 139.003H161.378C161.433 139.019 161.491 139.022 161.547 139.011C161.604 139.001 161.657 138.977 161.703 138.943C161.748 138.908 161.785 138.864 161.811 138.812C161.837 138.761 161.85 138.704 161.85 138.647C161.85 138.59 161.837 138.533 161.811 138.482C161.785 138.431 161.748 138.386 161.703 138.351C161.657 138.317 161.604 138.293 161.547 138.283C161.491 138.272 161.433 138.275 161.378 138.291ZM87.6395 132.968H94.33C94.1432 133.714 93.7125 134.376 93.1064 134.849C92.5003 135.322 91.7535 135.579 90.9847 135.579C90.2159 135.579 89.4691 135.322 88.863 134.849C88.2569 134.376 87.8262 133.714 87.6395 132.968Z" fill="#455A64" id="grey-to-dark"/>
<path d="M28.294 138.291H20.606C20.5508 138.275 20.4928 138.272 20.4364 138.283C20.38 138.293 20.3269 138.317 20.2811 138.351C20.2353 138.386 20.1982 138.431 20.1726 138.482C20.147 138.533 20.1337 138.59 20.1337 138.647C20.1337 138.704 20.147 138.761 20.1726 138.812C20.1982 138.864 20.2353 138.908 20.2811 138.943C20.3269 138.977 20.38 139.001 20.4364 139.011C20.4928 139.022 20.5508 139.019 20.606 139.003H28.294C28.3492 139.019 28.4072 139.022 28.4636 139.011C28.52 139.001 28.5731 138.977 28.6189 138.943C28.6647 138.908 28.7018 138.864 28.7274 138.812C28.753 138.761 28.7663 138.704 28.7663 138.647C28.7663 138.59 28.753 138.533 28.7274 138.482C28.7018 138.431 28.6647 138.386 28.6189 138.351C28.5731 138.317 28.52 138.293 28.4636 138.283C28.4072 138.272 28.3492 138.275 28.294 138.291Z" fill="#455A64" id="grey-to-dark"/>
</svg>
