<svg width="161" height="95" viewBox="0 0 161 95" fill="none" xmlns="http://www.w3.org/2000/svg">
<g clip-path="url(#clip0)">
<path fill-rule="evenodd" clip-rule="evenodd" d="M0 0H49.2024C49.2024 0 56.7001 0.558446 63.7871 4.67648H0V0ZM67.2421 7.03079C69.795 9.07172 72.1023 11.6952 73.7291 15.066H42.361C39.4135 13.8486 35.7572 13.1134 31.3761 13.1054V15.066H4.90051V12.4264C4.90051 12.4264 5.24278 8.44096 2.35563 7.02677H67.2421V7.03079ZM74.7036 17.4203C75.6096 19.9915 76.1451 22.7315 75.9961 25.4555H51.3607C51.0144 22.5146 49.3957 19.65 46.5005 17.4203H74.7036ZM31.3721 25.4595H4.90051V17.4243H31.3761V25.4595H31.3721ZM75.7666 27.8138C75.3277 30.8953 74.3854 33.5549 73.1492 35.8409H46.5448C49.4279 33.6152 51.0345 30.7547 51.3688 27.8138H75.7666ZM31.3721 35.8409H4.90051V27.8138H31.3761V35.8409H31.3721ZM71.6916 38.1953C68.9816 42.0521 65.4784 44.6194 62.6154 46.2304H4.90051V38.1953H31.3761V40.1157C35.7733 40.1317 39.4457 39.4086 42.3932 38.1953H71.6916ZM57.4088 48.5888L63.4771 56.5918H33.5667C32.8539 55.7602 31.7506 54.5951 31.3721 54.9687V56.5918H4.90051V48.5888H57.4088ZM65.2609 58.9461L71.3533 66.9813H42.0832L35.4995 58.9461H65.2609ZM31.3721 58.9461L31.3681 66.9813H4.90051V58.9461H31.3721ZM73.1372 69.3356L79.2255 77.3628H50.5876L44.012 69.3356H73.1372ZM31.3681 69.3356L31.3641 77.3628H4.90051V69.3356H31.3681ZM81.0094 79.7171L83.6388 83.1843C83.6388 83.1843 85.8575 86.7117 90.1983 87.9732H59.2812L52.5164 79.7131H81.0094V79.7171ZM93.3392 90.3316V95H65.0314L61.206 90.3316H93.3392ZM31.3641 79.7171V83.1843C31.3641 83.1843 31.4929 86.7117 34.1465 87.9732H1.93685C3.30593 87.4067 4.89648 86.1171 4.89648 83.1883V79.7171H31.3641ZM36.2605 90.3316V95H0V90.3316H36.2605Z" fill="#E6E7E8"/>
<path fill-rule="evenodd" clip-rule="evenodd" d="M159.583 52.9156H52.1419C51.3607 52.9156 50.7205 53.5384 50.7205 54.3017V75.9606C50.7205 76.7239 51.3607 77.3466 52.1419 77.3466H159.583C160.364 77.3466 161.004 76.7239 161.004 75.9606V54.3017C161 53.5384 160.364 52.9156 159.583 52.9156Z" fill="#77787B"/>
<path d="M61.1497 72.634C60.1148 72.634 59.2128 72.5014 58.4397 72.2363C57.6665 71.9711 57.0223 71.5975 56.4988 71.1274C55.9753 70.6493 55.5807 70.0828 55.3109 69.424C55.0411 68.7651 54.8921 68.0419 54.868 67.2544H57.4894C57.5337 67.7607 57.6585 68.1986 57.8679 68.5682C58.0732 68.9459 58.335 69.2512 58.6571 69.4963C58.9712 69.7413 59.3376 69.9181 59.7484 70.0346C60.1591 70.1511 60.594 70.2114 61.057 70.2114C61.496 70.2114 61.8946 70.1672 62.257 70.0788C62.6194 69.9904 62.9295 69.8699 63.1872 69.7092C63.4449 69.5485 63.6422 69.3516 63.7831 69.1226C63.9241 68.8896 63.9925 68.6285 63.9925 68.3432C63.9925 68.0499 63.9241 67.7968 63.7871 67.5919C63.6502 67.387 63.4288 67.2022 63.1268 67.0375C62.8207 66.8728 62.4221 66.7281 61.9268 66.5915C61.4275 66.459 60.8195 66.3184 60.0947 66.1777C59.2692 65.9929 58.5565 65.784 57.9605 65.543C57.3605 65.3019 56.8693 65.0166 56.4867 64.6872C56.1042 64.3618 55.8183 63.9841 55.6331 63.5502C55.4478 63.1203 55.3552 62.6302 55.3552 62.0718C55.3552 61.4731 55.4841 60.9227 55.7337 60.4165C55.9874 59.9143 56.3498 59.4764 56.8169 59.1148C57.28 58.7492 57.8437 58.464 58.488 58.2591C59.1363 58.0542 59.8571 57.9497 60.6503 57.9497C61.4758 57.9497 62.2328 58.0622 62.9134 58.2832C63.5979 58.5082 64.1858 58.8255 64.6811 59.2394C65.1764 59.6572 65.567 60.1674 65.8488 60.7701C66.1307 61.3727 66.2797 62.0557 66.2998 62.819H63.7066C63.5174 61.1999 62.5228 60.3884 60.7228 60.3884C59.849 60.3884 59.1766 60.537 58.7135 60.8223C58.2504 61.1116 58.0169 61.5133 58.0169 62.0195C58.0169 62.2244 58.0692 62.4092 58.1699 62.5579C58.2706 62.7106 58.4316 62.8512 58.6571 62.9797C58.8786 63.1083 59.1645 63.2248 59.5108 63.3333C59.8611 63.4377 60.2839 63.5422 60.7792 63.6426C61.2141 63.727 61.653 63.8274 62.112 63.9319C62.563 64.0364 63.01 64.1649 63.4449 64.3176C63.8798 64.4662 64.2905 64.651 64.673 64.864C65.0556 65.0769 65.3978 65.3421 65.6878 65.6474C65.9817 65.9527 66.2072 66.3143 66.3763 66.7322C66.5454 67.146 66.63 67.6361 66.63 68.1905C66.63 68.8454 66.4931 69.444 66.2193 69.9904C65.9455 70.5368 65.567 71.0029 65.0797 71.3926C64.5925 71.7823 64.0126 72.0876 63.3402 72.3086C62.6798 72.5255 61.9429 72.634 61.1497 72.634ZM82.3986 58.1667L76.6726 66.4228V72.409H73.9747V66.4228L68.2367 58.1667H71.5064L75.3277 63.9359L79.1289 58.1667H82.3986ZM90.1379 72.634C89.1031 72.634 88.1971 72.5014 87.428 72.2363C86.6548 71.9711 86.0106 71.5975 85.4911 71.1274C84.9676 70.6493 84.573 70.0828 84.3032 69.424C84.0335 68.7651 83.8845 68.0419 83.8603 67.2544H86.4777C86.522 67.7607 86.6468 68.1986 86.8562 68.5682C87.0615 68.9459 87.3233 69.2512 87.6414 69.4963C87.9595 69.7413 88.3219 69.9181 88.7326 70.0346C89.1433 70.1511 89.5782 70.2114 90.0453 70.2114C90.4842 70.2114 90.8829 70.1672 91.2453 70.0788C91.6077 69.9904 91.9178 69.8699 92.1755 69.7092C92.4332 69.5485 92.6305 69.3516 92.7714 69.1226C92.9123 68.8896 92.9808 68.6285 92.9808 68.3432C92.9808 68.0499 92.9123 67.7968 92.7754 67.5919C92.6385 67.387 92.4171 67.2022 92.1151 67.0375C91.809 66.8728 91.4104 66.7281 90.9151 66.5915C90.4158 66.459 89.8078 66.3184 89.0829 66.1777C88.2575 65.9929 87.5407 65.784 86.9488 65.543C86.3488 65.3019 85.8576 65.0166 85.475 64.6872C85.0885 64.3618 84.8066 63.9841 84.6213 63.5502C84.4361 63.1203 84.3435 62.6302 84.3435 62.0718C84.3435 61.4731 84.4683 60.9227 84.722 60.4165C84.9757 59.9143 85.3381 59.4764 85.8052 59.1148C86.2723 58.7492 86.832 58.464 87.4803 58.2591C88.1286 58.0542 88.8494 57.9497 89.6427 57.9497C90.4681 57.9497 91.2252 58.0622 91.9097 58.2832C92.5942 58.5082 93.1821 58.8255 93.6774 59.2394C94.1727 59.6572 94.5633 60.1674 94.8452 60.7701C95.127 61.3727 95.276 62.0557 95.2962 62.819H92.703C92.5137 61.1999 91.5191 60.3884 89.7192 60.3884C88.8454 60.3884 88.1729 60.537 87.7098 60.8223C87.2468 61.1116 87.0132 61.5133 87.0132 62.0195C87.0132 62.2244 87.0656 62.4092 87.1662 62.5579C87.2669 62.7106 87.428 62.8512 87.6535 62.9797C87.8749 63.1083 88.1608 63.2248 88.5071 63.3333C88.8575 63.4377 89.2843 63.5422 89.7755 63.6426C90.2064 63.727 90.6493 63.8274 91.1044 63.9319C91.5553 64.0364 92.0023 64.1649 92.4372 64.3176C92.8721 64.4662 93.2828 64.651 93.6694 64.864C94.0519 65.0769 94.3902 65.3421 94.6841 65.6474C94.9781 65.9527 95.2035 66.3143 95.3727 66.7322C95.5418 67.146 95.6264 67.6361 95.6264 68.1905C95.6264 68.8454 95.4894 69.444 95.2156 69.9904C94.9418 70.5368 94.5633 71.0029 94.0761 71.3926C93.5888 71.7823 93.009 72.0876 92.3365 72.3086C91.6681 72.5255 90.9312 72.634 90.1379 72.634ZM109.607 60.6134H105.105V72.409H102.399V60.6134H97.9175V58.1667H109.603V60.6134H109.607ZM123.459 72.409H112.398V58.1667H123.141V60.6134H115.1V63.8315H122.629V66.2621H115.1V69.9583H123.459V72.409ZM140.649 72.409H138.028V63.2891L134.911 72.409H132.644L129.543 63.2891V72.409H126.93V58.1667H130.437L133.783 68.3191L137.146 58.1667H140.645V72.409H140.649ZM150.337 72.634C149.302 72.634 148.396 72.5014 147.627 72.2363C146.854 71.9711 146.21 71.5975 145.686 71.1274C145.163 70.6493 144.768 70.0828 144.499 69.424C144.229 68.7651 144.08 68.0419 144.056 67.2544H146.673C146.717 67.7607 146.842 68.1986 147.051 68.5682C147.257 68.9459 147.519 69.2512 147.837 69.4963C148.151 69.7413 148.517 69.9181 148.928 70.0346C149.339 70.1511 149.774 70.2114 150.237 70.2114C150.676 70.2114 151.078 70.1672 151.437 70.0788C151.799 69.9904 152.109 69.8699 152.367 69.7092C152.624 69.5485 152.822 69.3516 152.963 69.1226C153.104 68.8896 153.172 68.6285 153.172 68.3432C153.172 68.0499 153.104 67.7968 152.967 67.5919C152.83 67.387 152.608 67.2022 152.306 67.0375C152 66.8728 151.602 66.7281 151.106 66.5915C150.607 66.459 149.999 66.3184 149.274 66.1777C148.449 65.9929 147.732 65.784 147.14 65.543C146.54 65.3019 146.049 65.0166 145.666 64.6872C145.28 64.3618 144.998 63.9841 144.813 63.5502C144.627 63.1203 144.539 62.6302 144.539 62.0718C144.539 61.4731 144.664 60.9227 144.917 60.4165C145.171 59.9143 145.533 59.4764 146.001 59.1148C146.464 58.7492 147.023 58.464 147.672 58.2591C148.32 58.0542 149.041 57.9497 149.834 57.9497C150.659 57.9497 151.416 58.0622 152.101 58.2832C152.786 58.5082 153.373 58.8255 153.869 59.2394C154.364 59.6572 154.755 60.1674 155.036 60.7701C155.318 61.3727 155.467 62.0557 155.487 62.819H152.894C152.705 61.1999 151.71 60.3884 149.91 60.3884C149.037 60.3884 148.364 60.537 147.901 60.8223C147.438 61.1116 147.204 61.5133 147.204 62.0195C147.204 62.2244 147.257 62.4092 147.358 62.5579C147.458 62.7106 147.619 62.8512 147.845 62.9797C148.066 63.1083 148.352 63.2248 148.698 63.3333C149.049 63.4377 149.476 63.5422 149.967 63.6426C150.398 63.727 150.841 63.8274 151.296 63.9319C151.747 64.0364 152.194 64.1649 152.628 64.3176C153.063 64.4662 153.474 64.651 153.861 64.864C154.243 65.0769 154.581 65.3421 154.875 65.6474C155.169 65.9527 155.395 66.3143 155.568 66.7322C155.737 67.146 155.822 67.6361 155.822 68.1905C155.822 68.8454 155.685 69.444 155.411 69.9904C155.137 70.5368 154.759 71.0029 154.271 71.3926C153.784 71.7823 153.204 72.0876 152.532 72.3086C151.867 72.5255 151.131 72.634 150.337 72.634Z" fill="#E6E7E8"/>
</g>
<defs>
<clipPath id="clip0">
<rect width="161" height="95" fill="white"/>
</clipPath>
</defs>
</svg>
