<?xml version="1.0" encoding="UTF-8" standalone="no"?>
<svg
   enable-background="new 0 0 32 32"
   id="Слой_1"
   version="1.1"
   viewBox="0 0 32 32"
   xml:space="preserve"
   sodipodi:docname="remove_black_2.svg"
   inkscape:version="1.1 (c68e22c387, 2021-05-23)"
   xmlns:inkscape="http://www.inkscape.org/namespaces/inkscape"
   xmlns:sodipodi="http://sodipodi.sourceforge.net/DTD/sodipodi-0.dtd"
   xmlns="http://www.w3.org/2000/svg"
   xmlns:svg="http://www.w3.org/2000/svg"><defs
     id="defs1372" /><sodipodi:namedview
     id="namedview1370"
     pagecolor="#ffffff"
     bordercolor="#666666"
     borderopacity="1.0"
     inkscape:pageshadow="2"
     inkscape:pageopacity="0.0"
     inkscape:pagecheckerboard="0"
     showgrid="false"
     inkscape:zoom="26"
     inkscape:cx="15.980769"
     inkscape:cy="16.019231"
     inkscape:window-width="1536"
     inkscape:window-height="801"
     inkscape:window-x="-8"
     inkscape:window-y="-8"
     inkscape:window-maximized="1"
     inkscape:current-layer="Слой_1" /><g
     id="Cancel"
     style="stroke:none;stroke-opacity:1;fill:#333333;fill-opacity:1"><path
       clip-rule="evenodd"
       d="M22.729,21.271l-5.268-5.269l5.238-5.195   c0.395-0.391,0.395-1.024,0-1.414c-0.394-0.39-1.034-0.39-1.428,0l-5.231,5.188l-5.309-5.31c-0.394-0.396-1.034-0.396-1.428,0   c-0.394,0.395-0.394,1.037,0,1.432l5.301,5.302l-5.331,5.287c-0.394,0.391-0.394,1.024,0,1.414c0.394,0.391,1.034,0.391,1.429,0   l5.324-5.28l5.276,5.276c0.394,0.396,1.034,0.396,1.428,0C23.123,22.308,23.123,21.667,22.729,21.271z"
       fill="#121313"
       fill-rule="evenodd"
       id="path1354"
       style="stroke:none;stroke-opacity:1;fill:#333333;fill-opacity:1" /></g><g
     id="g1357" /><g
     id="g1359" /><g
     id="g1361" /><g
     id="g1363" /><g
     id="g1365" /><g
     id="g1367" /></svg>
