<svg width="13" height="8" viewBox="0 0 13 8" fill="none" xmlns="http://www.w3.org/2000/svg">
<path d="M0.886719 3.73828L3.51172 6.36328C3.71224 6.58203 3.91276 6.59115 4.11328 6.39062C4.33203 6.17188 4.33203 5.96224 4.11328 5.76172L2.25391 3.875H8.625C9.44531 3.875 10.0833 4.1849 10.5391 4.80469C11.013 5.42448 11.25 6.13542 11.25 6.9375C11.25 7.0651 11.2865 7.17448 11.3594 7.26562C11.4505 7.33854 11.5599 7.375 11.6875 7.375C11.8151 7.375 11.9154 7.33854 11.9883 7.26562C12.0794 7.17448 12.125 7.0651 12.125 6.9375C12.125 5.84375 11.8424 4.91406 11.2773 4.14844C10.7122 3.38281 9.82812 3 8.625 3H2.25391L4.11328 1.11328C4.33203 0.91276 4.33203 0.71224 4.11328 0.511719C3.91276 0.292969 3.71224 0.292969 3.51172 0.511719L0.886719 3.13672C0.667969 3.33724 0.667969 3.53776 0.886719 3.73828Z" fill="white"/>
</svg>
