<svg width="182" height="144" viewBox="0 0 182 144" fill="none" xmlns="http://www.w3.org/2000/svg">
<path d="M133.649 28.847H130.962V64.3374H133.649V28.847Z" fill="#455A64"/>
<path d="M138.43 28.847H135.743V64.3374H138.43V28.847Z" fill="#455A64"/>
<path d="M143.203 28.847H140.517V64.3374H143.203V28.847Z" fill="#455A64"/>
<path d="M147.984 28.847H145.298V64.3374H147.984V28.847Z" fill="#455A64"/>
<path d="M152.765 28.847H150.079V64.3374H152.765V28.847Z" fill="#455A64"/>
<path d="M157.546 28.847H154.86V64.3374H157.546V28.847Z" fill="#455A64"/>
<path d="M46.7858 28.0988C47.3415 28.0988 47.6479 28.5619 48.0826 29.3172C48.5172 30.0725 48.9875 30.8847 49.985 30.8847C50.9825 30.8847 51.467 30.0511 51.8874 29.3172C52.3078 28.5833 52.5999 28.0988 53.1842 28.0988C53.7684 28.0988 54.0463 28.5619 54.4809 29.3172C54.9156 30.0725 55.3787 30.8847 56.3834 30.8847C57.388 30.8847 57.8583 30.0511 58.2858 29.3172C58.7133 28.5833 58.9983 28.0988 59.5826 28.0988C60.1668 28.0988 60.4447 28.5619 60.8793 29.3172C61.314 30.0725 61.7771 30.8847 62.7818 30.8847C63.7864 30.8847 64.2638 30.0511 64.6842 29.3172C65.1046 28.5833 65.3967 28.0988 65.9809 28.0988C66.5652 28.0988 66.8502 28.5619 67.2848 29.3172C67.7195 30.0725 68.1826 30.8847 69.1873 30.8847C69.2799 30.8847 69.3687 30.8479 69.4341 30.7825C69.4996 30.717 69.5364 30.6282 69.5364 30.5356C69.5364 30.4901 69.5273 30.445 69.5097 30.4031C69.4921 30.3611 69.4662 30.3231 69.4337 30.2912C69.4012 30.2594 69.3627 30.2343 69.3203 30.2176C69.278 30.2008 69.2328 30.1926 69.1873 30.1936C68.6315 30.1936 68.3251 29.7305 67.8905 28.9752C67.4559 28.2199 66.9856 27.4077 65.9809 27.4077C64.9763 27.4077 64.506 28.2413 64.0785 28.9752C63.651 29.7091 63.366 30.1936 62.7818 30.1936C62.1975 30.1936 61.9196 29.7305 61.485 28.9752C61.0503 28.2199 60.5801 27.4077 59.5826 27.4077C58.585 27.4077 58.1005 28.2413 57.6801 28.9752C57.2598 29.7091 56.9676 30.1936 56.3834 30.1936C55.7991 30.1936 55.5212 29.7305 55.0866 28.9752C54.6519 28.2199 54.1817 27.4077 53.1842 27.4077C52.1866 27.4077 51.7021 28.2413 51.2818 28.9752C50.8614 29.7091 50.5692 30.1936 49.985 30.1936C49.4007 30.1936 49.1228 29.7305 48.6882 28.9752C48.2536 28.2199 47.7904 27.4077 46.7858 27.4077C46.7399 27.4077 46.6945 27.4167 46.6522 27.4342C46.6098 27.4518 46.5713 27.4775 46.5389 27.5099C46.5065 27.5423 46.4808 27.5808 46.4632 27.6232C46.4457 27.6655 46.4366 27.7109 46.4366 27.7568C46.4366 27.8023 46.4457 27.8474 46.4633 27.8893C46.481 27.9313 46.5068 27.9693 46.5393 28.0012C46.5718 28.033 46.6104 28.0581 46.6527 28.0748C46.695 28.0916 46.7403 28.0997 46.7858 28.0988Z" fill="#455A64"/>
<path d="M91.8667 37.1335H124.094C124.513 37.1503 124.922 37.2687 125.286 37.4784C125.65 37.6881 125.957 37.983 126.181 38.3377V64.3303H126.616V67.3941C126.615 67.4402 126.624 67.486 126.641 67.5288C126.658 67.5716 126.684 67.6105 126.716 67.6431C126.749 67.6757 126.788 67.7014 126.83 67.7186C126.873 67.7358 126.919 67.7442 126.965 67.7432C127.057 67.7414 127.145 67.704 127.21 67.6389C127.275 67.5738 127.313 67.4861 127.314 67.3941V64.3303H128.875V28.847H126.181V37.2832C125.608 36.7637 124.868 36.4656 124.094 36.4424V28.847H121.436V36.4353H119.299V28.847H116.612V36.4353H114.518V28.847H111.831V36.4353H109.744V28.847H107.05V36.4353H104.97V28.847H102.269V36.4353H91.8667C91.7747 36.4371 91.687 36.4745 91.6219 36.5396C91.5568 36.6046 91.5194 36.6924 91.5176 36.7844C91.5166 36.8305 91.525 36.8764 91.5422 36.9192C91.5594 36.962 91.5851 37.0008 91.6177 37.0334C91.6503 37.0661 91.6892 37.0917 91.732 37.1089C91.7748 37.1261 91.8206 37.1345 91.8667 37.1335Z" fill="#455A64"/>
<path d="M84.3853 37.1335H86.3875C86.9742 37.1329 87.5505 36.9779 88.0583 36.684C88.5661 36.39 88.9876 35.9676 89.2803 35.4591L91.4178 31.7326C91.4404 31.693 91.4548 31.6493 91.4602 31.604C91.4655 31.5587 91.4618 31.5128 91.4492 31.469C91.4366 31.4252 91.4153 31.3843 91.3867 31.3488C91.3581 31.3134 91.3226 31.284 91.2825 31.2624C91.2435 31.2386 91.2001 31.223 91.1549 31.2165C91.1097 31.2101 91.0637 31.213 91.0197 31.225C90.9756 31.237 90.9345 31.2579 90.8988 31.2864C90.8632 31.3149 90.8337 31.3503 90.8122 31.3906L88.6747 35.11C88.4442 35.5135 88.1114 35.8491 87.7099 36.0831C87.3083 36.317 86.8522 36.4409 86.3875 36.4424H84.3853C84.2927 36.4424 84.2039 36.4791 84.1385 36.5446C84.073 36.6101 84.0362 36.6989 84.0362 36.7915C84.0362 36.837 84.0453 36.8821 84.0629 36.924C84.0805 36.966 84.1064 37.004 84.1389 37.0359C84.1714 37.0677 84.2099 37.0928 84.2523 37.1095C84.2946 37.1263 84.3398 37.1345 84.3853 37.1335Z" fill="#455A64"/>
<path d="M67.2279 44.6292C68.2589 44.6292 69.0947 43.7934 69.0947 42.7624C69.0947 41.7314 68.2589 40.8956 67.2279 40.8956C66.1969 40.8956 65.3611 41.7314 65.3611 42.7624C65.3611 43.7934 66.1969 44.6292 67.2279 44.6292Z" fill="#455A64"/>
<path d="M73.1988 44.6292C74.2298 44.6292 75.0656 43.7934 75.0656 42.7624C75.0656 41.7314 74.2298 40.8956 73.1988 40.8956C72.1678 40.8956 71.332 41.7314 71.332 42.7624C71.332 43.7934 72.1678 44.6292 73.1988 44.6292Z" fill="#455A64"/>
<path d="M79.1697 44.6292C79.5389 44.6292 79.8999 44.5197 80.2068 44.3146C80.5138 44.1094 80.7531 43.8179 80.8944 43.4768C81.0357 43.1357 81.0727 42.7603 81.0006 42.3982C80.9286 42.0361 80.7508 41.7034 80.4897 41.4424C80.2287 41.1813 79.896 41.0035 79.5339 40.9315C79.1718 40.8594 78.7964 40.8964 78.4553 41.0377C78.1142 41.179 77.8227 41.4183 77.6175 41.7253C77.4124 42.0322 77.3029 42.3932 77.3029 42.7624C77.3029 43.2575 77.4996 43.7323 77.8497 44.0824C78.1998 44.4325 78.6746 44.6292 79.1697 44.6292Z" fill="#455A64"/>
<path d="M142.099 104.416C142.053 104.416 142.008 104.425 141.965 104.443C141.923 104.46 141.885 104.486 141.852 104.519C141.82 104.551 141.794 104.59 141.777 104.632C141.759 104.674 141.75 104.72 141.75 104.765V107.872C141.75 107.918 141.759 107.963 141.777 108.006C141.794 108.048 141.82 108.087 141.852 108.119C141.885 108.151 141.923 108.177 141.965 108.195C142.008 108.212 142.053 108.221 142.099 108.221C142.145 108.221 142.19 108.212 142.232 108.194C142.274 108.177 142.312 108.151 142.343 108.119C142.375 108.086 142.4 108.047 142.417 108.005C142.434 107.963 142.442 107.918 142.441 107.872V104.765C142.442 104.72 142.434 104.675 142.417 104.632C142.4 104.59 142.375 104.552 142.343 104.519C142.312 104.487 142.274 104.461 142.232 104.443C142.19 104.425 142.145 104.416 142.099 104.416Z" fill="#455A64"/>
<path d="M111.162 48.4981C111.097 48.5635 111.06 48.6519 111.06 48.7439C111.06 48.836 111.097 48.9244 111.162 48.9898C111.192 49.0235 111.23 49.0504 111.272 49.0688C111.313 49.0872 111.358 49.0967 111.404 49.0966C111.451 49.0964 111.497 49.0868 111.539 49.0684C111.582 49.0501 111.621 49.0233 111.653 48.9898L114.382 46.2608C115.027 46.7975 115.838 47.0946 116.677 47.1016C117.504 47.1095 118.309 46.8351 118.959 46.3236C119.608 45.8121 120.064 45.0942 120.251 44.2885C120.438 43.4828 120.344 42.6375 119.986 41.8923C119.627 41.147 119.025 40.5464 118.279 40.1896C117.533 39.8328 116.687 39.7413 115.882 39.93C115.077 40.1188 114.36 40.5766 113.85 41.2278C113.34 41.879 113.068 42.6847 113.078 43.5117C113.088 44.3387 113.379 45.1376 113.905 45.7763H113.869L111.162 48.4981ZM114.632 41.373C115.042 40.9608 115.565 40.6795 116.134 40.5649C116.704 40.4503 117.295 40.5074 117.833 40.7291C118.37 40.9508 118.83 41.3271 119.153 41.8102C119.476 42.2933 119.649 42.8615 119.649 43.4428C119.649 44.0241 119.476 44.5924 119.153 45.0755C118.83 45.5586 118.37 45.9348 117.833 46.1565C117.295 46.3782 116.704 46.4354 116.134 46.3208C115.565 46.2061 115.042 45.9249 114.632 45.5127C114.085 44.9639 113.778 44.2209 113.778 43.4464C113.778 42.6719 114.085 41.9289 114.632 41.3801V41.373Z" fill="#008CC8"/>
<path d="M89.4799 123.12C89.4813 123.355 89.5523 123.584 89.6839 123.779C89.8155 123.974 90.0018 124.125 90.2193 124.214C90.4369 124.303 90.6759 124.326 90.9063 124.279C91.1366 124.232 91.348 124.118 91.5137 123.952C91.6794 123.785 91.792 123.573 91.8373 123.342C91.8826 123.112 91.8587 122.873 91.7684 122.656C91.6781 122.439 91.5256 122.253 91.3301 122.123C91.1346 121.992 90.9048 121.923 90.6698 121.923C90.5129 121.923 90.3576 121.954 90.2128 122.014C90.0679 122.074 89.9364 122.163 89.8259 122.274C89.7153 122.385 89.6278 122.517 89.5684 122.662C89.509 122.808 89.4789 122.963 89.4799 123.12Z" fill="#455A64"/>
<path d="M94.4816 124.31C95.1388 124.31 95.6715 123.777 95.6715 123.12C95.6715 122.463 95.1388 121.93 94.4816 121.93C93.8245 121.93 93.2917 122.463 93.2917 123.12C93.2917 123.777 93.8245 124.31 94.4816 124.31Z" fill="#455A64"/>
<path d="M98.2935 121.923C98.0565 121.921 97.8243 121.99 97.6266 122.121C97.4288 122.252 97.2742 122.438 97.1825 122.657C97.0908 122.875 97.0661 123.116 97.1115 123.349C97.1569 123.582 97.2703 123.796 97.4374 123.964C97.6046 124.132 97.8178 124.247 98.0502 124.293C98.2826 124.34 98.5237 124.317 98.7428 124.226C98.9619 124.136 99.1493 123.983 99.2812 123.786C99.413 123.589 99.4834 123.357 99.4834 123.12C99.4834 122.804 99.3583 122.5 99.1353 122.276C98.9124 122.052 98.6097 121.925 98.2935 121.923Z" fill="#455A64"/>
<path d="M161.7 136.123H144.6C145.442 135.82 146.206 135.333 146.837 134.698C147.392 134.143 147.831 133.484 148.131 132.759C148.43 132.034 148.584 131.257 148.583 130.473H140.745C141.222 130.269 141.632 129.935 141.928 129.509C142.224 129.083 142.395 128.583 142.42 128.065V112.254C142.418 112.162 142.381 112.074 142.315 112.009C142.25 111.944 142.163 111.907 142.071 111.905C142.025 111.905 141.979 111.914 141.937 111.931C141.895 111.949 141.856 111.975 141.824 112.007C141.791 112.04 141.766 112.078 141.748 112.12C141.73 112.163 141.721 112.208 141.721 112.254V128.093C141.721 129.276 140.467 130.231 138.928 130.231H51.004C49.4721 130.231 48.2109 129.269 48.2109 128.093V80.9033C48.2109 79.7206 49.4721 78.7658 51.004 78.7658H60.9079V104.181C60.907 104.227 60.9153 104.273 60.9325 104.316C60.9497 104.359 60.9754 104.398 61.008 104.43C61.0406 104.463 61.0795 104.489 61.1223 104.506C61.1651 104.523 61.2109 104.531 61.2571 104.53C61.3497 104.53 61.4385 104.494 61.5039 104.428C61.5694 104.363 61.6062 104.274 61.6062 104.181V39.7698C61.6062 39.0706 61.884 38.4001 62.3784 37.9057C62.8728 37.4113 63.5433 37.1335 64.2425 37.1335H78.8206C79.4392 37.136 80.0463 36.966 80.5737 36.6425C81.1011 36.319 81.5278 35.8549 81.806 35.3023L82.4686 33.9699C82.4904 33.929 82.5036 33.8841 82.5075 33.8379C82.5114 33.7917 82.5058 33.7452 82.4912 33.7012C82.4765 33.6572 82.453 33.6167 82.4222 33.582C82.3914 33.5474 82.3539 33.5194 82.3119 33.4997C82.2715 33.478 82.2271 33.4649 82.1814 33.4611C82.1357 33.4573 82.0898 33.4629 82.0463 33.4776C82.0029 33.4923 81.963 33.5158 81.929 33.5465C81.895 33.5773 81.8677 33.6147 81.8488 33.6564L81.179 34.9888C80.9569 35.4218 80.6186 35.7845 80.2021 36.0361C79.7855 36.2878 79.3072 36.4186 78.8206 36.4139H64.2425C63.3587 36.4158 62.5116 36.7677 61.8867 37.3926C61.2617 38.0176 60.9098 38.8646 60.9079 39.7484V54.2553C59.1695 53.997 57.4142 53.8684 55.6567 53.8705C46.7899 53.8739 38.2341 57.1389 31.6193 63.0435C25.0044 68.9481 20.7927 77.0797 19.7865 85.8892C18.7803 94.6988 21.0498 103.571 26.1628 110.815C31.2758 118.059 38.875 123.169 47.5126 125.172V128.086C47.5377 128.604 47.708 129.105 48.0041 129.531C48.3002 129.957 48.7101 130.29 49.1871 130.494H38.8556C38.8564 131.728 39.2389 132.932 39.9508 133.939C40.6626 134.947 41.6688 135.71 42.8314 136.123H37.7512C37.7053 136.123 37.6599 136.132 37.6176 136.15C37.5752 136.167 37.5367 136.193 37.5043 136.226C37.4719 136.258 37.4462 136.296 37.4286 136.339C37.4111 136.381 37.402 136.427 37.402 136.472C37.402 136.518 37.4111 136.563 37.4287 136.605C37.4464 136.647 37.4722 136.685 37.5047 136.717C37.5372 136.749 37.5758 136.774 37.6181 136.79C37.6604 136.807 37.7057 136.815 37.7512 136.814H161.729C161.815 136.809 161.895 136.772 161.955 136.71C162.014 136.648 162.048 136.565 162.05 136.48C162.05 136.433 162.042 136.387 162.025 136.344C162.008 136.301 161.982 136.261 161.95 136.228C161.917 136.195 161.878 136.169 161.836 136.151C161.793 136.133 161.747 136.123 161.7 136.123ZM90.4845 130.922H96.9826C96.8071 131.652 96.3912 132.301 95.8018 132.765C95.2125 133.23 94.4839 133.482 93.7335 133.482C92.9831 133.482 92.2546 133.23 91.6652 132.765C91.0758 132.301 90.6599 131.652 90.4845 130.922Z" fill="#455A64"/>
<path d="M32.4785 136.123H25.0184C24.9726 136.123 24.9272 136.132 24.8848 136.15C24.8425 136.167 24.804 136.193 24.7716 136.226C24.7392 136.258 24.7134 136.296 24.6959 136.339C24.6783 136.381 24.6693 136.427 24.6693 136.472C24.6693 136.518 24.6784 136.563 24.696 136.605C24.7136 136.647 24.7395 136.685 24.772 136.717C24.8045 136.749 24.8431 136.774 24.8854 136.79C24.9277 136.807 24.9729 136.815 25.0184 136.814H32.4785C32.524 136.815 32.5692 136.807 32.6116 136.79C32.6539 136.774 32.6924 136.749 32.7249 136.717C32.7575 136.685 32.7833 136.647 32.8009 136.605C32.8186 136.563 32.8276 136.518 32.8276 136.472C32.8276 136.427 32.8186 136.381 32.801 136.339C32.7835 136.296 32.7578 136.258 32.7254 136.226C32.6929 136.193 32.6544 136.167 32.6121 136.15C32.5697 136.132 32.5243 136.123 32.4785 136.123Z" fill="#455A64"/>
<path d="M89.2746 77.6059C90.1751 75.4318 89.1427 72.9394 86.9686 72.0389C84.7945 71.1383 82.3021 72.1707 81.4015 74.3448C80.501 76.5189 81.5334 79.0113 83.7075 79.9119C85.8816 80.8124 88.374 79.78 89.2746 77.6059Z" fill="#F87302"/>
<path d="M103.616 80.2336C105.969 80.2336 107.877 78.3259 107.877 75.9727C107.877 73.6195 105.969 71.7119 103.616 71.7119C101.263 71.7119 99.3553 73.6195 99.3553 75.9727C99.3553 78.3259 101.263 80.2336 103.616 80.2336Z" fill="#F87302"/>
<path d="M111.653 90.28C111.682 90.1163 111.675 89.9482 111.633 89.7875C111.59 89.6268 111.513 89.4774 111.406 89.3498C111.299 89.2222 111.166 89.1194 111.016 89.0487C110.865 88.978 110.701 88.9411 110.535 88.9405C110.264 88.9393 110.001 89.036 109.796 89.2127C109.59 89.3894 109.455 89.6343 109.416 89.9024C108.704 94.947 102.291 98.9086 94.4532 98.9086C86.6155 98.9086 80.2456 94.947 79.4904 89.9024C79.4509 89.6343 79.3161 89.3894 79.1106 89.2127C78.9051 89.036 78.6427 88.9393 78.3717 88.9405C78.2054 88.9411 78.0413 88.978 77.8908 89.0487C77.7403 89.1194 77.6071 89.2222 77.5005 89.3498C77.3939 89.4774 77.3165 89.6268 77.2738 89.7875C77.231 89.9482 77.224 90.1163 77.2531 90.28C78.2506 95.9802 85.5753 100.426 94.4318 100.426C103.288 100.426 110.656 95.9802 111.653 90.28Z" fill="#F87302"/>
<path d="M128.796 73.9706H127.307V72.631C127.307 72.5366 127.27 72.4459 127.203 72.3791C127.136 72.3123 127.046 72.2748 126.951 72.2748C126.857 72.2748 126.766 72.3123 126.699 72.3791C126.632 72.4459 126.595 72.5366 126.595 72.631V86.8172C126.595 86.9117 126.632 87.0023 126.699 87.0691C126.766 87.1359 126.857 87.1735 126.951 87.1735C127.046 87.1735 127.136 87.1359 127.203 87.0691C127.27 87.0023 127.307 86.9117 127.307 86.8172V84.4659H128.447C128.438 92.1055 125.417 99.4333 120.038 104.859C114.659 110.284 107.358 113.369 99.7187 113.444C99.6421 113.19 99.4856 112.968 99.2725 112.81C99.0594 112.652 98.8011 112.567 98.5359 112.568H93.5982C93.2713 112.568 92.9577 112.697 92.7266 112.929C92.4954 113.16 92.3655 113.473 92.3655 113.8C92.3655 114.127 92.4954 114.441 92.7266 114.672C92.9577 114.903 93.2713 115.033 93.5982 115.033H98.5359C98.8029 115.033 99.0626 114.945 99.2759 114.785C99.4892 114.624 99.6446 114.399 99.7187 114.142C107.543 114.067 115.022 110.909 120.532 105.352C126.041 99.7961 129.137 92.2907 129.146 84.4659C130.475 84.379 131.722 83.7894 132.632 82.8167C133.543 81.844 134.049 80.5612 134.048 79.2289C134.048 79.0722 134.048 78.9083 134.048 78.7515H138.957C140.496 78.7515 141.75 79.7134 141.75 80.8891V100.462C141.75 100.554 141.787 100.643 141.852 100.709C141.918 100.774 142.007 100.811 142.099 100.811C142.145 100.811 142.19 100.802 142.232 100.784C142.274 100.767 142.312 100.741 142.344 100.708C142.375 100.676 142.4 100.637 142.417 100.595C142.434 100.553 142.442 100.507 142.441 100.462V80.9033C142.441 79.3429 140.881 78.0533 138.957 78.0533H133.934C133.668 76.8905 133.015 75.8527 132.081 75.1107C131.148 74.3687 129.989 73.9666 128.796 73.9706Z" fill="#455A64"/>
<path d="M127.307 73.9706H128.796C129.989 73.9666 131.148 74.3687 132.081 75.1107C133.015 75.8527 133.668 76.8905 133.934 78.0533C133.934 78.0533 134.021 78.3489 134.04 78.6411C134.059 78.9333 134.048 79.2289 134.048 79.2289C134.049 80.5612 133.543 81.844 132.632 82.8167C131.722 83.7894 130.475 84.379 129.146 84.4659C129.137 92.2907 126.041 99.7961 120.532 105.352C115.022 110.909 107.543 114.067 99.7187 114.142C99.6446 114.399 99.4892 114.624 99.2759 114.785C99.0626 114.945 98.8029 115.033 98.5359 115.033H93.5982C93.2713 115.033 92.9577 114.903 92.7266 114.672C92.4954 114.441 92.3655 114.127 92.3655 113.8C92.3655 113.473 92.4954 113.16 92.7266 112.929C92.9577 112.697 93.2713 112.568 93.5982 112.568H98.5359C98.8011 112.567 99.0594 112.652 99.2725 112.81C99.4856 112.968 99.6421 113.19 99.7187 113.444C107.358 113.369 114.659 110.284 120.038 104.859C125.417 99.4333 128.438 92.1055 128.447 84.4659H127.307V86.8172C127.307 86.9117 127.27 87.0023 127.203 87.0691C127.136 87.1359 127.046 87.1735 126.951 87.1735C126.857 87.1735 126.766 87.1359 126.699 87.0691C126.632 87.0023 126.595 86.9117 126.595 86.8172V72.631C126.595 72.5366 126.632 72.4459 126.699 72.3791C126.766 72.3123 126.857 72.2748 126.951 72.2748C127.046 72.2748 127.136 72.3123 127.203 72.3791C127.27 72.4459 127.307 72.5366 127.307 72.631V73.9706Z" fill="#008CC8"/>
<path d="M144.429 123.433H147.279V126.283C147.279 126.329 147.288 126.374 147.306 126.416C147.323 126.458 147.349 126.496 147.382 126.528C147.414 126.56 147.453 126.585 147.495 126.601C147.537 126.618 147.583 126.626 147.628 126.625C147.673 126.626 147.718 126.618 147.76 126.601C147.802 126.585 147.84 126.559 147.872 126.527C147.904 126.495 147.929 126.457 147.946 126.415C147.963 126.374 147.971 126.329 147.97 126.283V123.433H150.82C150.866 123.433 150.911 123.424 150.953 123.407C150.995 123.389 151.033 123.363 151.065 123.331C151.097 123.298 151.122 123.26 151.138 123.217C151.155 123.175 151.163 123.13 151.162 123.084C151.163 123.039 151.155 122.994 151.138 122.952C151.121 122.91 151.096 122.872 151.064 122.84C151.032 122.808 150.994 122.783 150.952 122.766C150.91 122.749 150.865 122.741 150.82 122.742H147.97V119.892C147.971 119.847 147.963 119.801 147.946 119.759C147.929 119.717 147.904 119.678 147.873 119.646C147.841 119.613 147.803 119.587 147.761 119.57C147.719 119.552 147.674 119.543 147.628 119.543C147.536 119.543 147.447 119.58 147.381 119.645C147.316 119.711 147.279 119.8 147.279 119.892V122.742H144.429C144.384 122.741 144.339 122.749 144.297 122.766C144.255 122.783 144.217 122.808 144.185 122.84C144.153 122.872 144.128 122.91 144.111 122.952C144.094 122.994 144.086 123.039 144.087 123.084C144.086 123.13 144.094 123.175 144.111 123.217C144.128 123.26 144.153 123.298 144.185 123.331C144.216 123.363 144.254 123.389 144.296 123.407C144.338 123.424 144.383 123.433 144.429 123.433Z" fill="#455A64"/>
<path d="M97.1323 23.5458C97.2249 23.5458 97.3137 23.509 97.3791 23.4436C97.4446 23.3781 97.4814 23.2893 97.4814 23.1967V21.052C97.4814 20.9575 97.4439 20.8669 97.377 20.8001C97.3102 20.7333 97.2196 20.6958 97.1251 20.6958C97.0306 20.6958 96.94 20.7333 96.8732 20.8001C96.8064 20.8669 96.7689 20.9575 96.7689 21.052V23.1896C96.7679 23.2372 96.7766 23.2846 96.7946 23.3288C96.8126 23.3729 96.8395 23.4129 96.8735 23.4463C96.9076 23.4797 96.9481 23.5057 96.9926 23.5228C97.0371 23.54 97.0846 23.5478 97.1323 23.5458Z" fill="#455A64"/>
<path d="M98.8422 25.2559H100.98C101.074 25.2559 101.165 25.2184 101.232 25.1516C101.298 25.0848 101.336 24.9941 101.336 24.8997C101.336 24.8052 101.298 24.7146 101.232 24.6477C101.165 24.5809 101.074 24.5434 100.98 24.5434H98.8422C98.7477 24.5434 98.6571 24.5809 98.5903 24.6477C98.5235 24.7146 98.486 24.8052 98.486 24.8997C98.486 24.9941 98.5235 25.0848 98.5903 25.1516C98.6571 25.2184 98.7477 25.2559 98.8422 25.2559Z" fill="#455A64"/>
<path d="M97.1322 29.1035C97.2248 29.1035 97.3136 29.0667 97.3791 29.0012C97.4446 28.9358 97.4814 28.847 97.4814 28.7544V26.6168C97.4814 26.5223 97.4438 26.4317 97.377 26.3649C97.3102 26.2981 97.2196 26.2606 97.1251 26.2606C97.0306 26.2606 96.94 26.2981 96.8732 26.3649C96.8064 26.4317 96.7689 26.5223 96.7689 26.6168V28.7544C96.7688 28.8014 96.7783 28.848 96.7967 28.8913C96.8152 28.9347 96.8422 28.9738 96.8761 29.0064C96.91 29.039 96.9502 29.0644 96.9942 29.0811C97.0383 29.0978 97.0852 29.1054 97.1322 29.1035Z" fill="#455A64"/>
<path d="M93.2846 25.2559H95.4221C95.5166 25.2559 95.6072 25.2184 95.6741 25.1516C95.7409 25.0848 95.7784 24.9941 95.7784 24.8997C95.7784 24.8052 95.7409 24.7146 95.6741 24.6477C95.6072 24.5809 95.5166 24.5434 95.4221 24.5434H93.2846C93.1901 24.5434 93.0995 24.5809 93.0327 24.6477C92.9659 24.7146 92.9283 24.8052 92.9283 24.8997C92.9283 24.9941 92.9659 25.0848 93.0327 25.1516C93.0995 25.2184 93.1901 25.2559 93.2846 25.2559Z" fill="#455A64"/>
</svg>
