<svg width="182" height="144" viewBox="0 0 182 144" fill="none" xmlns="http://www.w3.org/2000/svg">
<path d="M148.659 16.8876H99.2321V20.4715H148.659V16.8876Z" fill="#333333"/>
<path d="M148.659 23.2646H99.2321V26.8485H148.659V23.2646Z" fill="#333333"/>
<path d="M148.659 29.6416H99.2321V33.2256H148.659V29.6416Z" fill="#333333"/>
<path d="M147.861 91.1673C147.427 90.4548 146.928 89.5713 145.895 89.5713C144.861 89.5713 144.37 90.4192 143.935 91.1673C143.501 91.9154 143.166 92.4071 142.581 92.4071C142.407 92.4079 142.237 92.3584 142.09 92.2646V84.2131H148.659V80.6506H142.09V79.5106C142.085 78.9058 141.865 78.3224 141.47 77.8646H148.659V74.3021H126.414V71.5019H148.659V67.9393H126.115V70.6469H126.058C125.964 70.6487 125.875 70.6868 125.808 70.7532C125.742 70.8196 125.704 70.9092 125.702 71.0031V85.7237C125.704 85.8169 125.742 85.9057 125.809 85.971C125.875 86.0363 125.965 86.0728 126.058 86.0728C126.105 86.0738 126.151 86.0654 126.194 86.0483C126.237 86.0312 126.276 86.0056 126.31 85.9731C126.343 85.9406 126.369 85.9018 126.387 85.859C126.405 85.8161 126.414 85.7701 126.414 85.7237V84.2987H141.377V91.4523C141.327 91.3668 141.27 91.2813 141.22 91.1887C140.786 90.4762 140.287 89.5926 139.254 89.5926C138.221 89.5926 137.729 90.4405 137.287 91.1887C136.846 91.9368 136.518 92.4284 135.934 92.4284C135.349 92.4284 135.036 91.9582 134.587 91.1887C134.138 90.4192 133.654 89.5926 132.62 89.5926C132.526 89.5926 132.435 89.6302 132.369 89.697C132.302 89.7638 132.264 89.8544 132.264 89.9489C132.264 90.0434 132.302 90.134 132.369 90.2008C132.435 90.2676 132.526 90.3052 132.62 90.3052C133.205 90.3052 133.518 90.7754 133.974 91.5449C134.43 92.3145 134.9 93.141 135.934 93.141C136.967 93.141 137.466 92.2931 137.9 91.5449C138.335 90.7968 138.67 90.3052 139.254 90.3052C139.838 90.3052 140.152 90.7754 140.608 91.5449C140.816 91.9382 141.074 92.3023 141.377 92.628V99.7887C141.377 99.8832 141.415 99.9738 141.482 100.041C141.548 100.107 141.639 100.145 141.734 100.145C141.828 100.145 141.919 100.107 141.985 100.041C142.052 99.9738 142.09 99.8832 142.09 99.7887V93.0412C142.249 93.0903 142.415 93.1167 142.581 93.1196C143.615 93.1196 144.106 92.2717 144.541 91.5236C144.975 90.7754 145.31 90.2838 145.895 90.2838C146.479 90.2838 146.799 90.754 147.248 91.5236C147.697 92.2931 148.182 93.1196 149.215 93.1196C150.248 93.1196 150.747 92.2717 151.181 91.5236C151.616 90.7754 151.951 90.2838 152.542 90.2838C153.134 90.2838 153.44 90.754 153.896 91.5236C154.352 92.2931 154.83 93.1196 155.863 93.1196C155.957 93.1196 156.048 93.0821 156.115 93.0153C156.181 92.9484 156.219 92.8578 156.219 92.7633C156.219 92.6688 156.181 92.5782 156.115 92.5114C156.048 92.4446 155.957 92.4071 155.863 92.4071C155.278 92.4071 154.958 91.9368 154.509 91.1673C154.06 90.3978 153.576 89.5713 152.542 89.5713C151.509 89.5713 151.01 90.4192 150.576 91.1673C150.141 91.9154 149.799 92.4071 149.215 92.4071C148.631 92.4071 148.317 91.9368 147.861 91.1673ZM126.414 80.6292V77.8433H140.415C140.699 78.0171 140.936 78.2582 141.105 78.5452C141.274 78.8322 141.37 79.1564 141.384 79.4892V80.6292H126.414Z" fill="#333333"/>
<path d="M28.1301 94.9009L24.7243 98.3067C24.6754 98.3565 24.6423 98.4195 24.629 98.488C24.6156 98.5564 24.6227 98.6273 24.6492 98.6918C24.6758 98.7563 24.7207 98.8115 24.7783 98.8507C24.836 98.8899 24.9039 98.9114 24.9736 98.9123C25.0699 98.9121 25.1622 98.8737 25.2301 98.8055L28.6288 95.4068C28.6622 95.3737 28.6887 95.3342 28.7068 95.2908C28.7249 95.2474 28.7342 95.2009 28.7342 95.1538C28.7342 95.1068 28.7249 95.0602 28.7068 95.0168C28.6887 94.9734 28.6622 94.934 28.6288 94.9009C28.5622 94.8356 28.4727 94.799 28.3795 94.799C28.2862 94.799 28.1967 94.8356 28.1301 94.9009Z" fill="#333333"/>
<path d="M35.4405 98.8055L38.8463 95.4068C38.9121 95.339 38.9488 95.2483 38.9488 95.1538C38.9488 95.0594 38.9121 94.9687 38.8463 94.9009C38.7797 94.8356 38.6902 94.799 38.597 94.799C38.5037 94.799 38.4142 94.8356 38.3476 94.9009L34.9133 98.3067C34.8724 98.3373 34.8386 98.3764 34.8142 98.4212C34.7898 98.466 34.7753 98.5155 34.7716 98.5665C34.768 98.6174 34.7754 98.6685 34.7932 98.7163C34.8111 98.7641 34.839 98.8075 34.8751 98.8436C34.9112 98.8797 34.9546 98.9076 35.0024 98.9255C35.0503 98.9433 35.1014 98.9507 35.1523 98.9471C35.2032 98.9435 35.2527 98.9289 35.2975 98.9045C35.3423 98.8801 35.3814 98.8463 35.412 98.8055H35.4405Z" fill="#333333"/>
<path d="M48.5579 94.9009L45.1521 98.3067C45.1033 98.3565 45.0701 98.4195 45.0568 98.488C45.0435 98.5564 45.0505 98.6273 45.0771 98.6918C45.1036 98.7563 45.1485 98.8115 45.2062 98.8507C45.2638 98.89 45.3318 98.9114 45.4015 98.9124C45.4978 98.9121 45.59 98.8737 45.658 98.8055L49.0638 95.4068C49.097 95.3736 49.1234 95.3341 49.1414 95.2907C49.1593 95.2473 49.1686 95.2008 49.1686 95.1538C49.1686 95.1069 49.1593 95.0603 49.1414 95.0169C49.1234 94.9735 49.097 94.9341 49.0638 94.9009C49.0306 94.8677 48.9912 94.8413 48.9478 94.8233C48.9044 94.8054 48.8578 94.7961 48.8109 94.7961C48.7639 94.7961 48.7174 94.8054 48.674 94.8233C48.6306 94.8413 48.5911 94.8677 48.5579 94.9009V94.9009Z" fill="#333333"/>
<path d="M156.269 63.1868H151.623V67.8324H156.269V63.1868Z" fill="#333333"/>
<path d="M103.985 92.2361H79.1961V94.5589H103.985V92.2361Z" fill="#008CC8"/>
<path d="M112.499 106.173H70.6744V108.496H112.499V106.173Z" fill="#008CC8"/>
<path d="M112.499 109.272H70.6744V111.595H112.499V109.272Z" fill="#008CC8"/>
<path d="M112.499 96.8817H70.6744V103.85H112.499V96.8817Z" fill="#008CC8"/>
<path d="M89.6558 34.1091H122.959C123.32 34.1072 123.677 34.1769 124.011 34.314C124.344 34.4512 124.648 34.6532 124.903 34.9083C125.158 35.1634 125.36 35.4666 125.497 35.8003C125.634 36.1339 125.704 36.4915 125.702 36.8523V65.5096C125.702 65.6041 125.74 65.6947 125.806 65.7615C125.873 65.8284 125.964 65.8659 126.058 65.8659C126.153 65.8659 126.243 65.8284 126.31 65.7615C126.377 65.6947 126.414 65.6041 126.414 65.5096V65.0892H148.659V61.5267H126.414V58.7407H148.659V55.114H126.414V52.3423H148.659V48.7798H126.414V45.9725H148.659V42.4099H126.414V39.5954H148.659V36.0329H126.308C126.119 35.2869 125.688 34.6249 125.081 34.1514C124.475 33.6779 123.728 33.4198 122.959 33.4179H89.6558C89.5613 33.4179 89.4707 33.4555 89.4039 33.5223C89.3371 33.5891 89.2996 33.6797 89.2996 33.7742C89.305 33.8649 89.3449 33.9501 89.4112 34.0124C89.4774 34.0747 89.5649 34.1092 89.6558 34.1091Z" fill="#333333"/>
<path d="M81.9393 34.1091H84.0127C84.6209 34.1064 85.2179 33.9444 85.7441 33.6394C86.2704 33.3344 86.7076 32.897 87.0124 32.3706L89.214 28.5087C89.2434 28.4684 89.2639 28.4224 89.2743 28.3736C89.2847 28.3249 89.2848 28.2745 89.2745 28.2257C89.2642 28.177 89.2438 28.1309 89.2146 28.0905C89.1854 28.0501 89.1481 28.0163 89.105 27.9912C89.0619 27.9661 89.014 27.9504 88.9645 27.945C88.9149 27.9396 88.8648 27.9447 88.8173 27.9599C88.7698 27.9751 88.7261 28.0001 88.6889 28.0333C88.6516 28.0664 88.6218 28.107 88.6013 28.1525L86.3925 32.0143C86.1533 32.4344 85.8071 32.7836 85.389 33.0264C84.971 33.2692 84.4961 33.397 84.0127 33.3966H81.9393C81.8448 33.3966 81.7542 33.4341 81.6874 33.5009C81.6205 33.5677 81.583 33.6584 81.583 33.7528C81.583 33.8473 81.6205 33.9379 81.6874 34.0048C81.7542 34.0716 81.8448 34.1091 81.9393 34.1091Z" fill="#333333"/>
<path d="M62.1527 39.9517C62.1528 40.3335 62.2656 40.7067 62.477 41.0246C62.6885 41.3425 62.9891 41.5909 63.3411 41.7386C63.6932 41.8862 64.081 41.9266 64.4559 41.8547C64.8309 41.7828 65.1762 41.6017 65.4486 41.3342C65.721 41.0667 65.9084 40.7247 65.9871 40.3512C66.0659 39.9776 66.0325 39.5891 65.8913 39.2344C65.7501 38.8797 65.5072 38.5746 65.1932 38.3575C64.8792 38.1403 64.5081 38.0207 64.1264 38.0137C63.8686 38.0079 63.6124 38.0539 63.3727 38.1488C63.133 38.2438 62.9147 38.3857 62.7308 38.5664C62.5468 38.747 62.4009 38.9626 62.3016 39.2006C62.2023 39.4385 62.1517 39.6939 62.1527 39.9517V39.9517Z" fill="#333333"/>
<path d="M70.2896 41.8898C71.36 41.8898 72.2276 41.0221 72.2276 39.9517C72.2276 38.8814 71.36 38.0137 70.2896 38.0137C69.2193 38.0137 68.3516 38.8814 68.3516 39.9517C68.3516 41.0221 69.2193 41.8898 70.2896 41.8898Z" fill="#333333"/>
<path d="M78.4194 39.9517C78.4208 39.5678 78.3082 39.1921 78.0958 38.8723C77.8833 38.5525 77.5807 38.303 77.2263 38.1554C76.8719 38.0079 76.4816 37.9689 76.105 38.0434C75.7284 38.118 75.3824 38.3027 75.111 38.5742C74.8395 38.8456 74.6548 39.1916 74.5802 39.5682C74.5057 39.9448 74.5447 40.3351 74.6922 40.6895C74.8398 41.0439 75.0893 41.3465 75.4091 41.559C75.7289 41.7714 76.1046 41.884 76.4885 41.8826C77.0006 41.8826 77.4917 41.6792 77.8539 41.3171C78.216 40.9549 78.4194 40.4638 78.4194 39.9517Z" fill="#333333"/>
<path d="M116.375 50.0196H66.8054V82.553H116.375V50.0196Z" fill="#F87302"/>
<path d="M141.741 103.95C141.694 103.949 141.648 103.957 141.605 103.974C141.562 103.991 141.522 104.017 141.489 104.05C141.456 104.082 141.43 104.121 141.412 104.164C141.394 104.207 141.384 104.253 141.384 104.299V107.527C141.384 107.621 141.422 107.712 141.489 107.779C141.556 107.845 141.646 107.883 141.741 107.883C141.835 107.883 141.926 107.845 141.993 107.779C142.059 107.712 142.097 107.621 142.097 107.527V104.278C142.091 104.188 142.051 104.103 141.985 104.042C141.918 103.981 141.831 103.948 141.741 103.95V103.95Z" fill="#333333"/>
<path d="M118.071 38.0137C117.377 37.4018 116.481 37.0683 115.556 37.0773C114.631 37.0864 113.741 37.4374 113.059 38.0627C112.378 38.688 111.951 39.5435 111.862 40.4645C111.773 41.3855 112.028 42.3068 112.577 43.0512V43.0512L109.727 45.9012C109.693 45.9332 109.666 45.9718 109.648 46.0147C109.629 46.0576 109.619 46.1039 109.619 46.1506C109.619 46.1973 109.629 46.2436 109.648 46.2865C109.666 46.3294 109.693 46.368 109.727 46.4C109.759 46.4342 109.798 46.4614 109.841 46.4798C109.884 46.4982 109.93 46.5074 109.977 46.5069C110.023 46.5066 110.069 46.497 110.112 46.4786C110.155 46.4603 110.194 46.4335 110.226 46.4L113.076 43.5499C113.825 44.0976 114.75 44.3482 115.673 44.2532C116.596 44.1582 117.45 43.7244 118.072 43.0356C118.693 42.3468 119.037 41.4521 119.037 40.5245C119.037 39.5969 118.693 38.7022 118.071 38.0137V38.0137ZM115.428 43.7138C114.721 43.7176 114.035 43.476 113.487 43.0304C112.939 42.5847 112.563 41.9626 112.422 41.2703C112.282 40.5781 112.386 39.8585 112.718 39.2346C113.049 38.6106 113.586 38.121 114.238 37.8493C114.89 37.5776 115.617 37.5407 116.293 37.7449C116.969 37.9491 117.553 38.3817 117.946 38.9689C118.339 39.556 118.515 40.2613 118.446 40.9643C118.377 41.6672 118.065 42.3243 117.565 42.8232C117.285 43.1049 116.952 43.3286 116.585 43.4814C116.218 43.6343 115.825 43.7132 115.428 43.7138V43.7138Z" fill="#008CC8"/>
<path d="M87.1763 123.309C87.1763 123.554 87.2492 123.794 87.3857 123.998C87.5223 124.202 87.7163 124.361 87.9433 124.455C88.1702 124.549 88.4199 124.573 88.6606 124.524C88.9013 124.476 89.1221 124.357 89.2952 124.183C89.4683 124.009 89.5859 123.787 89.6329 123.546C89.6799 123.305 89.6543 123.056 89.5594 122.829C89.4645 122.603 89.3045 122.41 89.0997 122.275C88.8948 122.139 88.6544 122.068 88.4089 122.069C88.2465 122.069 88.0856 122.101 87.9356 122.164C87.7856 122.226 87.6494 122.317 87.5348 122.433C87.4202 122.548 87.3296 122.685 87.2681 122.835C87.2065 122.985 87.1754 123.146 87.1763 123.309V123.309Z" fill="#333333"/>
<path d="M91.1307 123.309C91.1307 123.554 91.2036 123.794 91.3401 123.998C91.4767 124.202 91.6707 124.361 91.8977 124.455C92.1246 124.549 92.3743 124.573 92.615 124.524C92.8557 124.476 93.0765 124.357 93.2496 124.183C93.4227 124.009 93.5403 123.787 93.5873 123.546C93.6343 123.305 93.6087 123.056 93.5138 122.829C93.4189 122.603 93.2589 122.41 93.0541 122.275C92.8492 122.139 92.6089 122.068 92.3634 122.069C92.2006 122.068 92.0393 122.1 91.8888 122.162C91.7384 122.224 91.6018 122.315 91.4871 122.431C91.3723 122.546 91.2817 122.683 91.2205 122.834C91.1593 122.985 91.1288 123.146 91.1307 123.309Z" fill="#333333"/>
<path d="M95.0852 123.309C95.0866 123.552 95.1601 123.79 95.2964 123.992C95.4327 124.194 95.6257 124.35 95.851 124.443C96.0764 124.535 96.324 124.558 96.5626 124.51C96.8013 124.461 97.0202 124.344 97.1919 124.171C97.3636 123.998 97.4803 123.779 97.5273 123.54C97.5743 123.301 97.5494 123.053 97.4559 122.828C97.3624 122.604 97.2045 122.412 97.0019 122.276C96.7993 122.141 96.5613 122.069 96.3178 122.069C96.1551 122.068 95.9938 122.1 95.8433 122.162C95.6929 122.224 95.5563 122.315 95.4415 122.431C95.3268 122.546 95.2362 122.683 95.175 122.834C95.1138 122.985 95.0833 123.146 95.0852 123.309Z" fill="#333333"/>
<path d="M148.816 98.5775C148.129 98.5761 147.458 98.7784 146.886 99.1588C146.315 99.5392 145.869 100.081 145.605 100.715C145.341 101.348 145.272 102.046 145.405 102.72C145.538 103.394 145.868 104.013 146.353 104.499C146.838 104.985 147.456 105.316 148.129 105.45C148.803 105.585 149.501 105.516 150.135 105.254C150.77 104.991 151.312 104.547 151.693 103.976C152.075 103.405 152.279 102.734 152.279 102.047C152.279 101.128 151.914 100.247 151.265 99.5963C150.616 98.9458 149.735 98.5793 148.816 98.5775V98.5775ZM148.816 104.798C148.27 104.799 147.736 104.638 147.281 104.336C146.827 104.034 146.472 103.603 146.263 103.099C146.053 102.595 145.998 102.04 146.104 101.504C146.21 100.969 146.473 100.477 146.859 100.09C147.245 99.7044 147.737 99.4417 148.273 99.3355C148.808 99.2293 149.363 99.2845 149.867 99.4941C150.371 99.7037 150.802 100.058 151.105 100.513C151.407 100.967 151.568 101.501 151.566 102.047C151.566 102.777 151.276 103.476 150.761 103.992C150.245 104.508 149.545 104.798 148.816 104.798V104.798Z" fill="#333333"/>
<path d="M88.0527 20.2578C88.1466 20.256 88.2361 20.2178 88.3026 20.1514C88.369 20.085 88.4071 19.9954 88.4089 19.9015V17.536C88.4071 17.4427 88.3687 17.3539 88.3021 17.2887C88.2355 17.2234 88.1459 17.1868 88.0527 17.1868C88.0062 17.1859 87.9601 17.1942 87.9169 17.2113C87.8737 17.2285 87.8344 17.254 87.8012 17.2865C87.768 17.3191 87.7416 17.3579 87.7237 17.4007C87.7057 17.4435 87.6964 17.4895 87.6964 17.536V19.9015C87.6964 19.996 87.7339 20.0866 87.8008 20.1534C87.8676 20.2202 87.9582 20.2578 88.0527 20.2578Z" fill="#333333"/>
<path d="M89.9409 22.1459H92.2993C92.3938 22.1459 92.4844 22.1084 92.5512 22.0416C92.618 21.9748 92.6555 21.8842 92.6555 21.7897C92.6555 21.6952 92.618 21.6046 92.5512 21.5378C92.4844 21.4709 92.3938 21.4334 92.2993 21.4334H89.9409C89.8464 21.4334 89.7558 21.4709 89.6889 21.5378C89.6221 21.6046 89.5846 21.6952 89.5846 21.7897C89.5864 21.8836 89.6245 21.9731 89.691 22.0396C89.7574 22.106 89.8469 22.1441 89.9409 22.1459Z" fill="#333333"/>
<path d="M88.0527 26.3925C88.1459 26.3926 88.2355 26.356 88.3021 26.2907C88.3687 26.2254 88.4071 26.1366 88.4089 26.0434V23.6779C88.4071 23.5839 88.369 23.4944 88.3026 23.428C88.2361 23.3615 88.1466 23.3234 88.0527 23.3216C87.9582 23.3216 87.8676 23.3591 87.8008 23.4259C87.7339 23.4928 87.6964 23.5834 87.6964 23.6779V26.0434C87.6964 26.0899 87.7057 26.1358 87.7237 26.1787C87.7416 26.2215 87.768 26.2603 87.8012 26.2928C87.8344 26.3253 87.8737 26.3509 87.9169 26.368C87.9601 26.3852 88.0062 26.3935 88.0527 26.3925V26.3925Z" fill="#333333"/>
<path d="M83.7989 22.1459H86.1645C86.2577 22.1441 86.3465 22.1057 86.4118 22.0391C86.4771 21.9725 86.5136 21.8829 86.5136 21.7897C86.5145 21.7432 86.5062 21.6971 86.4891 21.6539C86.472 21.6107 86.4464 21.5714 86.4139 21.5382C86.3814 21.505 86.3426 21.4786 86.2997 21.4607C86.2569 21.4427 86.2109 21.4334 86.1645 21.4334H83.7989C83.7525 21.4334 83.7065 21.4427 83.6636 21.4607C83.6208 21.4786 83.582 21.505 83.5495 21.5382C83.517 21.5714 83.4914 21.6107 83.4743 21.6539C83.4572 21.6971 83.4488 21.7432 83.4498 21.7897C83.4498 21.8829 83.4863 21.9725 83.5516 22.0391C83.6169 22.1057 83.7057 22.1441 83.7989 22.1459Z" fill="#333333"/>
<path d="M162.097 136.804H144.37C145.584 136.383 146.636 135.594 147.381 134.547C148.126 133.5 148.525 132.246 148.524 130.961H140.366C140.86 130.751 141.285 130.405 141.591 129.964C141.897 129.523 142.073 129.004 142.097 128.467V112.037C142.097 111.942 142.059 111.852 141.993 111.785C141.926 111.718 141.835 111.681 141.741 111.681C141.646 111.681 141.556 111.718 141.489 111.785C141.422 111.852 141.384 111.942 141.384 112.037V128.503C141.384 129.729 140.081 130.726 138.477 130.726H47.2754C45.6722 130.726 44.3683 129.729 44.3683 128.503V79.4892C44.3683 78.2636 45.6722 77.2661 47.2754 77.2661H57.5427V103.629C57.5427 103.724 57.5803 103.814 57.6471 103.881C57.7139 103.948 57.8045 103.985 57.899 103.985C57.9935 103.985 58.0841 103.948 58.1509 103.881C58.2177 103.814 58.2553 103.724 58.2553 103.629V36.8522C58.2553 36.1247 58.5443 35.427 59.0587 34.9125C59.5732 34.3981 60.2709 34.1091 60.9984 34.1091H76.1251C76.7674 34.111 77.3974 33.9332 77.9439 33.5958C78.4904 33.2583 78.9316 32.7747 79.2175 32.1995L79.93 30.7745C79.97 30.6911 79.976 30.5954 79.9468 30.5076C79.9175 30.4199 79.8553 30.3469 79.7732 30.3042C79.7317 30.2823 79.6863 30.269 79.6396 30.265C79.5928 30.2611 79.5458 30.2666 79.5012 30.2812C79.4567 30.2959 79.4155 30.3193 79.3802 30.3502C79.345 30.3811 79.3162 30.4188 79.2958 30.461L78.5833 31.8433C78.3566 32.3009 78.0061 32.6858 77.5715 32.954C77.137 33.2223 76.6358 33.3633 76.1251 33.3609H73.5031C71.3445 30.3697 68.4539 27.983 65.1083 26.4294C61.7627 24.8759 58.0742 24.2076 54.3962 24.4885C50.7182 24.7695 47.174 25.9903 44.1031 28.034C41.0323 30.0777 38.5378 32.8758 36.8586 36.1601C35.1794 39.4445 34.3718 43.105 34.5133 46.791C34.6547 50.477 35.7403 54.065 37.6662 57.211C39.5921 60.3571 42.2937 62.9558 45.512 64.7582C48.7304 66.5606 52.3577 67.5063 56.0465 67.5047C56.5523 67.5047 57.0511 67.5047 57.5499 67.4477V76.518H47.2683C45.2732 76.518 43.6558 77.8361 43.6558 79.4535V128.503C43.6801 129.04 43.8555 129.559 44.1618 130C44.4682 130.441 44.893 130.787 45.3872 130.997H34.6567C34.656 132.281 35.0549 133.533 35.7979 134.58C36.541 135.627 37.5915 136.417 38.8036 136.84H33.4882C33.3937 136.84 33.3031 136.877 33.2363 136.944C33.1695 137.011 33.132 137.101 33.132 137.196C33.132 137.29 33.1695 137.381 33.2363 137.448C33.3031 137.515 33.3937 137.552 33.4882 137.552H162.097C162.192 137.552 162.282 137.515 162.349 137.448C162.416 137.381 162.454 137.29 162.454 137.196C162.459 137.146 162.453 137.096 162.437 137.049C162.422 137.001 162.396 136.957 162.363 136.921C162.329 136.884 162.288 136.854 162.242 136.834C162.197 136.814 162.147 136.804 162.097 136.804ZM88.2165 131.403H94.964C94.7819 132.161 94.35 132.835 93.738 133.317C93.126 133.799 92.3695 134.062 91.5903 134.062C90.8111 134.062 90.0546 133.799 89.4426 133.317C88.8306 132.835 88.3987 132.161 88.2165 131.403Z" fill="#333333"/>
<path d="M28.0446 136.804H20.3067C20.2122 136.804 20.1216 136.841 20.0548 136.908C19.988 136.975 19.9504 137.066 19.9504 137.16C19.9504 137.255 19.988 137.345 20.0548 137.412C20.1216 137.479 20.2122 137.516 20.3067 137.516H28.0446C28.1391 137.516 28.2297 137.479 28.2965 137.412C28.3633 137.345 28.4009 137.255 28.4009 137.16C28.4009 137.066 28.3633 136.975 28.2965 136.908C28.2297 136.841 28.1391 136.804 28.0446 136.804Z" fill="#333333"/>
</svg>
