<?xml version="1.0" encoding="UTF-8" standalone="no"?>
<svg
   width="182"
   height="144"
   viewBox="0 0 182 144"
   fill="none"
   version="1.1"
   id="svg2246"
   sodipodi:docname="doc-processing-hover.svg"
   inkscape:version="1.1 (c68e22c387, 2021-05-23)"
   xmlns:inkscape="http://www.inkscape.org/namespaces/inkscape"
   xmlns:sodipodi="http://sodipodi.sourceforge.net/DTD/sodipodi-0.dtd"
   xmlns="http://www.w3.org/2000/svg"
   xmlns:svg="http://www.w3.org/2000/svg">
  <defs
     id="defs2250" />
  <sodipodi:namedview
     id="namedview2248"
     pagecolor="#ffffff"
     bordercolor="#666666"
     borderopacity="1.0"
     inkscape:pageshadow="2"
     inkscape:pageopacity="0.0"
     inkscape:pagecheckerboard="0"
     showgrid="false"
     showguides="true"
     inkscape:guide-bbox="true"
     inkscape:zoom="90.509668"
     inkscape:cx="145.01766"
     inkscape:cy="103.78449"
     inkscape:window-width="1920"
     inkscape:window-height="1001"
     inkscape:window-x="-9"
     inkscape:window-y="-9"
     inkscape:window-maximized="1"
     inkscape:current-layer="svg2246" />
  <path
     d="m 156.88932,77.8701 v -3.557631 l -30.47532,-0.0104 v -2.8002 l 30.47532,0.02637 v -3.579728 l -30.77432,-0.0092 v 2.7076 h -0.057 c -0.094,0.0018 -0.183,0.0399 -0.25,0.1063 -0.066,0.0664 -0.104,0.156 -0.106,0.2499 v 14.7206 c 0.002,0.0932 0.04,0.182 0.107,0.2473 0.066,0.0653 0.156,0.1018 0.249,0.1018 0.047,0.001 0.093,-0.0074 0.136,-0.0245 0.043,-0.0171 0.082,-0.0427 0.116,-0.0752 0.033,-0.0325 0.059,-0.0713 0.077,-0.1141 0.018,-0.0429 0.027,-0.0889 0.027,-0.1353 -0.19116,-3.713584 -0.0892,-5.626393 -0.0757,-7.044091 0.009,-0.946493 0.26566,-0.69453 1.61731,-0.701742 28.65392,-0.152903 -1.24421,-0.05958 28.93372,-0.107778 z"
     fill="#333333"
     id="path2192"
     sodipodi:nodetypes="ccccccccccccccscccssc" />
  <path
     d="M35.4405 98.8055L38.8463 95.4068C38.9121 95.339 38.9488 95.2483 38.9488 95.1538C38.9488 95.0594 38.9121 94.9687 38.8463 94.9009C38.7797 94.8356 38.6902 94.799 38.597 94.799C38.5037 94.799 38.4142 94.8356 38.3476 94.9009L34.9133 98.3067C34.8724 98.3373 34.8386 98.3764 34.8142 98.4212C34.7898 98.466 34.7753 98.5155 34.7716 98.5665C34.768 98.6174 34.7754 98.6685 34.7932 98.7163C34.8111 98.7641 34.839 98.8075 34.8751 98.8436C34.9112 98.8797 34.9546 98.9076 35.0024 98.9255C35.0503 98.9433 35.1014 98.9507 35.1523 98.9471C35.2032 98.9435 35.2527 98.9289 35.2975 98.9045C35.3423 98.8801 35.3814 98.8463 35.412 98.8055H35.4405Z"
     fill="#333333"
     id="path2196" />
  <path
     d="M48.5579 94.9009L45.1521 98.3067C45.1033 98.3565 45.0701 98.4195 45.0568 98.488C45.0435 98.5564 45.0505 98.6273 45.0771 98.6918C45.1036 98.7563 45.1485 98.8115 45.2062 98.8507C45.2638 98.89 45.3318 98.9114 45.4015 98.9124C45.4978 98.9121 45.59 98.8737 45.658 98.8055L49.0638 95.4068C49.097 95.3736 49.1234 95.3341 49.1414 95.2907C49.1593 95.2473 49.1686 95.2008 49.1686 95.1538C49.1686 95.1069 49.1593 95.0603 49.1414 95.0169C49.1234 94.9735 49.097 94.9341 49.0638 94.9009C49.0306 94.8677 48.9912 94.8413 48.9478 94.8233C48.9044 94.8054 48.8578 94.7961 48.8109 94.7961C48.7639 94.7961 48.7174 94.8054 48.674 94.8233C48.6306 94.8413 48.5911 94.8677 48.5579 94.9009V94.9009Z"
     fill="#333333"
     id="path2198" />
  <path
     d="m 89.654452,34.1091 h 33.177138 c 0.35963,-0.0019 0.71528,0.0678 1.04802,0.2049 0.33174,0.1372 0.63459,0.3392 0.88862,0.5943 0.25404,0.2551 0.45527,0.5583 0.59175,0.892 0.13648,0.3336 0.20622,0.6912 0.20423,1.052 v 28.6573 c 0,0.0945 0.0378,0.1851 0.1036,0.2519 0.0667,0.0669 0.15741,0.1044 0.25105,0.1044 0.0946,0 0.1843,-0.0375 0.25105,-0.1044 0.0667,-0.0668 0.1036,-0.1574 0.1036,-0.2519 v -0.4204 l 30.61581,0.0045 v -3.59375 l -30.61581,0.0267 v -2.786 -3.62665 -2.7717 -3.5625 -2.8073 -3.5626 c -0.24638,-4.98e-4 0.68832,-7.666132 -1.32795,-8.2585 -0.60371,-0.4735 -1.34788,-0.7316 -2.11397,-0.7335 H 89.654452 c -0.09414,0 -0.1844,0.0376 -0.250947,0.1044 -0.06655,0.0668 -0.103905,0.1574 -0.103905,0.2519 0.0054,0.0907 0.04513,0.1759 0.111178,0.2382 0.06595,0.0623 0.153118,0.0968 0.243674,0.0967 z"
     fill="#333333"
     id="path2210"
     sodipodi:nodetypes="cccsccscscsccccccccccccssccc"
     style="stroke-width:0.998106" />
  <path
     d="M81.9393 34.1091H84.0127C84.6209 34.1064 85.2179 33.9444 85.7441 33.6394C86.2704 33.3344 86.7076 32.897 87.0124 32.3706L89.214 28.5087C89.2434 28.4684 89.2639 28.4224 89.2743 28.3736C89.2847 28.3249 89.2848 28.2745 89.2745 28.2257C89.2642 28.177 89.2438 28.1309 89.2146 28.0905C89.1854 28.0501 89.1481 28.0163 89.105 27.9912C89.0619 27.9661 89.014 27.9504 88.9645 27.945C88.9149 27.9396 88.8648 27.9447 88.8173 27.9599C88.7698 27.9751 88.7261 28.0001 88.6889 28.0333C88.6516 28.0664 88.6218 28.107 88.6013 28.1525L86.3925 32.0143C86.1533 32.4344 85.8071 32.7836 85.389 33.0264C84.971 33.2692 84.4961 33.397 84.0127 33.3966H81.9393C81.8448 33.3966 81.7542 33.4341 81.6874 33.5009C81.6205 33.5677 81.583 33.6584 81.583 33.7528C81.583 33.8473 81.6205 33.9379 81.6874 34.0048C81.7542 34.0716 81.8448 34.1091 81.9393 34.1091Z"
     fill="#333333"
     id="path2212" />
  <path
     d="M62.1527 39.9517C62.1528 40.3335 62.2656 40.7067 62.477 41.0246C62.6885 41.3425 62.9891 41.5909 63.3411 41.7386C63.6932 41.8862 64.081 41.9266 64.4559 41.8547C64.8309 41.7828 65.1762 41.6017 65.4486 41.3342C65.721 41.0667 65.9084 40.7247 65.9871 40.3512C66.0659 39.9776 66.0325 39.5891 65.8913 39.2344C65.7501 38.8797 65.5072 38.5746 65.1932 38.3575C64.8792 38.1403 64.5081 38.0207 64.1264 38.0137C63.8686 38.0079 63.6124 38.0539 63.3727 38.1488C63.133 38.2438 62.9147 38.3857 62.7308 38.5664C62.5468 38.747 62.4009 38.9626 62.3016 39.2006C62.2023 39.4385 62.1517 39.6939 62.1527 39.9517V39.9517Z"
     fill="#333333"
     id="path2214" />
  <path
     d="M70.2896 41.8898C71.36 41.8898 72.2276 41.0221 72.2276 39.9517C72.2276 38.8814 71.36 38.0137 70.2896 38.0137C69.2193 38.0137 68.3516 38.8814 68.3516 39.9517C68.3516 41.0221 69.2193 41.8898 70.2896 41.8898Z"
     fill="#333333"
     id="path2216" />
  <path
     d="M78.4194 39.9517C78.4208 39.5678 78.3082 39.1921 78.0958 38.8723C77.8833 38.5525 77.5807 38.303 77.2263 38.1554C76.8719 38.0079 76.4816 37.9689 76.105 38.0434C75.7284 38.118 75.3824 38.3027 75.111 38.5742C74.8395 38.8456 74.6548 39.1916 74.5802 39.5682C74.5057 39.9448 74.5447 40.3351 74.6922 40.6895C74.8398 41.0439 75.0893 41.3465 75.4091 41.559C75.7289 41.7714 76.1046 41.884 76.4885 41.8826C77.0006 41.8826 77.4917 41.6792 77.8539 41.3171C78.216 40.9549 78.4194 40.4638 78.4194 39.9517Z"
     fill="#333333"
     id="path2218" />
  <path
     d="M 110.55104,78.851481 H 73.231444 v 25.809689 h 37.319596 z"
     fill="#f87302"
     id="path2220"
     style="stroke-width:0.772836" />
  <path
     d="m 44.183909,78.607911 c 0.8125,-0.977437 0.706253,-0.684445 1.568813,-1.648949 L 57.5427,77.2661 v 24.36195 c -8.15e-4,0.0441 0.0067,0.0882 0.02229,0.12941 0.01558,0.0412 0.03886,0.0786 0.0684,0.10927 0.02953,0.0316 0.06477,0.0566 0.103548,0.0729 0.03877,0.0163 0.08036,0.024 0.12212,0.023 0.08389,0 0.164336,-0.0345 0.223584,-0.0978 C 57.5499,76.518 57.982011,42.858155 58.26145,53.708875 56.686575,53.46128 54.37764,53.400509 52.785462,53.402522 44.752732,53.405822 37.001747,56.535474 31.009179,62.195378 25.01652,67.855257 21.201,75.649871 20.28945,84.09429 c -0.91155,8.444518 1.144466,16.94904 5.776503,23.89285 4.632038,6.9438 10.27897,11.66525 18.10406,13.58524 0.222818,-13.88344 -0.576904,-10.0855 -0.162881,-25.640353 z"
     fill="#333333"
     id="path8177"
     sodipodi:nodetypes="ccccscscccccssccc"
     style="stroke-width:0.931874" />
  <path
     d="m 141.741,96.137838 c -0.047,-0.0049 -0.093,0.03444 -0.136,0.118084 -0.043,0.08365 -0.083,0.211572 -0.116,0.373943 -0.033,0.157444 -0.059,0.349341 -0.077,0.560914 -0.018,0.211574 -0.028,0.437908 -0.028,0.664241 v 15.88275 c 0,0.46251 0.038,0.91024 0.105,1.23991 0.067,0.32474 0.157,0.51171 0.252,0.51171 0.094,0 0.185,-0.18697 0.252,-0.51171 0.066,-0.32967 0.104,-0.7774 0.104,-1.23991 V 97.751695 c -0.006,-0.442828 -0.046,-0.861054 -0.112,-1.161193 -0.067,-0.300137 -0.154,-0.462508 -0.244,-0.452667 z"
     fill="#333333"
     id="path2222"
     style="stroke-width:2.21818" />
  <path
     d="m 118.97822,38.639644 c -0.73148,-0.66183 -1.67588,-1.022543 -2.65083,-1.012809 -0.97496,0.0098 -1.91303,0.389483 -2.63186,1.065807 -0.71779,0.676324 -1.16784,1.601631 -1.26165,2.597783 -0.0938,0.996153 0.17496,1.99263 0.75361,2.797772 v 0 l -3.00392,3.082555 c -0.0359,0.03462 -0.0643,0.07636 -0.0833,0.122762 -0.02,0.0464 -0.0306,0.09648 -0.0306,0.146989 0,0.05051 0.0106,0.100589 0.0306,0.146989 0.019,0.0464 0.0475,0.08815 0.0833,0.122762 0.0338,0.03699 0.0748,0.06641 0.12015,0.08631 0.0453,0.0199 0.0938,0.02985 0.14335,0.02931 0.0485,-3.25e-4 0.097,-0.01071 0.1423,-0.03061 0.0453,-0.01979 0.0864,-0.04878 0.12016,-0.08501 l 3.00391,-3.082664 c 0.78946,0.592392 1.76442,0.863441 2.73727,0.760689 0.97285,-0.102753 1.87297,-0.57195 2.52857,-1.316955 0.65454,-0.745005 1.01712,-1.712711 1.01712,-2.716002 0,-1.003291 -0.36258,-1.970997 -1.01818,-2.715678 z m -2.78574,6.16522 c -0.74519,0.0041 -1.46824,-0.257204 -2.04584,-0.739165 -0.57759,-0.482069 -0.9739,-1.154931 -1.12252,-1.903721 -0.14755,-0.748683 -0.038,-1.527001 0.312,-2.20181 0.34887,-0.674918 0.91487,-1.204469 1.60208,-1.498339 0.68722,-0.29387 1.45349,-0.333781 2.166,-0.112919 0.7125,0.220862 1.32805,0.688762 1.74228,1.323877 0.41422,0.635007 0.59973,1.397857 0.52699,2.158222 -0.0727,0.760255 -0.40158,1.470974 -0.92858,2.010584 -0.29512,0.304685 -0.64611,0.546639 -1.03292,0.711907 -0.38683,0.165376 -0.80105,0.250715 -1.21949,0.251364 z"
     fill="#008cc8"
     id="path2224"
     style="stroke-width:1.06772" />
  <path
     d="M87.1763 123.309C87.1763 123.554 87.2492 123.794 87.3857 123.998C87.5223 124.202 87.7163 124.361 87.9433 124.455C88.1702 124.549 88.4199 124.573 88.6606 124.524C88.9013 124.476 89.1221 124.357 89.2952 124.183C89.4683 124.009 89.5859 123.787 89.6329 123.546C89.6799 123.305 89.6543 123.056 89.5594 122.829C89.4645 122.603 89.3045 122.41 89.0997 122.275C88.8948 122.139 88.6544 122.068 88.4089 122.069C88.2465 122.069 88.0856 122.101 87.9356 122.164C87.7856 122.226 87.6494 122.317 87.5348 122.433C87.4202 122.548 87.3296 122.685 87.2681 122.835C87.2065 122.985 87.1754 123.146 87.1763 123.309V123.309Z"
     fill="#333333"
     id="path2226" />
  <path
     d="M91.1307 123.309C91.1307 123.554 91.2036 123.794 91.3401 123.998C91.4767 124.202 91.6707 124.361 91.8977 124.455C92.1246 124.549 92.3743 124.573 92.615 124.524C92.8557 124.476 93.0765 124.357 93.2496 124.183C93.4227 124.009 93.5403 123.787 93.5873 123.546C93.6343 123.305 93.6087 123.056 93.5138 122.829C93.4189 122.603 93.2589 122.41 93.0541 122.275C92.8492 122.139 92.6089 122.068 92.3634 122.069C92.2006 122.068 92.0393 122.1 91.8888 122.162C91.7384 122.224 91.6018 122.315 91.4871 122.431C91.3723 122.546 91.2817 122.683 91.2205 122.834C91.1593 122.985 91.1288 123.146 91.1307 123.309Z"
     fill="#333333"
     id="path2228" />
  <path
     d="M95.0852 123.309C95.0866 123.552 95.1601 123.79 95.2964 123.992C95.4327 124.194 95.6257 124.35 95.851 124.443C96.0764 124.535 96.324 124.558 96.5626 124.51C96.8013 124.461 97.0202 124.344 97.1919 124.171C97.3636 123.998 97.4803 123.779 97.5273 123.54C97.5743 123.301 97.5494 123.053 97.4559 122.828C97.3624 122.604 97.2045 122.412 97.0019 122.276C96.7993 122.141 96.5613 122.069 96.3178 122.069C96.1551 122.068 95.9938 122.1 95.8433 122.162C95.6929 122.224 95.5563 122.315 95.4415 122.431C95.3268 122.546 95.2362 122.683 95.175 122.834C95.1138 122.985 95.0833 123.146 95.0852 123.309Z"
     fill="#333333"
     id="path2230" />
  <path
     d="M 162.097,136.804 H 144.37 c 1.214,-0.421 2.266,-1.21 3.011,-2.257 0.745,-1.047 1.144,-2.301 1.143,-3.586 h -8.158 c 0.494,-0.21 0.919,-0.556 1.225,-0.997 0.306,-0.441 0.482,-0.96 0.506,-1.497 v -16.43 c 0,-0.095 -0.038,-0.185 -0.104,-0.252 -0.067,-0.067 -0.158,-0.104 -0.252,-0.104 -0.095,0 -0.185,0.037 -0.252,0.104 -0.067,0.067 -0.105,0.157 -0.105,0.252 v 16.466 c 0,1.226 -1.303,2.223 -2.907,2.223 H 47.2754 c -1.6032,0 -2.9071,-0.997 -2.9071,-2.223 V 79.4892 c 0,-1.2256 1.3039,-2.2231 2.9071,-2.2231 h 10.2673 v 26.3629 c 0,0.095 0.0376,0.185 0.1044,0.252 0.0668,0.067 0.1574,0.104 0.2519,0.104 0.0945,0 0.1851,-0.037 0.2519,-0.104 0.0668,-0.067 0.1044,-0.157 0.1044,-0.252 V 36.8522 c 0,-0.7275 0.289,-1.4252 0.8034,-1.9397 0.5145,-0.5144 0.649713,-0.705303 1.3772,-0.70965 L 76.1251,34.1091 c 0.6423,0.0019 1.2723,-0.1759 1.8188,-0.5133 0.5465,-0.3375 0.9877,-0.8211 1.2736,-1.3963 l 0.7125,-1.425 c 0.04,-0.0834 0.046,-0.1791 0.0168,-0.2669 -0.0293,-0.0877 -0.0915,-0.1607 -0.1736,-0.2034 -0.0415,-0.0219 -0.0869,-0.0352 -0.1336,-0.0392 -0.0468,-0.0039 -0.0938,0.0016 -0.1384,0.0162 -0.0445,0.0147 -0.0857,0.0381 -0.121,0.069 -0.0352,0.0309 -0.064,0.0686 -0.0844,0.1108 l -0.7125,1.3823 c -0.2267,0.4576 -0.5772,0.8425 -1.0118,1.1107 -0.4345,0.2683 -0.9357,0.4093 -1.4464,0.4069 L 59.72185,33.57965 C 58.256,34.319774 58.216612,34.353303 57.7374,35.6352 L 57.5499,76.518 H 47.2683 c -1.9951,0 -3.6125,1.3181 -3.6125,2.9355 v 49.0495 c 0.0243,0.537 0.1997,1.056 0.506,1.497 0.3064,0.441 0.7312,0.787 1.2254,0.997 H 34.6567 c -7e-4,1.284 0.3982,2.536 1.1412,3.583 0.7431,1.047 1.7936,1.837 3.0057,2.26 h -5.3154 c -0.0945,0 -0.1851,0.037 -0.2519,0.104 -0.0668,0.067 -0.1043,0.157 -0.1043,0.252 0,0.094 0.0375,0.185 0.1043,0.252 0.0668,0.067 0.1574,0.104 0.2519,0.104 H 162.097 c 0.095,0 0.185,-0.037 0.252,-0.104 0.067,-0.067 0.105,-0.158 0.105,-0.252 0.005,-0.05 -0.001,-0.1 -0.017,-0.147 -0.015,-0.048 -0.041,-0.092 -0.074,-0.128 -0.034,-0.037 -0.075,-0.067 -0.121,-0.087 -0.045,-0.02 -0.095,-0.03 -0.145,-0.03 z m -73.8805,-5.401 h 6.7475 c -0.1821,0.758 -0.614,1.432 -1.226,1.914 -0.612,0.482 -1.3685,0.745 -2.1477,0.745 -0.7792,0 -1.5357,-0.263 -2.1477,-0.745 -0.612,-0.482 -1.0439,-1.156 -1.2261,-1.914 z"
     fill="#333333"
     id="path2242"
     sodipodi:nodetypes="scsccscscssssssssscsssssscsccccccccccccccccssccccccsssssssccccsccsssc" />
  <path
     d="M28.0446 136.804H20.3067C20.2122 136.804 20.1216 136.841 20.0548 136.908C19.988 136.975 19.9504 137.066 19.9504 137.16C19.9504 137.255 19.988 137.345 20.0548 137.412C20.1216 137.479 20.2122 137.516 20.3067 137.516H28.0446C28.1391 137.516 28.2297 137.479 28.2965 137.412C28.3633 137.345 28.4009 137.255 28.4009 137.16C28.4009 137.066 28.3633 136.975 28.2965 136.908C28.2297 136.841 28.1391 136.804 28.0446 136.804Z"
     fill="#333333"
     id="path2244" />
  <path
     d="M 89.08278,58.146132 H 66.9481 v 2.333188 h 22.13468 z"
     fill="#333333"
     id="path2186-6"
     style="stroke-width:0.539947" />
  <path
     d="M 69.571437,110.4341 V 60.47932 H 66.9481 v 49.95478 z"
     fill="#333333"
     id="path3227-2"
     style="stroke-width:0.860109" />
  <path
     d="M 116.7164,108.48807 H 67.289502 v 2.29699 H 116.7164 Z"
     fill="#333333"
     id="path3229"
     style="stroke-width:0.800573" />
  <path
     d="M 116.8768,110.52534 V 78.750458 h -2.44206 v 31.774882 z"
     fill="#333333"
     id="path3227-2-5-9"
     style="stroke-width:0.661849" />
  <g
     inkscape:groupmode="layer"
     id="layer1"
     inkscape:label="Layer 1">
    <path
       d="m 114.72696,59.470196 h -1.522 q -0.158,-0.443 -0.361,-0.873 l 1.08,-1.08 a 2,2 0 0 0 0,-2.824 l -1.42,-1.42 a 2,2 0 0 0 -2.824,0 l -1.08,1.08 q -0.431,-0.2 -0.873,-0.361 v -1.522 a 2,2 0 0 0 -2,-2 h -2 a 2,2 0 0 0 -2,2 v 1.522 q -0.443,0.157 -0.873,0.361 l -1.08,-1.08 a 2,2 0 0 0 -2.823999,0 l -1.42,1.42 a 2,2 0 0 0 0,2.824 l 1.08,1.08 q -0.2,0.431 -0.361,0.873 h -1.522 a 2,2 0 0 0 -2,2 v 2 a 2,2 0 0 0 2,2 h 1.522 q 0.157,0.443 0.361,0.873 l -1.08,1.08 a 2,2 0 0 0 0,2.824 l 1.42,1.42 a 2,2 0 0 0 2.823999,0 l 1.08,-1.08 q 0.431,0.2 0.873,0.361 v 1.522 a 2,2 0 0 0 2,2 h 2 a 2,2 0 0 0 2,-2 v -1.522 q 0.443,-0.158 0.873,-0.361 l 1.08,1.08 a 2,2 0 0 0 2.824,0 l 1.42,-1.42 a 2,2 0 0 0 0,-2.824 l -1.08,-1.08 q 0.2,-0.431 0.361,-0.873 h 1.522 a 2,2 0 0 0 2,-2 v -2 a 2,2 0 0 0 -2,-2 z m 0,4 h -2.26 a 1,1 0 0 0 -0.968,0.748 7.273,7.273 0 0 1 -0.748,1.812 1,1 0 0 0 0.159,1.207 l 1.6,1.6 -1.416,1.42 -1.6,-1.6 a 1,1 0 0 0 -1.207,-0.159 7.273,7.273 0 0 1 -1.812,0.748 1,1 0 0 0 -0.748,0.964 v 2.26 h -2 v -2.26 a 1,1 0 0 0 -0.748,-0.968 7.273,7.273 0 0 1 -1.812,-0.748 1,1 0 0 0 -1.207,0.159 l -1.6,1.6 -1.419999,-1.416 1.599999,-1.6 a 1,1 0 0 0 0.159,-1.207 7.273,7.273 0 0 1 -0.747999,-1.812 1,1 0 0 0 -0.964,-0.748 h -2.26 v -2 h 2.26 a 1,1 0 0 0 0.968,-0.748 7.273,7.273 0 0 1 0.747999,-1.812 1,1 0 0 0 -0.159,-1.207 l -1.599999,-1.6 1.415999,-1.42 1.6,1.6 a 1,1 0 0 0 1.207,0.159 7.273,7.273 0 0 1 1.812,-0.748 1,1 0 0 0 0.748,-0.964 v -2.26 h 2 v 2.26 a 1,1 0 0 0 0.748,0.968 7.273,7.273 0 0 1 1.812,0.748 1,1 0 0 0 1.207,-0.159 l 1.6,-1.6 1.42,1.416 -1.6,1.6 a 1,1 0 0 0 -0.159,1.207 7.273,7.273 0 0 1 0.748,1.812 1,1 0 0 0 0.964,0.748 h 2.26 z"
       id="path18"
       style="fill:#333333;fill-opacity:1" />
    <path
       d="m 106.125,87.500001 a 4,4 0 1 0 4,4 4,4 0 0 0 -4,-4 z m 0,6 a 2,2 0 1 1 2,-2 2,2 0 0 1 -2,2 z"
       id="path20" />
  </g>
  <path
     d="m 104.55115,58.388195 a 4,4 0 1 0 4,4 4,4 0 0 0 -4,-4 z m 0,6 a 2,2 0 1 1 2,-2 2,2 0 0 1 -2,2 z"
     id="path20-8"
     style="fill:#333333;fill-opacity:1" />
  <path
     d="m 142.09,105.5771 v -11.614 c 0,0 -15.98912,-0.32876 0,0 v -1.14 c -0.005,-0.6048 -0.225,-1.1882 -0.62,-1.646 l 15.41932,0.0055 v -3.557631 l -30.47532,-0.0104 v -2.8002 l 30.47532,0.02637 v -3.579728 l -30.77432,-0.0092 v 2.7076 h -0.057 c -0.094,0.0018 -0.183,0.0399 -0.25,0.1063 -0.066,0.0664 -0.104,0.156 -0.106,0.2499 v 14.7206 c 0.002,0.0932 0.04,0.182 0.107,0.2473 0.066,0.0653 0.156,0.101799 0.249,0.101799 0.047,10e-4 0.093,-0.007 0.136,-0.0245 0.043,-0.0171 0.082,-0.0427 0.116,-0.0752 0.033,-0.0325 0.059,-0.0713 0.077,-0.1141 0.018,-0.0429 0.027,-0.0889 0.027,-0.1353 v -5.0945 h 14.97 l -0.007,10.8231 c 0,1.1757 0.003,-0.35542 0,1.1757 v 7.1607 c 0,0.0945 0.038,0.1851 0.105,0.2523 0.066,0.066 0.157,0.104 0.252,0.104 0.094,0 0.185,-0.038 0.251,-0.104 0.067,-0.0672 0.105,-0.1578 0.105,-0.2523 v -6.7475 c 0,-0.77661 0,0 0,-0.77661 z M 126.414,93.9417 v -2.7859 h 14.001 c 0.284,0.1738 0.521,0.4149 0.69,0.7019 0.169,0.287 0.265,0.6112 0.279,0.944 v 1.14 z"
     fill="#333333"
     id="path20368"
     sodipodi:nodetypes="cccccccccccccccccccsccsccccscscsccccscccc" />
</svg>
