<svg width="182" height="144" viewBox="0 0 182 144" fill="none" xmlns="http://www.w3.org/2000/svg">
<path d="M113.421 12.8554L93.5894 32.6873L95.4645 34.5624L115.296 14.7305L113.421 12.8554Z" fill="#333333"/>
<path d="M116.757 16.1897L96.9255 36.0216L98.8006 37.8967L118.632 18.0649L116.757 16.1897Z" fill="#333333"/>
<path d="M146.751 46.1791L126.919 66.011L128.794 67.8861L148.626 48.0542L146.751 46.1791Z" fill="#333333"/>
<path d="M150.082 49.5185L130.25 69.3503L132.125 71.2254L151.957 51.3936L150.082 49.5185Z" fill="#333333"/>
<path d="M143.524 67.8088C144.399 67.9723 145.394 68.1572 146.211 67.3325C147.029 66.5078 146.851 65.5196 146.688 64.6451C146.524 63.7707 146.41 63.1379 146.972 62.5763C147.534 62.0147 148.223 62.1497 149.034 62.299C149.844 62.4483 150.904 62.6403 151.728 61.8227C151.761 61.7896 151.788 61.7502 151.806 61.7069C151.824 61.6636 151.833 61.6172 151.833 61.5703C151.833 61.5235 151.824 61.477 151.806 61.4337C151.788 61.3904 151.761 61.3511 151.728 61.318C151.695 61.2848 151.656 61.2585 151.612 61.2406C151.569 61.2226 151.523 61.2134 151.476 61.2134C151.429 61.2134 151.383 61.2226 151.339 61.2406C151.296 61.2585 151.257 61.2848 151.224 61.318C150.669 61.8796 149.972 61.7516 149.162 61.6023C148.351 61.453 147.292 61.254 146.467 62.0787C145.643 62.9033 145.835 63.8915 145.991 64.7731C146.147 65.6547 146.268 66.2803 145.714 66.8348C145.159 67.3894 144.455 67.2614 143.652 67.1121C142.849 66.9628 141.782 66.7637 140.958 67.5884C140.133 68.4131 140.325 69.4013 140.488 70.2758C140.652 71.1502 140.766 71.783 140.211 72.3375C139.657 72.892 138.96 72.764 138.149 72.6147C137.339 72.4654 136.28 72.2664 135.455 73.0911C134.63 73.9158 134.822 74.904 134.986 75.7784C135.149 76.6529 135.263 77.2856 134.708 77.8401C134.154 78.3947 133.45 78.2667 132.647 78.1174C131.843 77.9681 130.777 77.7761 129.952 78.5937C129.904 78.6434 129.87 78.7063 129.857 78.7746C129.844 78.8429 129.851 78.9136 129.877 78.9779C129.904 79.0423 129.949 79.0974 130.006 79.1366C130.064 79.1757 130.132 79.1971 130.201 79.198C130.297 79.1978 130.389 79.1594 130.457 79.0914C131.012 78.5368 131.708 78.6648 132.519 78.8141C133.329 78.9634 134.389 79.1625 135.206 78.3449C136.024 77.5273 135.846 76.5249 135.682 75.6504C135.519 74.776 135.398 74.1433 135.96 73.5887C136.521 73.0342 137.211 73.1622 138.021 73.3115C138.832 73.4608 139.891 73.6598 140.709 72.8351C141.526 72.0104 141.349 71.0222 141.185 70.1478C141.022 69.2733 140.901 68.6406 141.462 68.0861C142.024 67.5315 142.714 67.6595 143.524 67.8088Z" fill="#333333"/>
<path d="M145.941 96.6089C145.941 96.7032 145.979 96.7936 146.045 96.8603C146.112 96.9269 146.202 96.9644 146.297 96.9644C146.391 96.9644 146.481 96.9269 146.548 96.8603C146.615 96.7936 146.652 96.7032 146.652 96.6089C146.652 95.9551 146.846 95.3159 147.209 94.7723C147.573 94.2286 148.089 93.8049 148.693 93.5547C149.297 93.3045 149.962 93.239 150.603 93.3666C151.244 93.4941 151.833 93.809 152.296 94.2713C152.758 94.7336 153.073 95.3227 153.2 95.964C153.328 96.6052 153.263 97.2699 153.012 97.874C152.762 98.4781 152.338 98.9944 151.795 99.3576C151.251 99.7209 150.612 99.9148 149.958 99.9148C149.864 99.9148 149.773 99.9522 149.707 100.019C149.64 100.086 149.603 100.176 149.603 100.27C149.603 100.365 149.64 100.455 149.707 100.522C149.773 100.588 149.864 100.626 149.958 100.626C150.753 100.626 151.529 100.39 152.19 99.9487C152.85 99.5074 153.365 98.88 153.669 98.1461C153.973 97.4121 154.053 96.6044 153.898 95.8253C153.743 95.0461 153.36 94.3304 152.798 93.7686C152.237 93.2068 151.521 92.8243 150.742 92.6693C149.963 92.5143 149.155 92.5938 148.421 92.8979C147.687 93.2019 147.06 93.7167 146.618 94.3773C146.177 95.0378 145.941 95.8145 145.941 96.6089V96.6089Z" fill="#333333"/>
<path d="M51.7207 30.9822C51.815 30.9822 51.9054 30.9448 51.972 30.8781C52.0387 30.8115 52.0762 30.721 52.0762 30.6268V28.2736C52.0762 28.1793 52.0387 28.0889 51.972 28.0222C51.9054 27.9555 51.815 27.9181 51.7207 27.9181C51.6264 27.9181 51.536 27.9555 51.4693 28.0222C51.4027 28.0889 51.3652 28.1793 51.3652 28.2736V30.6197C51.3633 30.6672 51.3711 30.7146 51.3882 30.759C51.4052 30.8034 51.4312 30.8439 51.4645 30.8778C51.4978 30.9118 51.5377 30.9386 51.5818 30.9565C51.6259 30.9745 51.6731 30.9832 51.7207 30.9822V30.9822Z" fill="#333333"/>
<path d="M53.6118 32.8662H55.965C56.0593 32.8662 56.1497 32.8288 56.2164 32.7621C56.283 32.6954 56.3205 32.605 56.3205 32.5107C56.3205 32.4165 56.283 32.3261 56.2164 32.2594C56.1497 32.1927 56.0593 32.1553 55.965 32.1553H53.6118C53.5175 32.1553 53.4271 32.1927 53.3605 32.2594C53.2938 32.3261 53.2563 32.4165 53.2563 32.5107C53.2563 32.605 53.2938 32.6954 53.3605 32.7621C53.4271 32.8288 53.5175 32.8662 53.6118 32.8662Z" fill="#333333"/>
<path d="M51.7207 37.1105C51.815 37.1105 51.9054 37.0731 51.972 37.0064C52.0387 36.9397 52.0762 36.8493 52.0762 36.7551V34.4019C52.0762 34.3076 52.0387 34.2172 51.972 34.1505C51.9054 34.0838 51.815 34.0464 51.7207 34.0464C51.6264 34.0464 51.536 34.0838 51.4693 34.1505C51.4027 34.2172 51.3652 34.3076 51.3652 34.4019V36.7551C51.3642 36.802 51.3728 36.8487 51.3903 36.8922C51.4078 36.9358 51.434 36.9754 51.4672 37.0086C51.5004 37.0418 51.54 37.0679 51.5835 37.0854C51.6271 37.103 51.6737 37.1115 51.7207 37.1105Z" fill="#333333"/>
<path d="M47.4835 32.8662H49.8367C49.931 32.8662 50.0214 32.8288 50.0881 32.7621C50.1547 32.6954 50.1922 32.605 50.1922 32.5107C50.1922 32.4165 50.1547 32.3261 50.0881 32.2594C50.0214 32.1927 49.931 32.1553 49.8367 32.1553H47.4835C47.3892 32.1553 47.2988 32.1927 47.2322 32.2594C47.1655 32.3261 47.1281 32.4165 47.1281 32.5107C47.1281 32.605 47.1655 32.6954 47.2322 32.7621C47.2988 32.8288 47.3892 32.8662 47.4835 32.8662Z" fill="#333333"/>
<path d="M33.9117 47.9452C35.5287 47.9452 37.1094 47.4657 38.4539 46.5673C39.7984 45.669 40.8463 44.3921 41.4651 42.8981C42.0839 41.4042 42.2458 39.7603 41.9304 38.1744C41.6149 36.5885 40.8363 35.1317 39.6928 33.9883C38.5494 32.8449 37.0927 32.0662 35.5067 31.7507C33.9208 31.4353 32.2769 31.5972 30.783 32.216C29.289 32.8348 28.0121 33.8827 27.1138 35.2272C26.2154 36.5717 25.7359 38.1524 25.7359 39.7694C25.7359 41.9378 26.5973 44.0173 28.1305 45.5506C29.6638 47.0838 31.7433 47.9452 33.9117 47.9452ZM33.9117 32.3046C35.3878 32.306 36.8304 32.745 38.057 33.5661C39.2837 34.3872 40.2393 35.5535 40.8032 36.9177C41.3671 38.2818 41.514 39.7825 41.2251 41.2301C40.9363 42.6777 40.2248 44.0071 39.1805 45.0504C38.1363 46.0936 36.8061 46.8039 35.3583 47.0913C33.9104 47.3788 32.4099 47.2306 31.0463 46.6653C29.6827 46.1001 28.5172 45.1433 27.6973 43.9159C26.8774 42.6885 26.4397 41.2455 26.4397 39.7694C26.4416 37.789 27.2297 35.8903 28.6307 34.4905C30.0318 33.0908 31.9312 32.3046 33.9117 32.3046V32.3046Z" fill="#333333"/>
<path d="M89.0663 40.4661H122.281C122.463 40.4667 122.644 40.4858 122.822 40.523C123.175 40.5939 123.511 40.734 123.81 40.9354C124.109 41.1367 124.365 41.3952 124.563 41.6961C124.862 42.1418 125.021 42.6667 125.018 43.2032V71.8043C125.018 71.8985 125.056 71.989 125.122 72.0556C125.189 72.1223 125.28 72.1597 125.374 72.1597C125.468 72.1597 125.559 72.1223 125.625 72.0556C125.692 71.989 125.729 71.8985 125.729 71.8043V64.2754L145.28 44.7318L143.403 42.8549L125.729 60.5288V57.6353L141.946 41.4188L140.055 39.5206L125.744 53.8602V50.9453L138.633 38.0632L136.756 36.1863L125.744 47.1987V44.2768L135.291 34.7289L133.422 32.8591L125.082 41.1913C124.673 40.6088 124.087 40.1728 123.412 39.9471L131.943 31.4159L130.102 29.5248L119.864 39.7623H116.949L128.644 28.0674L126.767 26.1905L113.181 39.7623H110.266L125.296 24.7331L123.419 22.8562L106.52 39.7623H103.605L121.961 21.3775L120.092 19.5077L100.242 39.3571L100.647 39.7623H89.0663C88.972 39.7623 88.8816 39.7998 88.8149 39.8664C88.7482 39.9331 88.7108 40.0235 88.7108 40.1178C88.7108 40.212 88.7482 40.3025 88.8149 40.3691C88.8816 40.4358 88.972 40.4732 89.0663 40.4732V40.4661Z" fill="#333333"/>
<path d="M81.3383 40.4661H83.4071C84.0148 40.467 84.6118 40.307 85.1375 40.0023C85.6632 39.6976 86.0989 39.2591 86.4002 38.7315L88.6041 34.8782C88.6483 34.7957 88.6589 34.6994 88.6337 34.6093C88.6086 34.5192 88.5496 34.4423 88.469 34.3947C88.387 34.3487 88.29 34.337 88.1994 34.3624C88.1088 34.3877 88.0319 34.4479 87.9856 34.5298L85.7888 38.3831C85.5467 38.8009 85.1995 39.148 84.7817 39.39C84.3639 39.632 83.89 39.7603 83.4071 39.7623H81.3383C81.244 39.7623 81.1536 39.7998 81.087 39.8664C81.0203 39.9331 80.9828 40.0235 80.9828 40.1178C80.9828 40.2121 81.0203 40.3025 81.087 40.3691C81.1536 40.4358 81.244 40.4732 81.3383 40.4732V40.4661Z" fill="#333333"/>
<path d="M61.6312 46.2958C61.6312 46.6783 61.7446 47.0521 61.9571 47.3701C62.1695 47.6881 62.4716 47.936 62.8249 48.0824C63.1782 48.2287 63.5671 48.267 63.9422 48.1924C64.3173 48.1178 64.6618 47.9336 64.9323 47.6632C65.2027 47.3927 65.3869 47.0482 65.4615 46.6731C65.5361 46.298 65.4978 45.9091 65.3515 45.5558C65.2051 45.2024 64.9572 44.9004 64.6392 44.688C64.3212 44.4755 63.9474 44.3621 63.5649 44.3621C63.0521 44.3621 62.5602 44.5658 62.1975 44.9284C61.8349 45.2911 61.6312 45.7829 61.6312 46.2958V46.2958Z" fill="#333333"/>
<path d="M71.6767 46.2958C71.6767 45.9134 71.5633 45.5395 71.3508 45.2215C71.1383 44.9035 70.8363 44.6556 70.483 44.5093C70.1296 44.3629 69.7408 44.3246 69.3657 44.3992C68.9906 44.4738 68.646 44.658 68.3756 44.9284C68.1051 45.1989 67.921 45.5434 67.8464 45.9186C67.7717 46.2937 67.81 46.6825 67.9564 47.0358C68.1028 47.3892 68.3506 47.6912 68.6686 47.9037C68.9866 48.1162 69.3605 48.2296 69.743 48.2296C70.2558 48.2296 70.7477 48.0258 71.1103 47.6632C71.473 47.3005 71.6767 46.8087 71.6767 46.2958Z" fill="#333333"/>
<path d="M75.9281 48.2296C76.9961 48.2296 77.8619 47.3638 77.8619 46.2958C77.8619 45.2278 76.9961 44.3621 75.9281 44.3621C74.8602 44.3621 73.9944 45.2278 73.9944 46.2958C73.9944 47.3638 74.8602 48.2296 75.9281 48.2296Z" fill="#333333"/>
<path d="M141.391 85.7458C141.391 84.1319 139.77 82.8238 137.787 82.8238H125.743V77.2074C125.743 77.1131 125.706 77.0227 125.639 76.956C125.573 76.8894 125.482 76.8519 125.388 76.8519C125.294 76.8519 125.203 76.8894 125.137 76.956C125.07 77.0227 125.033 77.1131 125.033 77.2074V91.8954C125.033 91.9896 125.07 92.0801 125.137 92.1467C125.203 92.2134 125.294 92.2508 125.388 92.2508C125.482 92.2508 125.573 92.2134 125.639 92.1467C125.706 92.0801 125.743 91.9896 125.743 91.8954V83.5276H137.787C139.386 83.5276 140.68 84.5229 140.68 85.7458V105.979C140.68 106.073 140.718 106.164 140.784 106.23C140.851 106.297 140.941 106.335 141.036 106.335C141.13 106.335 141.22 106.297 141.287 106.23C141.354 106.164 141.391 106.073 141.391 105.979V85.7458Z" fill="#333333"/>
<path d="M141.036 110.152C140.941 110.152 140.851 110.19 140.784 110.256C140.718 110.323 140.68 110.413 140.68 110.508V113.721C140.682 113.815 140.72 113.904 140.786 113.97C140.853 114.037 140.942 114.075 141.036 114.077C141.13 114.077 141.22 114.039 141.287 113.973C141.354 113.906 141.391 113.815 141.391 113.721V110.508C141.391 110.413 141.354 110.323 141.287 110.256C141.22 110.19 141.13 110.152 141.036 110.152Z" fill="#333333"/>
<path d="M86.5922 129.44C86.5908 129.685 86.6622 129.925 86.7972 130.129C86.9323 130.334 87.125 130.493 87.3509 130.588C87.5768 130.683 87.8258 130.708 88.0662 130.661C88.3066 130.614 88.5277 130.497 88.7014 130.324C88.8751 130.152 88.9936 129.931 89.042 129.691C89.0903 129.451 89.0662 129.202 88.9728 128.975C88.8794 128.749 88.7208 128.555 88.5172 128.419C88.3137 128.283 88.0742 128.21 87.8292 128.21C87.5024 128.21 87.1888 128.339 86.957 128.57C86.7252 128.8 86.5941 129.113 86.5922 129.44V129.44Z" fill="#333333"/>
<path d="M90.5379 129.44C90.5365 129.685 90.6078 129.925 90.7429 130.129C90.878 130.334 91.0707 130.493 91.2966 130.588C91.5225 130.683 91.7714 130.708 92.0119 130.661C92.2523 130.614 92.4734 130.497 92.6471 130.324C92.8208 130.152 92.9393 129.931 92.9876 129.691C93.0359 129.451 93.0119 129.202 92.9185 128.975C92.825 128.749 92.6665 128.555 92.4629 128.419C92.2593 128.283 92.0199 128.21 91.7749 128.21C91.4481 128.21 91.1345 128.339 90.9027 128.57C90.6709 128.8 90.5398 129.113 90.5379 129.44V129.44Z" fill="#333333"/>
<path d="M95.7206 130.698C96.3998 130.698 96.9505 130.148 96.9505 129.468C96.9505 128.789 96.3998 128.238 95.7206 128.238C95.0413 128.238 94.4907 128.789 94.4907 129.468C94.4907 130.148 95.0413 130.698 95.7206 130.698Z" fill="#333333"/>
<path d="M120.248 47.0566C120.523 46.7835 120.71 46.4351 120.786 46.0555C120.862 45.6759 120.824 45.2822 120.677 44.9243C120.529 44.5664 120.278 44.2604 119.956 44.0451C119.634 43.8299 119.256 43.715 118.869 43.7151H94.2703C94.1893 43.7176 94.1115 43.7477 94.0499 43.8005L93.9077 43.6227C93.4053 43.0707 92.706 42.7383 91.9607 42.6973C91.2153 42.6563 90.4838 42.91 89.9239 43.4037C89.364 43.8973 89.0206 44.5913 88.9679 45.3359C88.9152 46.0805 89.1573 46.816 89.6421 47.3836V47.3836L87.5093 49.5164C87.4442 49.5828 87.4077 49.6722 87.4077 49.7652C87.4077 49.8583 87.4442 49.9476 87.5093 50.0141C87.5771 50.0821 87.6692 50.1205 87.7652 50.1207C87.859 50.1194 87.9484 50.081 88.0141 50.0141L90.1469 47.8812C90.6932 48.3116 91.3784 48.5269 92.0727 48.4863C92.767 48.4457 93.4224 48.152 93.9148 47.6608C93.9148 47.6608 93.9717 47.5826 94.0073 47.5471C94.0656 47.6059 94.1448 47.6391 94.2276 47.6395H118.869C119.126 47.6397 119.381 47.5882 119.618 47.4881C119.854 47.3879 120.069 47.2412 120.248 47.0566ZM91.8887 47.7675C91.6075 47.7682 91.3289 47.7133 91.069 47.6059C90.8092 47.4985 90.5731 47.3408 90.3744 47.1419C90.1734 46.9435 90.0138 46.7071 89.9049 46.4466C89.796 46.186 89.7399 45.9064 89.7399 45.624C89.7399 45.3416 89.796 45.062 89.9049 44.8015C90.0138 44.5409 90.1734 44.3046 90.3744 44.1062C90.5726 43.9063 90.8085 43.7476 91.0684 43.6393C91.3283 43.531 91.6071 43.4753 91.8887 43.4753C92.1702 43.4753 92.449 43.531 92.7089 43.6393C92.9688 43.7476 93.2047 43.9063 93.403 44.1062C93.604 44.3046 93.7635 44.5409 93.8724 44.8015C93.9814 45.062 94.0374 45.3416 94.0374 45.624C94.0374 45.9064 93.9814 46.186 93.8724 46.4466C93.7635 46.7071 93.604 46.9435 93.403 47.1419C93.2054 47.3434 92.9699 47.5037 92.7099 47.6135C92.45 47.7234 92.1709 47.7805 91.8887 47.7817V47.7675ZM94.4552 44.4048H118.869C119.115 44.4074 119.354 44.4825 119.558 44.6206C119.761 44.7587 119.92 44.9537 120.013 45.1813C120.106 45.4088 120.131 45.6589 120.083 45.9001C120.035 46.1413 119.916 46.363 119.743 46.5376C119.629 46.6537 119.493 46.7457 119.343 46.808C119.193 46.8703 119.031 46.9017 118.869 46.9001H94.4196C94.6126 46.5161 94.7161 46.0934 94.7223 45.6636C94.7284 45.2339 94.6371 44.8083 94.4552 44.419V44.4048Z" fill="#008CC8"/>
<path d="M106.072 66.0954H77.4709V70.2686H106.072V66.0954Z" fill="#F87302"/>
<path d="M118.016 83.9755H101.422C101.146 83.3544 100.823 82.7555 100.455 82.184H108.162V72.0531H75.3594V82.184H76.5182C76.1508 82.7569 75.8253 83.3557 75.5442 83.9755H65.5555V87.5302H74.4991C74.4284 87.9254 74.3786 88.3241 74.3498 88.7246H65.5555V92.2793H74.5276C74.5933 92.6819 74.6812 93.0806 74.7906 93.4737H65.5484V97.0283H76.2907C76.5314 97.4385 76.7948 97.8349 77.0798 98.2156H65.5555V101.77H80.9473C81.6878 102.245 82.4737 102.645 83.2934 102.965H65.52V106.519H104.742L105.93 107.707H65.5555V111.261H118.016V107.707H106.968L105.78 106.519H118.016V102.965H102.204L101.01 101.77H118.016V98.2156H99.9151C100.2 97.8317 100.463 97.4336 100.704 97.0283H118.016V93.4737H102.204C102.311 93.0826 102.403 92.6845 102.475 92.2793H118.016V88.7246H102.645C102.645 88.3265 102.567 87.9283 102.503 87.5302H118.016V83.9755ZM101.223 103.043H93.7016C94.5229 102.722 95.311 102.322 96.0548 101.848H100.008L101.223 103.043ZM101.934 88.7388C102.034 89.9266 101.972 91.1225 101.749 92.2935C101.679 92.6964 101.586 93.0951 101.472 93.4879C101.116 94.7435 100.579 95.9408 99.8796 97.0425C99.6166 97.4478 99.3322 97.8459 99.0265 98.2298C98.7182 98.6155 98.3883 98.9834 98.0383 99.3318C97.0437 100.328 95.8995 101.163 94.6471 101.806C93.584 102.357 92.4501 102.759 91.2773 103C89.4483 103.379 87.5609 103.379 85.7319 103C84.5617 102.758 83.4303 102.356 82.3692 101.806C81.1143 101.164 79.9676 100.329 78.9709 99.3318C78.6209 98.9834 78.291 98.6155 77.9827 98.2298C77.677 97.8459 77.3926 97.4478 77.1296 97.0425C76.4298 95.9408 75.8934 94.7435 75.5371 93.4879C75.4229 93.0951 75.3304 92.6964 75.2598 92.2935C75.037 91.1225 74.9748 89.9266 75.075 88.7388C75.1037 88.3383 75.1536 87.9397 75.2243 87.5444C75.4315 86.3103 75.8171 85.1129 76.3689 83.9897C76.6651 83.3651 77.0123 82.7659 77.4069 82.1982C77.868 81.5247 78.3916 80.8963 78.9709 80.3213C81.5027 77.799 84.9308 76.3827 88.5046 76.3827C92.0784 76.3827 95.5065 77.799 98.0383 80.3213C98.6176 80.8963 99.1412 81.5247 99.6023 82.1982C99.9969 82.7659 100.344 83.3651 100.64 83.9897C101.192 85.1129 101.578 86.3103 101.785 87.5444C101.853 87.9398 101.901 88.3385 101.927 88.7388H101.934Z" fill="#F87302"/>
<path d="M117.994 112.577H65.5555V116.153H117.994V112.577Z" fill="#F87302"/>
<path d="M99.2824 87.5444C98.86 85.5248 97.874 83.6662 96.4387 82.184L96.3036 82.0418C94.2349 79.9766 91.4313 78.8167 88.5082 78.8167C85.5851 78.8167 82.7814 79.9766 80.7127 82.0418L80.5776 82.184C79.1423 83.6662 78.1564 85.5248 77.7339 87.5444C77.6475 87.9383 77.5858 88.3372 77.5491 88.7388C77.4254 89.9277 77.4999 91.1289 77.7694 92.2935C77.8605 92.6985 77.9769 93.0974 78.1178 93.4879C78.5894 94.8009 79.314 96.0086 80.2506 97.0426C80.407 97.2274 80.5776 97.4122 80.7554 97.59C80.9331 97.7677 81.2104 98.0308 81.4663 98.2298C83.4547 99.9088 85.9732 100.83 88.5757 100.83C91.1782 100.83 93.6967 99.9088 95.6851 98.2298C95.9268 98.0237 96.1543 97.8175 96.396 97.59C96.6377 97.3625 96.7444 97.2274 96.9008 97.0426C97.8374 96.0086 98.562 94.8009 99.0336 93.4879C99.1745 93.0974 99.2908 92.6985 99.3819 92.2935C99.6446 91.1279 99.719 89.9279 99.6023 88.7388C99.5212 88.3343 99.4143 87.9354 99.2824 87.5444ZM79.9094 87.5444C80.1747 86.2323 80.7692 85.0091 81.6369 83.9898C81.7862 83.812 81.9426 83.6414 82.1133 83.4708C82.6039 82.9749 83.1586 82.5469 83.7626 82.1982C85.0002 81.4732 86.4092 81.0927 87.8434 81.0962C87.9377 81.0962 88.0281 81.1337 88.0948 81.2004C88.1614 81.267 88.1989 81.3574 88.1989 81.4517C88.1989 81.546 88.1614 81.6364 88.0948 81.703C88.0281 81.7697 87.9377 81.8072 87.8434 81.8072C87.0305 81.8052 86.223 81.9398 85.4547 82.2053C84.3835 82.5694 83.4105 83.1751 82.6109 83.9755V83.9755C81.639 84.9538 80.9616 86.1855 80.6558 87.5302C80.5633 87.9224 80.5062 88.3222 80.4852 88.7246C80.4852 88.8739 80.4852 89.0232 80.4852 89.1725C80.4852 89.2188 80.476 89.2647 80.458 89.3075C80.4401 89.3502 80.4138 89.3889 80.3807 89.4214C80.3476 89.4538 80.3083 89.4793 80.2653 89.4964C80.2222 89.5135 80.1761 89.5218 80.1298 89.5208C80.0367 89.5209 79.9473 89.4844 79.8809 89.4193C79.8144 89.3541 79.7761 89.2655 79.7743 89.1725C79.7743 89.0232 79.7743 88.8739 79.7743 88.7246C79.7877 88.3282 79.8329 87.9336 79.9094 87.5444Z" fill="#008CC8"/>
<path d="M161.738 142.948H143.666C144.88 142.532 145.932 141.746 146.675 140.7C147.417 139.654 147.812 138.401 147.804 137.118H139.649C140.145 136.91 140.572 136.566 140.88 136.126C141.189 135.686 141.366 135.167 141.391 134.63V118.221C141.391 118.127 141.354 118.037 141.287 117.97C141.22 117.903 141.13 117.866 141.036 117.866C140.942 117.868 140.853 117.906 140.786 117.972C140.72 118.038 140.682 118.128 140.68 118.221V134.616C140.68 135.846 139.386 136.841 137.787 136.841H46.7868C45.1872 136.841 43.8933 135.846 43.8933 134.616V85.7529C43.8933 84.5229 45.1872 83.5276 46.7868 83.5276H57.0243V109.832C57.0262 109.925 57.0644 110.014 57.1309 110.079C57.1974 110.144 57.2867 110.181 57.3798 110.181C57.4261 110.182 57.4722 110.173 57.5153 110.156C57.5584 110.139 57.5976 110.114 57.6307 110.081C57.6638 110.049 57.6901 110.01 57.7081 109.967C57.726 109.925 57.7352 109.879 57.7352 109.832V43.2033C57.7371 42.4779 58.0261 41.7828 58.539 41.2699C59.0519 40.757 59.747 40.468 60.4723 40.4661H75.5656C76.2059 40.4701 76.8344 40.2935 77.3789 39.9564C77.9234 39.6194 78.3618 39.1357 78.6439 38.5608L79.3548 37.1816C79.3767 37.1402 79.39 37.0949 79.3939 37.0483C79.3979 37.0016 79.3924 36.9547 79.3778 36.9102C79.3632 36.8658 79.3398 36.8247 79.309 36.7895C79.2782 36.7543 79.2406 36.7257 79.1984 36.7053C79.1142 36.665 79.0176 36.6588 78.9289 36.6879C78.8402 36.717 78.7661 36.7793 78.7221 36.8617L78.0112 38.2836C77.7862 38.7396 77.4377 39.1234 77.0053 39.3911C76.5729 39.6588 76.0741 39.7998 75.5656 39.7979H60.4723C59.5591 39.7979 58.6832 40.1602 58.0367 40.8053C57.3903 41.4504 57.0262 42.3256 57.0243 43.2388V48.8054C50.8357 50.8547 45.184 54.2629 40.4836 58.78C35.7832 63.2971 32.1531 68.8088 29.8594 74.9111C29.7101 74.9111 29.5608 74.9111 29.4115 74.9111C28.4903 74.9073 27.5958 75.2208 26.8786 75.7989C26.1614 76.3771 25.6651 77.1845 25.4732 78.0855C25.2813 78.9866 25.4055 79.9262 25.825 80.7464C26.2444 81.5666 26.9335 82.2173 27.7763 82.5892C27.3335 85.1031 27.1099 87.6507 27.1081 90.2033C27.1018 96.6793 28.5416 103.075 31.3226 108.924C34.1036 114.772 38.1554 119.926 43.1823 124.008V134.672C43.2078 135.209 43.3849 135.728 43.6932 136.169C44.0015 136.609 44.4283 136.953 44.9241 137.161H34.1961C34.1944 138.442 34.5919 139.692 35.3335 140.737C36.075 141.782 37.1237 142.569 38.3338 142.99H33.4141C33.3198 142.99 33.2294 143.028 33.1627 143.095C33.096 143.161 33.0586 143.252 33.0586 143.346C33.0586 143.44 33.096 143.531 33.1627 143.597C33.2294 143.664 33.3198 143.701 33.4141 143.701H161.738C161.833 143.701 161.923 143.664 161.99 143.597C162.056 143.531 162.094 143.44 162.094 143.346C162.1 143.296 162.095 143.245 162.08 143.197C162.065 143.149 162.04 143.104 162.006 143.066C161.972 143.029 161.931 142.999 161.885 142.978C161.839 142.958 161.789 142.947 161.738 142.948V142.948ZM26.0914 78.8994C26.0914 78.0227 26.4397 77.1818 27.0597 76.5618C27.6796 75.9419 28.5205 75.5936 29.3973 75.5936H29.5963C28.8723 77.6184 28.3042 79.6957 27.8972 81.8072C27.359 81.5341 26.9061 81.1185 26.5877 80.6058C26.2693 80.0931 26.0976 79.5029 26.0914 78.8994V78.8994ZM87.6373 137.545H94.3627C94.1839 138.302 93.7546 138.977 93.1442 139.46C92.5339 139.943 91.7783 140.206 91 140.206C90.2217 140.206 89.4661 139.943 88.8558 139.46C88.2454 138.977 87.8161 138.302 87.6373 137.545V137.545Z" fill="#333333"/>
<path d="M27.9825 142.948H20.2617C20.1674 142.948 20.077 142.985 20.0104 143.052C19.9437 143.119 19.9062 143.209 19.9062 143.303C19.9062 143.398 19.9437 143.488 20.0104 143.555C20.077 143.621 20.1674 143.659 20.2617 143.659H27.9825C28.0768 143.659 28.1672 143.621 28.2339 143.555C28.3005 143.488 28.338 143.398 28.338 143.303C28.338 143.209 28.3005 143.119 28.2339 143.052C28.1672 142.985 28.0768 142.948 27.9825 142.948Z" fill="#333333"/>
<circle cx="88.475" cy="89.825" r="13.85" stroke="#008CC8" stroke-width="0.75"/>
<line x1="98.7071" y1="100" x2="107" y2="108.293" stroke="#008CC8" stroke-linecap="round" stroke-linejoin="round"/>
</svg>
