<svg width="182" height="144" viewBox="0 0 182 144" fill="none" xmlns="http://www.w3.org/2000/svg">
<path d="M140.366 105.99H140.408V108.27C140.408 108.368 140.447 108.463 140.517 108.532C140.586 108.602 140.681 108.641 140.779 108.641C140.878 108.641 140.973 108.602 141.043 108.533C141.114 108.463 141.155 108.369 141.156 108.27V105.99H159.162L162.454 102.705H140.366V105.99Z" fill="#333333"/>
<path d="M137.672 73.6704L135.428 75.9077H139.91L137.672 73.6704Z" fill="#333333"/>
<path d="M117.522 24.9985L110.896 18.3721L104.262 24.9985L110.896 31.632L117.522 24.9985ZM110.896 19.4266L116.475 24.9985L110.896 30.5775L105.317 24.9985L110.896 19.4266Z" fill="#333333"/>
<path d="M24.8597 99.7057C24.9581 99.7058 25.0527 99.6675 25.1233 99.5988L28.5006 96.2215C28.5364 96.1875 28.5649 96.1467 28.5844 96.1013C28.6039 96.056 28.6139 96.0072 28.6139 95.9579C28.6139 95.9085 28.6039 95.8597 28.5844 95.8144C28.5649 95.7691 28.5364 95.7282 28.5006 95.6942C28.4301 95.6255 28.3355 95.587 28.237 95.587C28.1385 95.587 28.0439 95.6255 27.9733 95.6942L24.596 99.0716C24.5435 99.1234 24.5077 99.1897 24.4931 99.262C24.4786 99.3343 24.4859 99.4093 24.5142 99.4774C24.5425 99.5455 24.5905 99.6037 24.6521 99.6443C24.7136 99.685 24.7859 99.7064 24.8597 99.7057V99.7057Z" fill="#333333"/>
<path d="M34.9988 99.7057C35.0973 99.7058 35.1919 99.6674 35.2624 99.5988L38.6398 96.2215C38.6756 96.1875 38.7041 96.1466 38.7235 96.1013C38.743 96.056 38.7531 96.0072 38.7531 95.9579C38.7531 95.9085 38.743 95.8597 38.7235 95.8144C38.7041 95.7691 38.6756 95.7282 38.6398 95.6942C38.5704 95.6259 38.477 95.5876 38.3797 95.5876C38.2824 95.5876 38.189 95.6259 38.1196 95.6942L34.7352 99.0715C34.6827 99.1234 34.6469 99.1897 34.6323 99.262C34.6177 99.3343 34.6251 99.4093 34.6534 99.4774C34.6817 99.5455 34.7297 99.6036 34.7912 99.6443C34.8528 99.685 34.9251 99.7063 34.9988 99.7057V99.7057Z" fill="#333333"/>
<path d="M48.786 95.6942C48.7154 95.6255 48.6208 95.587 48.5223 95.587C48.4238 95.587 48.3292 95.6255 48.2587 95.6942L44.8885 99.0716C44.8197 99.1421 44.7812 99.2367 44.7812 99.3352C44.7812 99.4337 44.8197 99.5283 44.8885 99.5988C44.9599 99.6662 45.054 99.7044 45.1521 99.7057C45.201 99.7065 45.2495 99.6975 45.2948 99.6791C45.3401 99.6608 45.3813 99.6335 45.4158 99.5988L48.8002 96.2215C48.8671 96.1491 48.9031 96.0535 48.9004 95.955C48.8977 95.8565 48.8567 95.7629 48.786 95.6942V95.6942Z" fill="#333333"/>
<path d="M24.5961 113.942C24.6666 114.011 24.7612 114.049 24.8597 114.049C24.9582 114.049 25.0528 114.011 25.1233 113.942L28.5007 110.557C28.5365 110.523 28.565 110.482 28.5844 110.437C28.6039 110.392 28.614 110.343 28.614 110.294C28.614 110.244 28.6039 110.196 28.5844 110.15C28.565 110.105 28.5365 110.064 28.5007 110.03C28.4301 109.961 28.3355 109.923 28.237 109.923C28.1385 109.923 28.0439 109.961 27.9734 110.03L24.5961 113.414C24.5273 113.485 24.4888 113.58 24.4888 113.678C24.4888 113.777 24.5273 113.871 24.5961 113.942V113.942Z" fill="#333333"/>
<path d="M34.7352 113.942C34.8057 114.011 34.9003 114.049 34.9988 114.049C35.0973 114.049 35.1919 114.011 35.2624 113.942L38.6398 110.557C38.6756 110.523 38.7041 110.482 38.7235 110.437C38.743 110.392 38.7531 110.343 38.7531 110.294C38.7531 110.244 38.743 110.196 38.7235 110.15C38.7041 110.105 38.6756 110.064 38.6398 110.03C38.5704 109.962 38.477 109.923 38.3797 109.923C38.2824 109.923 38.189 109.962 38.1196 110.03L34.7352 113.414C34.6664 113.485 34.6279 113.58 34.6279 113.678C34.6279 113.777 34.6664 113.871 34.7352 113.942V113.942Z" fill="#333333"/>
<path d="M48.2587 110.03L44.8885 113.415C44.8197 113.485 44.7812 113.58 44.7812 113.678C44.7812 113.777 44.8197 113.871 44.8885 113.942C44.9599 114.009 45.054 114.047 45.1521 114.049C45.201 114.049 45.2495 114.04 45.2948 114.022C45.3401 114.004 45.3813 113.976 45.4158 113.942L48.8002 110.557C48.8701 110.487 48.9094 110.393 48.9094 110.294C48.9094 110.195 48.8701 110.1 48.8002 110.03C48.7303 109.96 48.6355 109.921 48.5366 109.921C48.4377 109.921 48.3429 109.96 48.273 110.03H48.2587Z" fill="#333333"/>
<path d="M89.0645 35.3727H122.132C122.849 35.3727 123.535 35.6572 124.042 36.1636C124.548 36.67 124.833 37.3569 124.833 38.0731V49.2881C123.821 49.2881 123.329 50.193 122.902 50.9696C122.474 51.7463 122.147 52.2664 121.577 52.2664C121.007 52.2664 120.707 51.7748 120.258 50.9696C119.81 50.1645 119.332 49.2881 118.285 49.2881C118.23 49.2723 118.172 49.2696 118.115 49.2801C118.059 49.2906 118.006 49.314 117.96 49.3486C117.914 49.3831 117.877 49.4278 117.851 49.4791C117.826 49.5304 117.812 49.587 117.812 49.6443C117.812 49.7017 117.826 49.7583 117.851 49.8096C117.877 49.8609 117.914 49.9056 117.96 49.9401C118.006 49.9747 118.059 49.9981 118.115 50.0086C118.172 50.0191 118.23 50.0163 118.285 50.0006C118.848 50.0006 119.161 50.4922 119.61 51.2974C120.059 52.1025 120.536 52.9789 121.577 52.9789C122.617 52.9789 123.116 52.0883 123.55 51.2974C123.985 50.5065 124.298 50.0291 124.833 50.0077V66.5025C124.859 66.5762 124.907 66.6401 124.971 66.6853C125.035 66.7306 125.111 66.7548 125.189 66.7548C125.267 66.7548 125.343 66.7306 125.407 66.6853C125.471 66.6401 125.519 66.5762 125.545 66.5025V50.4139C125.782 50.7072 125.988 51.0249 126.158 51.3615C126.593 52.1524 127.091 53.043 128.132 53.043C129.172 53.043 129.671 52.1524 130.105 51.3615C130.54 50.5706 130.861 50.0647 131.424 50.0647C131.986 50.0647 132.3 50.5564 132.749 51.3615C133.198 52.1666 133.682 53.043 134.722 53.043C135.763 53.043 136.261 52.1524 136.696 51.3615C137.131 50.5706 137.459 50.0647 138.021 50.0647C138.584 50.0647 138.898 50.5564 139.347 51.3615C139.796 52.1666 140.273 53.043 141.32 53.043C141.375 53.0588 141.434 53.0615 141.49 53.051C141.546 53.0405 141.599 53.0171 141.645 52.9826C141.691 52.948 141.728 52.9033 141.754 52.852C141.779 52.8007 141.793 52.7441 141.793 52.6868C141.793 52.6294 141.779 52.5729 141.754 52.5215C141.728 52.4702 141.691 52.4255 141.645 52.391C141.599 52.3565 141.546 52.333 141.49 52.3225C141.434 52.312 141.375 52.3148 141.32 52.3305C140.757 52.3305 140.444 51.8389 139.995 51.0337C139.546 50.2286 139.069 49.3522 138.021 49.3522C136.974 49.3522 136.482 50.2429 136.048 51.0337C135.613 51.8246 135.285 52.3305 134.722 52.3305C134.16 52.3305 133.846 51.8389 133.397 51.0337C132.948 50.2286 132.471 49.3522 131.424 49.3522C130.376 49.3522 129.892 50.2429 129.45 51.0337C129.008 51.8246 128.695 52.3305 128.132 52.3305C127.569 52.3305 127.255 51.8389 126.814 51.0337C126.547 50.4153 126.107 49.8879 125.545 49.5161V38.1158C125.545 37.2012 125.182 36.3241 124.535 35.6773C123.888 35.0306 123.011 34.6673 122.097 34.6673H89.0645C88.9907 34.6932 88.9268 34.7414 88.8816 34.8052C88.8364 34.869 88.8121 34.9453 88.8121 35.0235C88.8121 35.1017 88.8364 35.178 88.8816 35.2418C88.9268 35.3056 88.9907 35.3538 89.0645 35.3798V35.3727Z" fill="#333333"/>
<path d="M81.3836 35.3727H83.4427C84.0502 35.3708 84.6465 35.2092 85.1718 34.9041C85.6971 34.5989 86.1328 34.1609 86.4353 33.6341L88.6227 29.8008C88.649 29.7586 88.6665 29.7116 88.6743 29.6625C88.682 29.6134 88.6798 29.5633 88.6677 29.515C88.6557 29.4668 88.6341 29.4215 88.6041 29.3819C88.5742 29.3422 88.5366 29.3089 88.4936 29.284C88.4506 29.2592 88.403 29.2432 88.3537 29.2371C88.3044 29.231 88.2543 29.2349 88.2065 29.2486C88.1587 29.2622 88.1142 29.2853 88.0755 29.3166C88.0369 29.3478 88.0049 29.3865 87.9815 29.4303L85.7869 33.2636C85.5502 33.6765 85.2089 34.0196 84.7974 34.2585C84.3858 34.4975 83.9186 34.6237 83.4427 34.6245H81.3836C81.3266 34.6045 81.2657 34.5984 81.2059 34.6068C81.1462 34.6152 81.0893 34.6377 81.04 34.6726C80.9908 34.7075 80.9506 34.7537 80.9229 34.8073C80.8951 34.8609 80.8807 34.9204 80.8807 34.9808C80.8807 35.0411 80.8951 35.1006 80.9229 35.1542C80.9506 35.2078 80.9908 35.254 81.04 35.2889C81.0893 35.3238 81.1462 35.3464 81.2059 35.3548C81.2657 35.3631 81.3266 35.3571 81.3836 35.337V35.3727Z" fill="#333333"/>
<path d="M63.6918 43.075C64.7543 43.075 65.6156 42.2137 65.6156 41.1512C65.6156 40.0887 64.7543 39.2274 63.6918 39.2274C62.6293 39.2274 61.768 40.0887 61.768 41.1512C61.768 42.2137 62.6293 43.075 63.6918 43.075Z" fill="#333333"/>
<path d="M69.8265 43.075C70.207 43.075 70.5789 42.9621 70.8953 42.7507C71.2117 42.5394 71.4583 42.2389 71.6039 41.8874C71.7495 41.5359 71.7876 41.149 71.7133 40.7759C71.6391 40.4027 71.4559 40.0599 71.1868 39.7909C70.9178 39.5218 70.575 39.3386 70.2018 39.2644C69.8286 39.1901 69.4418 39.2282 69.0903 39.3738C68.7388 39.5194 68.4383 39.766 68.2269 40.0824C68.0156 40.3987 67.9027 40.7707 67.9027 41.1512C67.9018 41.4041 67.9509 41.6547 68.0472 41.8885C68.1436 42.1223 68.2853 42.3348 68.4641 42.5136C68.6429 42.6924 68.8554 42.8341 69.0892 42.9304C69.323 43.0268 69.5736 43.0759 69.8265 43.075V43.075Z" fill="#333333"/>
<path d="M77.9207 41.1512C77.9207 40.7707 77.8079 40.3987 77.5965 40.0824C77.3851 39.766 77.0846 39.5194 76.7331 39.3738C76.3816 39.2282 75.9948 39.1901 75.6216 39.2644C75.2484 39.3386 74.9056 39.5218 74.6366 39.7909C74.3675 40.0599 74.1843 40.4027 74.1101 40.7759C74.0359 41.149 74.074 41.5359 74.2196 41.8874C74.3652 42.2389 74.6117 42.5394 74.9281 42.7507C75.2445 42.9621 75.6164 43.075 75.9969 43.075C76.5071 43.075 76.9965 42.8723 77.3572 42.5115C77.718 42.1507 77.9207 41.6614 77.9207 41.1512Z" fill="#333333"/>
<path d="M137.516 77.4894H125.588V71.9247C125.562 71.8509 125.514 71.787 125.45 71.7418C125.386 71.6966 125.31 71.6723 125.232 71.6723C125.154 71.6723 125.077 71.6966 125.013 71.7418C124.95 71.787 124.901 71.8509 124.875 71.9247V86.5384C124.901 86.6122 124.95 86.6761 125.013 86.7213C125.077 86.7665 125.154 86.7908 125.232 86.7908C125.31 86.7908 125.386 86.7665 125.45 86.7213C125.514 86.6761 125.562 86.6122 125.588 86.5384V78.2019H137.516C138.983 78.2019 140.187 79.0427 140.366 80.1257C140.373 80.2135 140.373 80.3016 140.366 80.3894V87.6357V90.9204H140.408V95.1527H140.366V98.4303H140.408V100.568C140.408 100.617 140.418 100.666 140.437 100.711C140.456 100.757 140.484 100.798 140.519 100.832C140.555 100.867 140.596 100.894 140.642 100.912C140.688 100.93 140.737 100.939 140.786 100.938C140.834 100.938 140.882 100.929 140.927 100.91C140.971 100.891 141.012 100.864 141.045 100.829C141.079 100.795 141.106 100.754 141.124 100.709C141.142 100.664 141.15 100.616 141.149 100.568V98.4303H162.454L159.162 95.1527H141.149V90.9204H154.937L151.652 87.6357H141.149V83.4033H147.427L144.135 80.1257H141.135C140.971 78.6437 139.425 77.4894 137.516 77.4894Z" fill="#333333"/>
<path d="M108.937 47.0508C108.901 47.0847 108.872 47.1256 108.853 47.1709C108.833 47.2163 108.823 47.2651 108.823 47.3144C108.823 47.3638 108.833 47.4126 108.853 47.4579C108.872 47.5032 108.901 47.5441 108.937 47.578C109.004 47.6463 109.097 47.6847 109.193 47.6849C109.242 47.6858 109.29 47.6767 109.336 47.6584C109.381 47.64 109.422 47.6127 109.457 47.578L112.271 44.728C113.012 45.3369 113.958 45.6375 114.914 45.5676C115.871 45.4977 116.763 45.0626 117.407 44.3524C118.052 43.6423 118.398 42.7116 118.375 41.7531C118.351 40.7946 117.96 39.8818 117.282 39.2039C116.604 38.5259 115.691 38.1348 114.733 38.1115C113.774 38.0881 112.844 38.4344 112.134 39.0786C111.424 39.7228 110.988 40.6155 110.919 41.5717C110.849 42.5279 111.149 43.4744 111.758 44.215V44.215L108.937 47.0508ZM112.535 39.7261C113.023 39.2337 113.667 38.9255 114.356 38.8542C115.046 38.7829 115.739 38.9527 116.318 39.3349C116.897 39.717 117.325 40.2878 117.53 40.9502C117.736 41.6126 117.705 42.3256 117.444 42.968C117.183 43.6104 116.707 44.1424 116.098 44.4735C115.488 44.8047 114.783 44.9145 114.102 44.7843C113.421 44.6542 112.806 44.292 112.362 43.7595C111.917 43.2271 111.671 42.5571 111.665 41.8637C111.661 41.4675 111.735 41.0743 111.885 40.7073C112.034 40.3403 112.255 40.0067 112.535 39.7261Z" fill="#008CC8"/>
<path d="M86.6134 123.91C86.6134 124.152 86.6853 124.389 86.8199 124.591C86.9546 124.792 87.146 124.949 87.3699 125.042C87.5939 125.135 87.8403 125.159 88.078 125.112C88.3157 125.065 88.5341 124.948 88.7055 124.776C88.8769 124.605 88.9936 124.387 89.0409 124.149C89.0882 123.911 89.0639 123.665 88.9712 123.441C88.8784 123.217 88.7213 123.026 88.5198 122.891C88.3183 122.756 88.0813 122.684 87.8389 122.684C87.5139 122.684 87.2022 122.813 86.9724 123.043C86.7425 123.273 86.6134 123.585 86.6134 123.91V123.91Z" fill="#333333"/>
<path d="M90.5322 123.91C90.5308 124.154 90.6019 124.393 90.7365 124.597C90.8711 124.8 91.0631 124.959 91.2882 125.054C91.5133 125.148 91.7614 125.174 92.001 125.127C92.2406 125.08 92.4609 124.963 92.634 124.791C92.8071 124.619 92.9252 124.399 92.9733 124.16C93.0215 123.921 92.9975 123.673 92.9044 123.447C92.8113 123.221 92.6533 123.028 92.4505 122.893C92.2476 122.757 92.009 122.684 91.7649 122.684C91.4392 122.684 91.1268 122.813 90.8958 123.043C90.6648 123.272 90.5341 123.584 90.5322 123.91V123.91Z" fill="#333333"/>
<path d="M94.4582 123.91C94.4568 124.154 94.5279 124.393 94.6625 124.597C94.7971 124.8 94.9891 124.959 95.2142 125.054C95.4393 125.148 95.6874 125.174 95.9269 125.127C96.1665 125.08 96.3868 124.963 96.5599 124.791C96.733 124.619 96.8511 124.399 96.8993 124.16C96.9474 123.921 96.9234 123.673 96.8303 123.447C96.7373 123.221 96.5793 123.028 96.3764 122.893C96.1736 122.757 95.935 122.684 95.6909 122.684C95.5293 122.683 95.3692 122.714 95.2197 122.776C95.0702 122.837 94.9342 122.927 94.8197 123.041C94.7051 123.155 94.6142 123.29 94.5522 123.439C94.4901 123.588 94.4582 123.748 94.4582 123.91V123.91Z" fill="#333333"/>
<path d="M136.995 29.4018C137.045 29.4018 137.093 29.392 137.139 29.3729C137.184 29.3539 137.225 29.3259 137.26 29.2908C137.294 29.2556 137.322 29.2139 137.34 29.1681C137.358 29.1224 137.367 29.0734 137.366 29.0242V26.68C137.344 26.6026 137.297 26.5345 137.233 26.486C137.168 26.4375 137.09 26.4113 137.01 26.4113C136.929 26.4113 136.851 26.4375 136.787 26.486C136.722 26.5345 136.675 26.6026 136.653 26.68V29.0384C136.655 29.1307 136.691 29.2191 136.754 29.2863C136.817 29.3535 136.903 29.3947 136.995 29.4018V29.4018Z" fill="#333333"/>
<path d="M138.876 31.2757H141.221C141.294 31.2498 141.358 31.2016 141.403 31.1377C141.449 31.0739 141.473 30.9976 141.473 30.9194C141.473 30.8412 141.449 30.765 141.403 30.7011C141.358 30.6373 141.294 30.5891 141.221 30.5632H138.876C138.819 30.5432 138.759 30.5371 138.699 30.5455C138.639 30.5538 138.582 30.5764 138.533 30.6113C138.484 30.6462 138.443 30.6924 138.416 30.746C138.388 30.7996 138.374 30.8591 138.374 30.9194C138.374 30.9798 138.388 31.0393 138.416 31.0929C138.443 31.1465 138.484 31.1927 138.533 31.2276C138.582 31.2625 138.639 31.2851 138.699 31.2934C138.759 31.3018 138.819 31.2957 138.876 31.2757V31.2757Z" fill="#333333"/>
<path d="M136.995 35.4938C137.094 35.4938 137.188 35.4548 137.257 35.3853C137.327 35.3158 137.366 35.2216 137.366 35.1233V32.7791C137.382 32.724 137.384 32.6659 137.374 32.6096C137.363 32.5532 137.34 32.5 137.305 32.4542C137.271 32.4085 137.226 32.3713 137.175 32.3457C137.124 32.3202 137.067 32.3069 137.01 32.3069C136.952 32.3069 136.896 32.3202 136.844 32.3457C136.793 32.3713 136.748 32.4085 136.714 32.4542C136.679 32.5 136.656 32.5532 136.645 32.6096C136.635 32.6659 136.638 32.724 136.653 32.7791V35.1233C136.653 35.2168 136.688 35.307 136.752 35.3757C136.815 35.4444 136.902 35.4866 136.995 35.4938V35.4938Z" fill="#333333"/>
<path d="M132.777 31.2757H135.121C135.195 31.2498 135.259 31.2016 135.304 31.1378C135.35 31.0739 135.374 30.9977 135.374 30.9195C135.374 30.8413 135.35 30.765 135.304 30.7012C135.259 30.6373 135.195 30.5891 135.121 30.5632H132.777C132.704 30.5891 132.64 30.6373 132.594 30.7012C132.549 30.765 132.525 30.8413 132.525 30.9195C132.525 30.9977 132.549 31.0739 132.594 31.1378C132.64 31.2016 132.704 31.2498 132.777 31.2757V31.2757Z" fill="#333333"/>
<path d="M91.7649 75.3519C90.8077 75.3505 89.8717 75.6331 89.0751 76.1638C88.2786 76.6946 87.6574 77.4497 87.2901 78.3336C86.9229 79.2175 86.826 80.1904 87.0119 81.1294C87.1978 82.0683 87.658 82.931 88.3343 83.6084C89.0106 84.2857 89.8726 84.7472 90.8113 84.9344C91.75 85.1217 92.7231 85.0263 93.6075 84.6603C94.492 84.2943 95.248 83.6742 95.7799 82.8785C96.3118 82.0827 96.5958 81.1471 96.5958 80.1899C96.5967 79.5549 96.4724 78.926 96.2301 78.339C95.9877 77.7521 95.632 77.2187 95.1834 76.7694C94.7347 76.32 94.2018 75.9636 93.6152 75.7203C93.0287 75.4771 92.3999 75.3519 91.7649 75.3519Z" fill="#008CC8"/>
<path d="M115.428 99.5774V70.6493C115.428 70.2576 115.35 69.8697 115.2 69.5079C115.05 69.1461 114.83 68.8175 114.553 68.5408C114.275 68.2641 113.946 68.0449 113.584 67.8957C113.222 67.7464 112.834 67.6701 112.442 67.671H71.1162C70.7245 67.6701 70.3364 67.7464 69.9742 67.8957C69.6121 68.0449 69.2829 68.2641 69.0056 68.5408C68.7283 68.8175 68.5083 69.1461 68.3581 69.5079C68.208 69.8697 68.1307 70.2576 68.1307 70.6493V99.5774C68.1298 99.9698 68.2064 100.358 68.3561 100.721C68.5058 101.084 68.7257 101.413 69.0031 101.691C69.2805 101.968 69.61 102.188 69.9726 102.338C70.3352 102.487 70.7239 102.564 71.1162 102.563H112.442C112.834 102.564 113.223 102.487 113.586 102.338C113.948 102.188 114.278 101.968 114.555 101.691C114.833 101.413 115.052 101.084 115.202 100.721C115.352 100.358 115.428 99.9698 115.428 99.5774V99.5774ZM101.362 92.4523C100.895 91.6422 100.317 90.9012 99.6453 90.2506C98.6156 89.2079 97.3883 88.3809 96.0352 87.8182C94.6821 87.2554 93.2303 86.9681 91.7649 86.973C89.826 86.9738 87.9207 87.4794 86.2366 88.4401C84.5525 89.4009 83.1476 90.7836 82.1602 92.4523C80.3405 90.2467 79.3499 87.4739 79.36 84.6146C79.3203 82.961 79.6118 81.3162 80.2172 79.777C80.8226 78.2377 81.7298 76.835 82.8853 75.6515C84.0407 74.468 85.4213 73.5275 86.9456 72.8854C88.4699 72.2432 90.1073 71.9124 91.7613 71.9124C93.4154 71.9124 95.0527 72.2432 96.5771 72.8854C98.1014 73.5275 99.4819 74.468 100.637 75.6515C101.793 76.835 102.7 78.2377 103.305 79.777C103.911 81.3162 104.202 82.961 104.163 84.6146C104.173 87.4739 103.182 90.2467 101.362 92.4523Z" fill="#F87302"/>
<path d="M91.7649 58.8928C93.9135 58.8928 95.6552 57.1511 95.6552 55.0025C95.6552 52.8539 93.9135 51.1122 91.7649 51.1122C89.6163 51.1122 87.8746 52.8539 87.8746 55.0025C87.8746 57.1511 89.6163 58.8928 91.7649 58.8928Z" fill="#333333"/>
<path d="M65.2379 68.6685V81.1162C65.2179 81.1731 65.2118 81.234 65.2202 81.2938C65.2286 81.3536 65.2511 81.4104 65.286 81.4597C65.3209 81.509 65.3671 81.5491 65.4207 81.5768C65.4743 81.6046 65.5338 81.619 65.5942 81.619C65.6545 81.619 65.714 81.6046 65.7676 81.5768C65.8213 81.5491 65.8674 81.509 65.9023 81.4597C65.9372 81.4104 65.9598 81.3536 65.9682 81.2938C65.9765 81.234 65.9705 81.1731 65.9504 81.1162V68.6685C65.9504 68.1016 66.1756 67.5579 66.5765 67.157C66.9774 66.7562 67.5211 66.531 68.088 66.531H80.044C80.0991 66.5467 80.1572 66.5494 80.2136 66.539C80.2699 66.5285 80.3231 66.505 80.3689 66.4705C80.4147 66.436 80.4518 66.3913 80.4774 66.3399C80.503 66.2886 80.5163 66.2321 80.5163 66.1747C80.5163 66.1174 80.503 66.0608 80.4774 66.0095C80.4518 65.9581 80.4147 65.9135 80.3689 65.8789C80.3231 65.8444 80.2699 65.8209 80.2136 65.8105C80.1572 65.8 80.0991 65.8027 80.044 65.8185H68.1022C67.7268 65.8166 67.3546 65.8889 67.0072 66.0313C66.6598 66.1737 66.3439 66.3833 66.0777 66.6482C65.8116 66.913 65.6004 67.2278 65.4562 67.5745C65.3121 67.9213 65.2379 68.293 65.2379 68.6685Z" fill="#008CC8"/>
<path d="M102.966 104.401H115.428C116.183 104.401 116.908 104.101 117.443 103.566C117.977 103.032 118.278 102.307 118.278 101.551V95.5731C118.279 95.5238 118.27 95.4749 118.251 95.4291C118.233 95.3833 118.206 95.3417 118.172 95.3065C118.137 95.2713 118.096 95.2434 118.051 95.2243C118.005 95.2053 117.956 95.1955 117.907 95.1955C117.807 95.1955 117.711 95.2352 117.64 95.3061C117.569 95.3769 117.529 95.4729 117.529 95.5731V101.551C117.529 102.118 117.304 102.662 116.903 103.063C116.503 103.463 115.959 103.689 115.392 103.689H102.966C102.888 103.711 102.82 103.757 102.772 103.822C102.723 103.886 102.697 103.964 102.697 104.045C102.697 104.125 102.723 104.204 102.772 104.268C102.82 104.332 102.888 104.379 102.966 104.401V104.401Z" fill="#008CC8"/>
<path d="M68.1023 104.401H81.5545C81.6097 104.417 81.6677 104.42 81.7241 104.409C81.7805 104.399 81.8337 104.375 81.8794 104.341C81.9252 104.306 81.9624 104.261 81.9879 104.21C82.0135 104.159 82.0268 104.102 82.0268 104.045C82.0268 103.988 82.0135 103.931 81.9879 103.88C81.9624 103.828 81.9252 103.784 81.8794 103.749C81.8337 103.715 81.7805 103.691 81.7241 103.681C81.6677 103.67 81.6097 103.673 81.5545 103.689H68.1023C67.5353 103.689 66.9917 103.463 66.5908 103.063C66.1899 102.662 65.9647 102.118 65.9647 101.551V91.5759C65.9388 91.5021 65.8906 91.4382 65.8268 91.393C65.7629 91.3478 65.6867 91.3235 65.6085 91.3235C65.5302 91.3235 65.454 91.3478 65.3902 91.393C65.3263 91.4382 65.2781 91.5021 65.2522 91.5759V101.551C65.2522 102.307 65.5525 103.032 66.087 103.566C66.6214 104.101 67.3464 104.401 68.1023 104.401Z" fill="#008CC8"/>
<path d="M118.278 68.6685C118.278 67.9126 117.977 67.1877 117.443 66.6532C116.908 66.1187 116.183 65.8185 115.428 65.8185H102.966C102.888 65.8406 102.82 65.8873 102.772 65.9516C102.723 66.0159 102.697 66.0942 102.697 66.1747C102.697 66.2552 102.723 66.3336 102.772 66.3978C102.82 66.4621 102.888 66.5089 102.966 66.531H115.428C115.994 66.531 116.538 66.7562 116.939 67.157C117.34 67.5579 117.565 68.1016 117.565 68.6685V83.1112C117.565 83.1605 117.575 83.2092 117.594 83.2547C117.613 83.3001 117.641 83.3412 117.676 83.3757C117.711 83.4102 117.753 83.4374 117.799 83.4556C117.845 83.4738 117.893 83.4827 117.943 83.4817C117.991 83.4817 118.04 83.4721 118.084 83.4535C118.129 83.4349 118.17 83.4076 118.205 83.3732C118.239 83.3388 118.266 83.2979 118.285 83.253C118.304 83.208 118.313 83.1599 118.313 83.1112L118.278 68.6685Z" fill="#008CC8"/>
<path d="M161.378 137.291H143.451C144.643 136.865 145.674 136.08 146.401 135.044C147.129 134.007 147.517 132.771 147.512 131.505H139.461C139.944 131.29 140.358 130.945 140.656 130.509C140.954 130.072 141.125 129.561 141.149 129.033V120.989H144.135L147.427 117.697H141.149V113.479H151.652L154.937 110.187H140.366V113.479H140.408V117.697H140.366V120.989H140.408V129.033C140.408 130.237 139.126 131.22 137.558 131.22H46.9833C45.4087 131.22 44.1333 130.237 44.1333 129.033V80.4036C44.1333 79.1995 45.4158 78.2162 46.9833 78.2162H57.1723V104.38C57.1723 104.478 57.2114 104.572 57.2808 104.642C57.3503 104.711 57.4446 104.75 57.5428 104.75C57.6411 104.75 57.7353 104.711 57.8048 104.642C57.8743 104.572 57.9133 104.478 57.9133 104.38V38.0731C57.9133 37.3569 58.1978 36.67 58.7043 36.1636C59.2107 35.6572 59.8976 35.3727 60.6138 35.3727H75.6336C76.2752 35.3758 76.9047 35.1984 77.4503 34.8607C77.9958 34.5231 78.4354 34.0388 78.7188 33.4631L79.4313 32.088C79.4534 32.0445 79.4667 31.9971 79.4704 31.9484C79.4741 31.8998 79.4682 31.8509 79.4529 31.8046C79.4377 31.7582 79.4135 31.7153 79.3817 31.6784C79.3498 31.6414 79.311 31.6111 79.2674 31.5892C79.1793 31.5465 79.078 31.5397 78.9849 31.5703C78.8918 31.6009 78.8143 31.6664 78.7687 31.7531L78.0561 33.1282C77.8331 33.5796 77.4878 33.9592 77.0594 34.2238C76.6311 34.4883 76.137 34.6272 75.6336 34.6245H74.9211C71.5915 31.0149 67.4683 28.2287 62.8771 26.4861C58.2859 24.7435 53.3525 24.0921 48.4663 24.5834C43.5802 25.0748 38.8752 26.6953 34.7229 29.3172C30.5706 31.939 27.0846 35.4903 24.5404 39.6907C21.9962 43.891 20.4633 48.6253 20.0629 53.5197C19.6625 58.4142 20.4054 63.3347 22.233 67.8927C24.0607 72.4507 26.923 76.5214 30.5939 79.7833C34.2648 83.0452 38.6438 85.409 43.3851 86.688V129.033C43.4102 129.562 43.5821 130.073 43.8817 130.51C44.1812 130.947 44.5965 131.291 45.0809 131.505H34.4716C34.4732 132.77 34.8638 134.003 35.5904 135.038C36.3169 136.073 37.3442 136.86 38.5329 137.291H33.7234C33.6683 137.275 33.6102 137.272 33.5539 137.283C33.4975 137.293 33.4443 137.317 33.3985 137.351C33.3528 137.386 33.3156 137.431 33.29 137.482C33.2645 137.533 33.2512 137.59 33.2512 137.647C33.2512 137.704 33.2645 137.761 33.29 137.812C33.3156 137.864 33.3528 137.908 33.3985 137.943C33.4443 137.977 33.4975 138.001 33.5539 138.011C33.6102 138.022 33.6683 138.019 33.7234 138.003H161.378C161.433 138.019 161.491 138.022 161.547 138.011C161.604 138.001 161.657 137.977 161.703 137.943C161.748 137.908 161.786 137.864 161.811 137.812C161.837 137.761 161.85 137.704 161.85 137.647C161.85 137.59 161.837 137.533 161.811 137.482C161.786 137.431 161.748 137.386 161.703 137.351C161.657 137.317 161.604 137.293 161.547 137.283C161.491 137.272 161.433 137.275 161.378 137.291V137.291ZM87.6395 131.968H94.33C94.1432 132.714 93.7126 133.376 93.1065 133.849C92.5004 134.322 91.7536 134.579 90.9847 134.579C90.2159 134.579 89.4691 134.322 88.863 133.849C88.2569 133.376 87.8263 132.714 87.6395 131.968Z" fill="#333333"/>
<path d="M28.294 137.291H20.6059C20.5508 137.275 20.4928 137.272 20.4364 137.283C20.38 137.293 20.3268 137.317 20.281 137.351C20.2353 137.386 20.1981 137.431 20.1726 137.482C20.147 137.533 20.1337 137.59 20.1337 137.647C20.1337 137.704 20.147 137.761 20.1726 137.812C20.1981 137.864 20.2353 137.908 20.281 137.943C20.3268 137.977 20.38 138.001 20.4364 138.011C20.4928 138.022 20.5508 138.019 20.6059 138.003H28.294C28.3491 138.019 28.4072 138.022 28.4635 138.011C28.5199 138.001 28.5731 137.977 28.6189 137.943C28.6647 137.908 28.7018 137.864 28.7274 137.812C28.7529 137.761 28.7663 137.704 28.7663 137.647C28.7663 137.59 28.7529 137.533 28.7274 137.482C28.7018 137.431 28.6647 137.386 28.6189 137.351C28.5731 137.317 28.5199 137.293 28.4635 137.283C28.4072 137.272 28.3491 137.275 28.294 137.291V137.291Z" fill="#455A64"/>
</svg>
