<svg width="182" height="144" viewBox="0 0 182 144" fill="none" xmlns="http://www.w3.org/2000/svg">
<path d="M125.403 73.0768C125.35 73.1385 125.32 73.2165 125.317 73.2977V88.0396C125.317 88.1341 125.355 88.2247 125.421 88.2915C125.488 88.3583 125.579 88.3959 125.673 88.3959C125.768 88.3959 125.858 88.3583 125.925 88.2915C125.992 88.2247 126.03 88.1341 126.03 88.0396V82.4891L128.88 79.6391H138.142C138.898 79.6384 139.633 79.8891 140.23 80.3516C140.473 80.5319 140.672 80.7645 140.812 81.0322C140.953 81.2998 141.032 81.5956 141.042 81.8977V102.197C141.042 102.292 141.08 102.382 141.147 102.449C141.214 102.516 141.304 102.554 141.399 102.554C141.493 102.554 141.584 102.516 141.651 102.449C141.717 102.382 141.755 102.292 141.755 102.197V83.4938L156.511 68.7376L154.16 66.3934L140.722 79.8315C139.992 79.2428 139.08 78.9278 138.142 78.9408H137.964L152.336 64.5694L149.992 62.2181L133.24 78.9408H129.592L148.118 60.4154L145.766 58.0712L126.023 77.815V74.1456L143.928 56.2258L141.584 53.8745L125.403 70.07V73.0768Z" fill="#455A64" id="grey-to-dark"/>
<path d="M90.8315 23.4288C90.8779 23.4297 90.9241 23.4214 90.9673 23.4042C91.0105 23.3871 91.0498 23.3616 91.083 23.329C91.1161 23.2965 91.1425 23.2577 91.1605 23.2149C91.1785 23.1721 91.1877 23.1261 91.1877 23.0796V20.9421C91.1877 20.8476 91.1502 20.757 91.0834 20.6902C91.0166 20.6233 90.926 20.5858 90.8315 20.5858C90.737 20.5858 90.6464 20.6233 90.5796 20.6902C90.5128 20.757 90.4752 20.8476 90.4752 20.9421V23.0796C90.4752 23.1261 90.4845 23.1721 90.5025 23.2149C90.5204 23.2577 90.5468 23.2965 90.58 23.329C90.6132 23.3616 90.6525 23.3871 90.6957 23.4042C90.7389 23.4214 90.785 23.4297 90.8315 23.4288Z" fill="#455A64" id="grey-to-dark"/>
<path d="M92.5486 25.1459H94.6862C94.7807 25.1459 94.8713 25.1083 94.9381 25.0415C95.0049 24.9747 95.0424 24.8841 95.0424 24.7896C95.0424 24.6951 95.0049 24.6045 94.9381 24.5377C94.8713 24.4709 94.7807 24.4333 94.6862 24.4333H92.5486C92.4542 24.4333 92.3635 24.4709 92.2967 24.5377C92.2299 24.6045 92.1924 24.6951 92.1924 24.7896C92.1924 24.8841 92.2299 24.9747 92.2967 25.0415C92.3635 25.1083 92.4542 25.1459 92.5486 25.1459Z" fill="#455A64" id="grey-to-dark"/>
<path d="M90.8315 29.0077C90.926 29.0077 91.0166 28.9702 91.0834 28.9034C91.1502 28.8366 91.1877 28.7459 91.1877 28.6515V26.5139C91.1877 26.4194 91.1502 26.3288 91.0834 26.262C91.0166 26.1952 90.926 26.1577 90.8315 26.1577C90.737 26.1577 90.6464 26.1952 90.5796 26.262C90.5128 26.3288 90.4752 26.4194 90.4752 26.5139V28.6515C90.4752 28.7459 90.5128 28.8366 90.5796 28.9034C90.6464 28.9702 90.737 29.0077 90.8315 29.0077Z" fill="#455A64" id="grey-to-dark"/>
<path d="M86.9767 25.1459H89.1143C89.2088 25.1459 89.2994 25.1083 89.3662 25.0415C89.433 24.9747 89.4705 24.8841 89.4705 24.7896C89.4705 24.6951 89.433 24.6045 89.3662 24.5377C89.2994 24.4709 89.2088 24.4333 89.1143 24.4333H86.9767C86.8823 24.4333 86.7916 24.4709 86.7248 24.5377C86.658 24.6045 86.6205 24.6951 86.6205 24.7896C86.6205 24.8841 86.658 24.9747 86.7248 25.0415C86.7916 25.1083 86.8823 25.1459 86.9767 25.1459Z" fill="#455A64" id="grey-to-dark"/>
<path d="M32.6047 49.2503C34.0759 49.2503 35.5141 48.814 36.7374 47.9966C37.9607 47.1793 38.9141 46.0175 39.4771 44.6583C40.0401 43.299 40.1874 41.8034 39.9004 40.3604C39.6134 38.9175 38.9049 37.592 37.8646 36.5517C36.8243 35.5114 35.4988 34.8029 34.0559 34.5159C32.6129 34.2289 31.1173 34.3762 29.758 34.9392C28.3988 35.5022 27.237 36.4556 26.4197 37.6789C25.6023 38.9022 25.166 40.3404 25.166 41.8116C25.1651 42.7887 25.3568 43.7565 25.7303 44.6594C26.1038 45.5623 26.6517 46.3827 27.3427 47.0736C28.0336 47.7646 28.854 48.3125 29.7569 48.686C30.6598 49.0595 31.6276 49.2512 32.6047 49.2503ZM32.6047 35.0855C33.935 35.0855 35.2354 35.48 36.3415 36.219C37.4476 36.9581 38.3097 38.0086 38.8188 39.2376C39.3279 40.4667 39.4611 41.8191 39.2016 43.1238C38.9421 44.4286 38.3015 45.6271 37.3608 46.5677C36.4201 47.5084 35.2216 48.149 33.9169 48.4085C32.6121 48.6681 31.2597 48.5349 30.0307 48.0258C28.8017 47.5167 27.7512 46.6546 27.0121 45.5485C26.273 44.4424 25.8785 43.1419 25.8785 41.8116C25.8804 40.0283 26.5897 38.3186 27.8507 37.0576C29.1116 35.7966 30.8214 35.0874 32.6047 35.0855Z" fill="#455A64" id="grey-to-dark"/>
<path d="M89.2639 35.7837C89.1699 35.7856 89.0804 35.8237 89.014 35.8901C88.9475 35.9565 88.9094 36.0461 88.9076 36.14C88.9076 36.2345 88.9451 36.3251 89.0119 36.3919C89.0787 36.4587 89.1694 36.4962 89.2639 36.4962H122.553C123.279 36.5 123.975 36.7902 124.488 37.3038C125.002 37.8175 125.292 38.513 125.296 39.2394V67.8968C125.296 67.9913 125.333 68.0819 125.4 68.1487C125.467 68.2155 125.558 68.2531 125.652 68.2531C125.747 68.2531 125.837 68.2155 125.904 68.1487C125.971 68.0819 126.008 67.9913 126.008 67.8968V65.802L139.76 52.0505L137.409 49.7063L126.008 61.1065V57.4585L135.584 47.8822L133.24 45.5309L126.023 52.763V49.1149L131.431 43.7069L129.079 41.3627L126.023 44.4194V40.7713L127.255 39.5387L125.83 38.1137C125.601 37.4504 125.174 36.8732 124.607 36.4593C124.041 36.0454 123.361 35.8147 122.659 35.798L123.087 35.3705L120.736 33.0263L117.971 35.7909H114.323L118.912 31.2023L116.567 28.851L109.628 35.7909H105.979L114.715 27.0198L112.364 24.6756L101.284 35.7837H97.6145L110.547 22.8516L108.203 20.5003L92.9404 35.7837H89.2639Z" fill="#455A64" id="grey-to-dark"/>
<path d="M81.5189 36.4963H83.5923C84.201 36.4957 84.7987 36.3347 85.3254 36.0294C85.852 35.7242 86.2889 35.2856 86.592 34.7577L88.8008 30.8959C88.8268 30.855 88.8442 30.8093 88.852 30.7615C88.8598 30.7137 88.8578 30.6649 88.846 30.6179C88.8343 30.5709 88.8131 30.5268 88.7837 30.4883C88.7543 30.4498 88.7174 30.4177 88.6752 30.3939C88.633 30.3701 88.5864 30.3552 88.5383 30.3501C88.4901 30.3449 88.4414 30.3496 88.3952 30.364C88.3489 30.3783 88.306 30.4018 88.2692 30.4333C88.2323 30.4647 88.2023 30.5033 88.1809 30.5467L85.9792 34.4015C85.7377 34.8211 85.39 35.1698 84.971 35.4125C84.552 35.6551 84.0765 35.7832 83.5923 35.7837H81.5189C81.4249 35.7856 81.3354 35.8237 81.269 35.8901C81.2025 35.9565 81.1644 36.0461 81.1626 36.14C81.1626 36.2345 81.2001 36.3251 81.2669 36.3919C81.3338 36.4587 81.4244 36.4963 81.5189 36.4963Z" fill="#455A64" id="grey-to-dark"/>
<path d="M61.7679 42.3389C61.7679 42.7222 61.8816 43.0969 62.0946 43.4156C62.3075 43.7343 62.6102 43.9827 62.9643 44.1294C63.3185 44.2761 63.7081 44.3144 64.0841 44.2397C64.46 44.1649 64.8053 43.9803 65.0764 43.7093C65.3474 43.4382 65.532 43.0929 65.6068 42.717C65.6816 42.341 65.6432 41.9513 65.4965 41.5972C65.3498 41.2431 65.1014 40.9404 64.7827 40.7274C64.464 40.5145 64.0893 40.4008 63.706 40.4008C63.192 40.4008 62.699 40.605 62.3356 40.9685C61.9721 41.3319 61.7679 41.8249 61.7679 42.3389Z" fill="#455A64" id="grey-to-dark"/>
<path d="M67.9668 42.3389C67.9668 42.7225 68.0807 43.0975 68.2939 43.4163C68.5072 43.7352 68.8103 43.9836 69.1649 44.1301C69.5194 44.2765 69.9094 44.3145 70.2856 44.2391C70.6617 44.1638 71.007 43.9785 71.2778 43.7067C71.5485 43.435 71.7325 43.089 71.8065 42.7126C71.8805 42.3362 71.8411 41.9463 71.6933 41.5923C71.5455 41.2383 71.296 40.9361 70.9764 40.724C70.6567 40.5119 70.2813 40.3994 69.8977 40.4008C69.6436 40.4008 69.3919 40.451 69.1571 40.5485C68.9224 40.646 68.7092 40.7888 68.5298 40.9689C68.3504 41.149 68.2084 41.3627 68.1117 41.5978C68.0151 41.8328 67.9659 42.0847 67.9668 42.3389Z" fill="#455A64" id="grey-to-dark"/>
<path d="M76.0966 40.4008C75.7133 40.4008 75.3386 40.5145 75.0199 40.7274C74.7012 40.9404 74.4528 41.2431 74.3061 41.5972C74.1594 41.9513 74.121 42.341 74.1958 42.717C74.2706 43.0929 74.4552 43.4382 74.7262 43.7093C74.9973 43.9803 75.3426 44.1649 75.7185 44.2397C76.0945 44.3144 76.4841 44.2761 76.8383 44.1294C77.1924 43.9827 77.4951 43.7343 77.708 43.4156C77.921 43.0969 78.0347 42.7222 78.0347 42.3389C78.0347 41.8249 77.8305 41.3319 77.467 40.9685C77.1036 40.605 76.6106 40.4008 76.0966 40.4008Z" fill="#455A64" id="grey-to-dark"/>
<path d="M141.349 106.337C141.254 106.337 141.164 106.375 141.097 106.441C141.03 106.508 140.993 106.599 140.993 106.693V109.914C140.994 110.008 141.032 110.097 141.099 110.164C141.165 110.23 141.255 110.268 141.349 110.27C141.443 110.27 141.534 110.233 141.601 110.166C141.668 110.099 141.705 110.008 141.705 109.914V106.693C141.705 106.599 141.668 106.508 141.601 106.441C141.534 106.375 141.443 106.337 141.349 106.337Z" fill="#455A64" id="grey-to-dark"/>
<path d="M109.286 48.2955C109.237 48.3453 109.204 48.4084 109.19 48.4768C109.177 48.5453 109.184 48.6161 109.211 48.6806C109.237 48.7451 109.282 48.8004 109.34 48.8396C109.397 48.8788 109.465 48.9002 109.535 48.9012C109.582 48.9018 109.628 48.8925 109.671 48.8741C109.714 48.8557 109.753 48.8285 109.784 48.7943L112.634 45.9442C113.379 46.5623 114.333 46.8697 115.298 46.8026C116.264 46.7355 117.166 46.2991 117.818 45.5839C118.47 44.8688 118.821 43.93 118.798 42.9626C118.776 41.9952 118.382 41.0736 117.698 40.3894C117.013 39.7052 116.092 39.3109 115.124 39.2885C114.157 39.2662 113.218 39.6174 112.503 40.2692C111.788 40.9211 111.351 41.8234 111.284 42.7887C111.217 43.754 111.525 44.7081 112.143 45.4526L109.286 48.2955ZM112.848 40.8996C113.273 40.4678 113.816 40.1721 114.409 40.0502C115.002 39.9282 115.618 39.9855 116.178 40.2147C116.738 40.444 117.218 40.8348 117.555 41.3374C117.893 41.8401 118.073 42.4318 118.073 43.0372C118.073 43.6426 117.893 44.2343 117.555 44.7369C117.218 45.2396 116.738 45.6304 116.178 45.8597C115.618 46.0889 115.002 46.1462 114.409 46.0242C113.816 45.9022 113.273 45.6065 112.848 45.1747C112.287 44.6034 111.975 43.8335 111.979 43.0328C111.983 42.232 112.303 41.4653 112.87 40.8996H112.848Z" fill="#008CC8"/>
<path d="M162.363 139.49H144.251C145.467 139.074 146.522 138.286 147.266 137.237C148.01 136.189 148.406 134.933 148.398 133.648H140.233C140.728 133.438 141.154 133.093 141.462 132.652C141.77 132.211 141.946 131.691 141.971 131.154V114.702C141.971 114.607 141.934 114.517 141.867 114.45C141.8 114.383 141.709 114.346 141.615 114.346C141.52 114.346 141.43 114.383 141.363 114.45C141.296 114.517 141.259 114.607 141.259 114.702V131.132C141.259 132.358 139.962 133.355 138.359 133.355H47.1567C45.5535 133.355 44.2568 132.358 44.2568 131.132V110.762C44.5879 110.848 44.9354 110.848 45.2669 110.764C45.5983 110.679 45.9029 110.511 46.1521 110.277C46.2173 110.21 46.2539 110.121 46.2539 110.028C46.2539 109.934 46.2173 109.845 46.1521 109.778C46.1189 109.745 46.0795 109.718 46.0361 109.7C45.9927 109.682 45.9461 109.673 45.8991 109.673C45.8521 109.673 45.8055 109.682 45.7621 109.7C45.7187 109.718 45.6793 109.745 45.6462 109.778C45.4539 109.946 45.2203 110.058 44.9697 110.105C44.719 110.151 44.4605 110.129 44.2211 110.042V82.1755C44.2211 80.95 45.5179 79.9524 47.1211 79.9524H57.4169V106.315C57.4169 106.41 57.4545 106.501 57.5213 106.567C57.5881 106.634 57.6787 106.672 57.7732 106.672C57.8677 106.672 57.9583 106.634 58.0251 106.567C58.0919 106.501 58.1294 106.41 58.1294 106.315V39.5386C58.1313 38.8116 58.4209 38.115 58.935 37.6009C59.449 37.0869 60.1457 36.7973 60.8726 36.7954H75.9993C76.6393 36.799 77.2674 36.6234 77.8127 36.2884C78.3579 35.9535 78.7985 35.4725 79.0845 34.9001L79.797 33.5107C79.8188 33.4697 79.832 33.4248 79.8359 33.3786C79.8398 33.3324 79.8342 33.2859 79.8195 33.2419C79.8049 33.1979 79.7814 33.1574 79.7506 33.1228C79.7198 33.0881 79.6823 33.0601 79.6403 33.0404C79.5988 33.0185 79.5534 33.0052 79.5066 33.0012C79.4599 32.9973 79.4129 33.0028 79.3683 33.0174C79.3238 33.0321 79.2826 33.0555 79.2473 33.0864C79.212 33.1173 79.1833 33.155 79.1629 33.1972L78.4504 34.5794C78.2263 35.0376 77.8773 35.4231 77.4436 35.6916C77.01 35.9601 76.5094 36.1007 75.9993 36.0971H60.8726C59.9567 36.099 59.0788 36.4637 58.4312 37.1113C57.7835 37.759 57.4188 38.6369 57.4169 39.5528V49.3143C50.6553 50.8694 44.4205 54.1724 39.3358 58.893C34.2512 63.6136 30.495 69.5863 28.4428 76.214C26.3906 82.8416 26.1143 89.8919 27.6416 96.6599C29.1689 103.428 32.4462 109.676 37.1459 114.78C36.7528 114.828 36.388 115.009 36.1127 115.293C35.3432 116.056 35.5712 117.025 35.7636 117.872C35.956 118.72 36.07 119.347 35.614 119.796C35.1579 120.245 34.5808 120.16 33.6902 119.953C32.7995 119.746 31.8661 119.533 31.1037 120.295C30.3413 121.057 30.5622 122.026 30.7617 122.881C30.9612 123.737 31.061 124.349 30.6121 124.798C30.1632 125.247 29.5789 125.162 28.6883 124.955C27.7977 124.748 26.8643 124.535 26.1019 125.297C26.0531 125.347 26.0199 125.41 26.0066 125.478C25.9932 125.547 26.0003 125.617 26.0268 125.682C26.0534 125.746 26.0983 125.802 26.1559 125.841C26.2136 125.88 26.2815 125.902 26.3513 125.903C26.4442 125.903 26.5337 125.867 26.6006 125.803C27.0566 125.347 27.6338 125.439 28.5244 125.646C29.4151 125.853 30.3485 126.066 31.1109 125.304C31.8732 124.542 31.6524 123.573 31.4529 122.718C31.2534 121.863 31.1536 121.25 31.6096 120.794C32.0656 120.338 32.6356 120.438 33.5263 120.644C34.4169 120.851 35.3503 121.065 36.1127 120.302C36.8751 119.54 36.6542 118.571 36.4547 117.716C36.2552 116.861 36.1555 116.248 36.6115 115.792C36.7712 115.646 36.9654 115.542 37.1759 115.491C37.3865 115.44 37.6066 115.443 37.8156 115.5C39.5573 117.307 41.4658 118.946 43.5158 120.395V131.154C43.5406 131.691 43.7171 132.211 44.0248 132.652C44.3324 133.093 44.7587 133.438 45.2543 133.648H34.5381C34.5379 134.93 34.9361 136.181 35.6777 137.228C36.4192 138.275 37.4676 139.065 38.6778 139.49H33.7543C33.6598 139.49 33.5692 139.528 33.5024 139.595C33.4356 139.661 33.398 139.752 33.398 139.846C33.398 139.941 33.4356 140.032 33.5024 140.098C33.5692 140.165 33.6598 140.203 33.7543 140.203H162.363C162.458 140.203 162.548 140.165 162.615 140.098C162.682 140.032 162.72 139.941 162.72 139.846C162.72 139.752 162.682 139.661 162.615 139.595C162.548 139.528 162.458 139.49 162.363 139.49ZM88.0978 134.089H94.8382C94.659 134.849 94.2287 135.525 93.617 136.009C93.0053 136.493 92.2481 136.757 91.468 136.757C90.688 136.757 89.9307 136.493 89.3191 136.009C88.7074 135.525 88.2771 134.849 88.0978 134.089Z" fill="#455A64" id="grey-to-dark"/>
<path d="M28.0446 139.191H20.3067C20.2122 139.191 20.1216 139.229 20.0548 139.295C19.988 139.362 19.9504 139.453 19.9504 139.547C19.9504 139.642 19.988 139.732 20.0548 139.799C20.1216 139.866 20.2122 139.904 20.3067 139.904H28.0446C28.1391 139.904 28.2297 139.866 28.2965 139.799C28.3633 139.732 28.4009 139.642 28.4009 139.547C28.4009 139.453 28.3633 139.362 28.2965 139.295C28.2297 139.229 28.1391 139.191 28.0446 139.191Z" fill="#455A64" id="grey-to-dark"/>
<path d="M86.7843 128.325C86.7843 128.57 86.857 128.81 86.9932 129.014C87.1295 129.218 87.3231 129.377 87.5496 129.471C87.7762 129.564 88.0255 129.589 88.2659 129.541C88.5064 129.493 88.7273 129.375 88.9007 129.202C89.0741 129.029 89.1922 128.808 89.24 128.567C89.2879 128.327 89.2633 128.077 89.1695 127.851C89.0756 127.624 88.9167 127.431 88.7129 127.294C88.509 127.158 88.2693 127.085 88.0241 127.085C87.6953 127.085 87.3799 127.216 87.1474 127.449C86.9149 127.681 86.7843 127.996 86.7843 128.325Z" fill="#455A64" id="grey-to-dark"/>
<path d="M90.7388 128.325C90.7388 128.57 90.8115 128.81 90.9477 129.014C91.0839 129.218 91.2776 129.377 91.5041 129.471C91.7306 129.564 91.9799 129.589 92.2204 129.541C92.4609 129.493 92.6818 129.375 92.8552 129.202C93.0286 129.029 93.1467 128.808 93.1945 128.567C93.2423 128.327 93.2178 128.077 93.124 127.851C93.0301 127.624 92.8712 127.431 92.6673 127.294C92.4634 127.158 92.2237 127.085 91.9785 127.085C91.8157 127.085 91.6545 127.118 91.5041 127.18C91.3537 127.242 91.217 127.333 91.1019 127.449C90.9868 127.564 90.8954 127.7 90.8331 127.851C90.7708 128.001 90.7388 128.162 90.7388 128.325Z" fill="#455A64" id="grey-to-dark"/>
<path d="M94.6932 128.325C94.6932 128.57 94.7659 128.81 94.9022 129.014C95.0384 129.218 95.232 129.377 95.4586 129.471C95.6851 129.564 95.9344 129.589 96.1749 129.541C96.4154 129.493 96.6363 129.375 96.8097 129.202C96.9831 129.029 97.1011 128.808 97.149 128.567C97.1968 128.327 97.1723 128.077 97.0784 127.851C96.9846 127.624 96.8257 127.431 96.6218 127.294C96.4179 127.158 96.1782 127.085 95.933 127.085C95.6042 127.085 95.2889 127.216 95.0564 127.449C94.8239 127.681 94.6932 127.996 94.6932 128.325Z" fill="#455A64" id="grey-to-dark"/>
<path d="M105.759 94.2599C106 93.9753 106.133 93.6142 106.133 93.241C106.133 92.8678 106 92.5067 105.759 92.2221C105.495 91.9086 99.2177 84.6694 91.9786 84.6694C84.7394 84.6694 78.4408 91.9086 78.1985 92.2221C77.9543 92.5054 77.8199 92.867 77.8199 93.241C77.8199 93.615 77.9543 93.9766 78.1985 94.2599C78.4622 94.5734 84.7323 101.813 91.9786 101.813C99.2249 101.813 105.495 94.5734 105.759 94.2599ZM91.9786 98.6704C87.6251 98.6704 83.4284 95.0579 81.5616 93.241C83.4141 91.4241 87.6251 87.8116 91.9786 87.8116C96.332 87.8116 100.529 91.4241 102.388 93.241C100.543 95.0579 96.3249 98.6704 91.9786 98.6704Z" fill="#F87302"/>
<path d="M94.8707 96.1324C96.4679 94.5353 96.4679 91.9457 94.8707 90.3485C93.2735 88.7514 90.684 88.7514 89.0868 90.3485C87.4896 91.9457 87.4896 94.5353 89.0868 96.1324C90.684 97.7296 93.2735 97.7296 94.8707 96.1324Z" fill="#008CC8"/>
<path d="M93.71 79.6319V74.288C93.71 73.8704 93.5441 73.4699 93.2488 73.1746C92.9535 72.8793 92.553 72.7134 92.1353 72.7134C91.7177 72.7134 91.3172 72.8793 91.0219 73.1746C90.7266 73.4699 90.5607 73.8704 90.5607 74.288V79.6319C90.5607 80.0495 90.7266 80.4501 91.0219 80.7454C91.3172 81.0407 91.7177 81.2066 92.1353 81.2066C92.553 81.2066 92.9535 81.0407 93.2488 80.7454C93.5441 80.4501 93.71 80.0495 93.71 79.6319Z" fill="#F87302"/>
<path d="M101.32 84.2205L105.103 80.4371C105.39 80.1398 105.549 79.7415 105.545 79.3283C105.541 78.9151 105.374 78.5201 105.082 78.2284C104.789 77.9366 104.393 77.7716 103.98 77.769C103.567 77.7663 103.169 77.9261 102.873 78.214L99.0966 81.9975C98.9362 82.14 98.8066 82.3139 98.7159 82.5083C98.6251 82.7028 98.575 82.9137 98.5687 83.1282C98.5624 83.3427 98.6 83.5562 98.6791 83.7556C98.7583 83.9551 98.8775 84.1362 99.0292 84.288C99.1809 84.4397 99.3621 84.5588 99.5615 84.638C99.761 84.7172 99.9745 84.7548 100.189 84.7485C100.403 84.7422 100.614 84.6921 100.809 84.6013C101.003 84.5105 101.177 84.3809 101.32 84.2205Z" fill="#F87302"/>
<path d="M79.0892 80.2019L82.8726 83.9854C83.1728 84.2522 83.5636 84.3942 83.965 84.3824C84.3664 84.3705 84.7481 84.2058 85.0321 83.9218C85.3161 83.6379 85.4808 83.2561 85.4926 82.8547C85.5045 82.4533 85.3625 82.0625 85.0957 81.7623L81.3122 77.9789C81.1697 77.8185 80.9959 77.6889 80.8014 77.5981C80.607 77.5073 80.396 77.4573 80.1815 77.4509C79.967 77.4446 79.7535 77.4822 79.5541 77.5614C79.3546 77.6406 79.1735 77.7597 79.0218 77.9115C78.87 78.0632 78.7509 78.2444 78.6717 78.4438C78.5925 78.6432 78.5549 78.8568 78.5612 79.0712C78.5675 79.2857 78.6176 79.4967 78.7084 79.6911C78.7992 79.8856 78.9288 80.0594 79.0892 80.2019Z" fill="#F87302"/>
</svg>
