<svg width="182" height="144" viewBox="0 0 182 144" fill="none" xmlns="http://www.w3.org/2000/svg">
<path d="M98.4272 19.3851C98.473 19.3851 98.5184 19.376 98.5608 19.3585C98.6031 19.3409 98.6416 19.3152 98.674 19.2828C98.7065 19.2504 98.7322 19.2119 98.7497 19.1695C98.7673 19.1272 98.7763 19.0818 98.7763 19.0359V16.8485C98.7763 16.754 98.7388 16.6634 98.6719 16.5966C98.6051 16.5298 98.5145 16.4922 98.42 16.4922C98.3256 16.4922 98.2349 16.5298 98.1681 16.5966C98.1013 16.6634 98.0638 16.754 98.0638 16.8485V19.0359C98.0637 19.083 98.0732 19.1296 98.0916 19.1729C98.1101 19.2162 98.1371 19.2554 98.171 19.288C98.205 19.3206 98.2452 19.346 98.2892 19.3627C98.3332 19.3794 98.3801 19.387 98.4272 19.3851Z" fill="#455A64" id="grey-to-dark"/>
<path d="M100.173 21.1378H102.353C102.448 21.1378 102.538 21.1003 102.605 21.0335C102.672 20.9667 102.709 20.8761 102.709 20.7816C102.709 20.6871 102.672 20.5965 102.605 20.5297C102.538 20.4629 102.448 20.4253 102.353 20.4253H100.173C100.078 20.4253 99.9877 20.4629 99.9209 20.5297C99.8541 20.5965 99.8165 20.6871 99.8165 20.7816C99.8165 20.8761 99.8541 20.9667 99.9209 21.0335C99.9877 21.1003 100.078 21.1378 100.173 21.1378Z" fill="#455A64" id="grey-to-dark"/>
<path d="M98.4272 25.0638C98.4736 25.0638 98.5196 25.0546 98.5624 25.0366C98.6053 25.0186 98.6441 24.9922 98.6766 24.959C98.7091 24.9259 98.7347 24.8865 98.7518 24.8433C98.7689 24.8002 98.7772 24.754 98.7763 24.7075V22.5272C98.7763 22.4328 98.7388 22.3421 98.6719 22.2753C98.6051 22.2085 98.5145 22.171 98.42 22.171C98.3256 22.171 98.2349 22.2085 98.1681 22.2753C98.1013 22.3421 98.0638 22.4328 98.0638 22.5272V24.7075C98.0638 24.7549 98.0732 24.8019 98.0916 24.8455C98.1099 24.8892 98.1368 24.9288 98.1706 24.962C98.2045 24.9952 98.2446 25.0213 98.2886 25.0388C98.3327 25.0562 98.3798 25.0648 98.4272 25.0638Z" fill="#455A64" id="grey-to-dark"/>
<path d="M94.4941 21.1378H96.6744C96.7689 21.1378 96.8595 21.1003 96.9263 21.0335C96.9931 20.9667 97.0306 20.8761 97.0306 20.7816C97.0306 20.6871 96.9931 20.5965 96.9263 20.5297C96.8595 20.4629 96.7689 20.4253 96.6744 20.4253H94.4941C94.3996 20.4253 94.309 20.4629 94.2422 20.5297C94.1753 20.5965 94.1378 20.6871 94.1378 20.7816C94.1378 20.8761 94.1753 20.9667 94.2422 21.0335C94.309 21.1003 94.3996 21.1378 94.4941 21.1378Z" fill="#455A64" id="grey-to-dark"/>
<path d="M39.0889 40.3473C43.2719 40.3473 46.6629 36.9563 46.6629 32.7732C46.6629 28.5902 43.2719 25.1992 39.0889 25.1992C34.9058 25.1992 31.5148 28.5902 31.5148 32.7732C31.5148 36.9563 34.9058 40.3473 39.0889 40.3473Z" fill="#455A64" id="grey-to-dark"/>
<path d="M162.133 136.409H144.021C144.898 136.099 145.696 135.601 146.358 134.948C147.517 133.784 148.167 132.208 148.168 130.566H140.01C140.504 130.356 140.929 130.01 141.235 129.569C141.541 129.128 141.717 128.609 141.741 128.072V125.008H145.688C146.347 125.006 146.977 124.744 147.442 124.277C147.907 123.811 148.168 123.18 148.168 122.522V87.9647C148.168 87.307 147.907 86.6763 147.442 86.2113C146.977 85.7463 146.346 85.4851 145.688 85.4851H141.741V79.0725C141.723 78.6134 141.591 78.1659 141.357 77.7704C141.123 77.3749 140.795 77.0437 140.401 76.8067C139.84 76.4465 139.199 76.2288 138.535 76.1725H138.136H121.114C121.038 76.1735 120.965 76.1983 120.905 76.2435C120.844 76.2887 120.8 76.3519 120.777 76.424C120.755 76.4961 120.757 76.5734 120.781 76.6447C120.806 76.716 120.852 76.7777 120.914 76.8209C120.972 76.8631 121.042 76.8856 121.114 76.885H138.128C138.261 76.8778 138.395 76.8778 138.527 76.885C139.953 77.0347 141.028 77.9681 141.028 79.0867V85.4994H124.954C124.86 85.4994 124.769 85.5369 124.702 85.6037C124.635 85.6705 124.598 85.7611 124.598 85.8556C124.598 85.9501 124.635 86.0407 124.702 86.1075C124.769 86.1743 124.86 86.2119 124.954 86.2119H141.028V87.416H44.0123V86.2119H67.0123C67.1068 86.2119 67.1974 86.1743 67.2642 86.1075C67.3311 86.0407 67.3686 85.9501 67.3686 85.8556C67.3686 85.7611 67.3311 85.6705 67.2642 85.6037C67.1974 85.5369 67.1068 85.4994 67.0123 85.4994H44.0123V79.0867C44.0134 78.8408 44.0668 78.5979 44.1691 78.3742C44.4371 77.8892 44.837 77.4899 45.3224 77.2226C45.8079 76.9553 46.3591 76.8309 46.9123 76.8637H105.894C106.077 76.8643 106.259 76.8428 106.436 76.7995C106.895 76.6993 107.315 76.4693 107.647 76.1369L108.431 75.3531L111.138 72.6456C111.172 72.6125 111.198 72.5731 111.216 72.5296C111.234 72.4862 111.244 72.4397 111.244 72.3926C111.244 72.3456 111.234 72.299 111.216 72.2556C111.198 72.2122 111.172 72.1728 111.138 72.1397C111.072 72.0744 110.982 72.0378 110.889 72.0378C110.796 72.0378 110.706 72.0744 110.64 72.1397L107.148 75.631C106.984 75.7961 106.788 75.9271 106.573 76.0163C106.358 76.1056 106.127 76.1514 105.894 76.1512H97.5365C99.2112 71.7 99.766 66.9054 99.1521 62.1894C98.5383 57.4734 96.7746 52.9806 94.0162 49.1065C91.2578 45.2323 87.5895 42.0956 83.3339 39.9725C79.0783 37.8494 74.3661 36.8049 69.612 36.9309C64.8579 37.057 60.2077 38.3498 56.0706 40.6956C51.9336 43.0413 48.4366 46.368 45.8875 50.3829C43.3384 54.3978 41.8153 58.9778 41.4523 63.7197C41.0892 68.4616 41.8974 73.22 43.8057 77.5762C43.4812 78.0079 43.3039 78.5324 43.2998 79.0725V85.4851H39.3525C38.6949 85.4851 38.0642 85.7463 37.5992 86.2113C37.1342 86.6763 36.8729 87.307 36.8729 87.9647V95.5672C36.8729 95.6617 36.9105 95.7523 36.9773 95.8191C37.0441 95.8859 37.1347 95.9235 37.2292 95.9235C37.3237 95.9235 37.4143 95.8859 37.4811 95.8191C37.5479 95.7523 37.5854 95.6617 37.5854 95.5672V87.9647C37.5873 87.4947 37.7748 87.0445 38.1072 86.7122C38.4395 86.3799 38.8896 86.1924 39.3596 86.1905H43.3069V87.3946H42.9934C42.2376 87.3946 41.5126 87.6949 40.9781 88.2294C40.4436 88.7639 40.1434 89.4888 40.1434 90.2447V122.094C40.143 122.519 40.2375 122.938 40.4199 123.321C40.6024 123.705 40.8682 124.043 41.1979 124.31H39.3454C38.8754 124.308 38.4252 124.121 38.0929 123.788C37.7606 123.456 37.5731 123.006 37.5712 122.536V103.918C37.5712 103.823 37.5337 103.733 37.4668 103.666C37.4 103.599 37.3094 103.562 37.2149 103.562C37.1204 103.562 37.0298 103.599 36.963 103.666C36.8962 103.733 36.8587 103.823 36.8587 103.918V122.522C36.8587 123.18 37.1197 123.811 37.5845 124.277C38.0493 124.744 38.68 125.006 39.3382 125.008H43.2856V128.108C43.3105 128.645 43.4869 129.165 43.7946 129.606C44.1022 130.047 44.5285 130.392 45.0241 130.602H34.3079C34.3072 131.885 34.706 133.138 35.4491 134.185C36.1921 135.231 37.2426 136.021 38.4547 136.444H33.5241C33.4296 136.444 33.339 136.482 33.2722 136.549C33.2054 136.615 33.1678 136.706 33.1678 136.8C33.1678 136.895 33.2054 136.986 33.2722 137.052C33.339 137.119 33.4296 137.157 33.5241 137.157H162.133C162.228 137.157 162.318 137.119 162.385 137.052C162.452 136.986 162.489 136.895 162.489 136.8C162.494 136.751 162.489 136.701 162.473 136.653C162.458 136.606 162.432 136.562 162.399 136.525C162.365 136.488 162.324 136.459 162.278 136.439C162.233 136.419 162.183 136.408 162.133 136.409ZM87.8677 131.008H94.608C94.4288 131.767 93.9985 132.443 93.3868 132.927C92.7752 133.412 92.0179 133.675 91.2379 133.675C90.4578 133.675 89.7006 133.412 89.0889 132.927C88.4772 132.443 88.0469 131.767 87.8677 131.008ZM141.741 86.1905H145.688C146.158 86.1924 146.608 86.3799 146.941 86.7122C147.273 87.0445 147.461 87.4947 147.462 87.9647V122.522C147.461 122.992 147.273 123.442 146.941 123.774C146.608 124.106 146.158 124.294 145.688 124.296H143.836C144.165 124.028 144.431 123.691 144.614 123.307C144.796 122.924 144.891 122.504 144.89 122.08V90.2305C144.89 89.4746 144.59 88.7496 144.056 88.2152C143.521 87.6807 142.796 87.3804 142.04 87.3804H141.727L141.741 86.1905ZM133.846 103.483C134.197 103.483 134.54 103.587 134.832 103.782C135.124 103.977 135.351 104.254 135.485 104.578C135.62 104.903 135.655 105.259 135.586 105.604C135.518 105.948 135.349 106.264 135.101 106.512C134.853 106.76 134.537 106.929 134.192 106.997C133.848 107.066 133.492 107.031 133.167 106.897C132.843 106.762 132.566 106.535 132.371 106.243C132.176 105.951 132.072 105.608 132.072 105.257C132.072 104.787 132.259 104.336 132.592 104.003C132.924 103.67 133.376 103.483 133.846 103.483ZM128.146 103.483C128.497 103.483 128.84 103.587 129.132 103.782C129.424 103.977 129.651 104.254 129.785 104.578C129.92 104.903 129.955 105.259 129.886 105.604C129.818 105.948 129.649 106.264 129.401 106.512C129.153 106.76 128.836 106.929 128.492 106.997C128.148 107.066 127.791 107.031 127.467 106.897C127.143 106.762 126.866 106.535 126.671 106.243C126.476 105.951 126.372 105.608 126.372 105.257C126.373 105.022 126.42 104.79 126.512 104.573C126.603 104.356 126.736 104.16 126.904 103.995C127.071 103.83 127.27 103.7 127.488 103.612C127.706 103.524 127.94 103.48 128.175 103.483H128.146ZM122.446 103.483C122.797 103.483 123.14 103.587 123.432 103.782C123.723 103.977 123.951 104.254 124.085 104.578C124.219 104.903 124.255 105.259 124.186 105.604C124.118 105.948 123.949 106.264 123.701 106.512C123.452 106.76 123.136 106.929 122.792 106.997C122.448 107.066 122.091 107.031 121.767 106.897C121.443 106.762 121.166 106.535 120.971 106.243C120.776 105.951 120.672 105.608 120.672 105.257C120.673 105.02 120.721 104.785 120.814 104.566C120.907 104.348 121.043 104.15 121.214 103.985C121.384 103.819 121.586 103.69 121.808 103.604C122.029 103.518 122.266 103.477 122.503 103.483H122.446ZM95.1211 98.7735C95.1211 98.0176 95.4213 97.2927 95.9558 96.7582C96.4903 96.2237 97.2152 95.9235 97.9711 95.9235H111.438C112.194 95.9235 112.918 96.2237 113.453 96.7582C113.987 97.2927 114.288 98.0176 114.288 98.7735V112.247C114.288 113.003 113.987 113.728 113.453 114.262C112.918 114.797 112.194 115.097 111.438 115.097H97.9711C97.2152 115.097 96.4903 114.797 95.9558 114.262C95.4213 113.728 95.1211 113.003 95.1211 112.247V98.7735ZM70.3968 98.5099C70.3968 97.754 70.697 97.0291 71.2315 96.4946C71.766 95.9601 72.491 95.6598 73.2468 95.6598H86.7134C87.4693 95.6598 88.1942 95.9601 88.7287 96.4946C89.2632 97.0291 89.5634 97.754 89.5634 98.5099V111.976C89.5634 112.732 89.2632 113.457 88.7287 113.992C88.1942 114.526 87.4693 114.826 86.7134 114.826H73.2468C72.491 114.826 71.766 114.526 71.2315 113.992C70.697 113.457 70.3968 112.732 70.3968 111.976V98.5099ZM45.6725 98.2463C45.6725 97.4904 45.9728 96.7654 46.5073 96.231C47.0417 95.6965 47.7667 95.3962 48.5226 95.3962H62.0247C62.7806 95.3962 63.5055 95.6965 64.04 96.231C64.5745 96.7654 64.8748 97.4904 64.8748 98.2463V111.72C64.8748 112.476 64.5745 113.201 64.04 113.735C63.5055 114.27 62.7806 114.57 62.0247 114.57H48.5653C47.8094 114.57 47.0845 114.27 46.55 113.735C46.0155 113.201 45.7152 112.476 45.7152 111.72L45.6725 98.2463ZM44.0123 128.108V125.044H49.9832C50.0255 125.045 50.0675 125.037 50.1067 125.021C50.1459 125.005 50.1814 124.981 50.2112 124.951H74.2159C74.2457 124.981 74.2812 125.005 74.3204 125.021C74.3596 125.037 74.4016 125.045 74.4439 125.044H91.9504C92.0376 125.044 92.1214 125.01 92.1855 124.951H114.986C115.048 125.009 115.129 125.042 115.214 125.044H141.085V128.108C141.085 129.226 139.995 130.16 138.585 130.309C138.452 130.317 138.318 130.317 138.185 130.309H46.9835C45.3091 130.295 44.0123 129.298 44.0123 128.108Z" fill="#455A64" id="grey-to-dark"/>
<path d="M28.0805 136.409H20.3426C20.2481 136.409 20.1575 136.446 20.0907 136.513C20.0239 136.58 19.9863 136.67 19.9863 136.765C19.9863 136.859 20.0239 136.95 20.0907 137.017C20.1575 137.084 20.2481 137.121 20.3426 137.121H28.0805C28.175 137.121 28.2656 137.084 28.3324 137.017C28.3992 136.95 28.4368 136.859 28.4368 136.765C28.4368 136.67 28.3992 136.58 28.3324 136.513C28.2656 136.446 28.175 136.409 28.0805 136.409Z" fill="#455A64" id="grey-to-dark"/>
<path d="M118.826 72.4603L115.186 76.0941C115.021 76.2592 114.826 76.3902 114.61 76.4795C114.395 76.5687 114.164 76.6145 113.931 76.6143H111.53C111.466 76.6133 111.403 76.6301 111.347 76.6628C111.292 76.6955 111.247 76.7428 111.217 76.7995C111.188 76.8518 111.173 76.9108 111.174 76.9705C111.174 77.017 111.183 77.063 111.201 77.1058C111.219 77.1487 111.246 77.1875 111.279 77.22C111.312 77.2525 111.351 77.278 111.395 77.2952C111.438 77.3123 111.484 77.3206 111.53 77.3197H113.931C114.486 77.3307 115.027 77.1495 115.463 76.8067C115.551 76.7459 115.632 76.6767 115.706 76.6L115.976 76.3293L119.347 72.9591C119.413 72.8929 119.45 72.8032 119.45 72.7097C119.45 72.6162 119.413 72.5265 119.347 72.4603C119.28 72.3942 119.191 72.357 119.097 72.357C119.004 72.357 118.914 72.3942 118.848 72.4603H118.826Z" fill="#455A64" id="grey-to-dark"/>
<path d="M150.334 19.0929H106.279V21.3872H150.334V19.0929Z" fill="#455A64" id="grey-to-dark"/>
<path d="M150.334 23.1685H106.279V25.4628H150.334V23.1685Z" fill="#455A64" id="grey-to-dark"/>
<path d="M150.334 27.2441H106.279V29.5384H150.334V27.2441Z" fill="#455A64" id="grey-to-dark"/>
<path d="M150.334 31.3197H106.279V33.614H150.334V31.3197Z" fill="#455A64" id="grey-to-dark"/>
<path d="M150.334 35.3882H106.279V37.6824H150.334V35.3882Z" fill="#455A64" id="grey-to-dark"/>
<path d="M150.334 39.4637H106.279V41.758H150.334V39.4637Z" fill="#455A64" id="grey-to-dark"/>
<path d="M150.334 43.5393H106.279V45.8336H150.334V43.5393Z" fill="#455A64" id="grey-to-dark"/>
<path d="M150.334 47.6149H106.279V49.9092H150.334V47.6149Z" fill="#455A64" id="grey-to-dark"/>
<path d="M150.334 51.6905H106.279V53.9848H150.334V51.6905Z" fill="#455A64" id="grey-to-dark"/>
<path d="M150.334 55.7661H106.279V58.0604H150.334V55.7661Z" fill="#455A64" id="grey-to-dark"/>
<path d="M150.334 59.8417H106.279V62.136H150.334V59.8417Z" fill="#455A64" id="grey-to-dark"/>
<path d="M150.334 63.9173H106.279V66.2116H150.334V63.9173Z" fill="#455A64" id="grey-to-dark"/>
<rect x="46.25" y="96" width="18" height="18" rx="2.5" fill="#F87302"/>
<rect x="71" y="96.25" width="18" height="18" rx="2.5" fill="#008CC8"/>
<rect x="95.75" y="96.5" width="18" height="18" rx="2.5" fill="#F87302"/>
</svg>
